<svg xmlns="http://www.w3.org/2000/svg" xmlns:xlink="http://www.w3.org/1999/xlink" contentStyleType="text/css" data-diagram-type="SEQUENCE" height="687px" preserveAspectRatio="none" style="width:1133px;height:687px;background:#FFFFFF;" version="1.1" viewBox="0 0 1133 687" width="1133px" zoomAndPan="magnify"><title>Flujo de Login de Usuarios</title><defs/><g><text fill="#000000" font-family="sans-serif" font-size="14" font-weight="bold" lengthAdjust="spacing" textLength="209.3711" x="461.2031" y="27.9951">Flujo de Login de Usuarios</text><rect fill="none" height="178.7344" style="stroke:#000000;stroke-width:1.5;" width="512.6572" x="184.876" y="381.6563"/><g><title>User</title><rect fill="#000000" fill-opacity="0.00000" height="487.9297" width="8" x="19.9551" y="118.5938"/><line style="stroke:#181818;stroke-width:0.5;stroke-dasharray:5.0,5.0;" x1="23" x2="23" y1="118.5938" y2="606.5234"/></g><g><title>Client</title><rect fill="#000000" fill-opacity="0.00000" height="487.9297" width="8" x="218.1411" y="118.5938"/><line style="stroke:#181818;stroke-width:0.5;stroke-dasharray:5.0,5.0;" x1="221.876" x2="221.876" y1="118.5938" y2="606.5234"/></g><g><title>API Gateway</title><rect fill="#000000" fill-opacity="0.00000" height="487.9297" width="8" x="437.0078" y="118.5938"/><line style="stroke:#181818;stroke-width:0.5;stroke-dasharray:5.0,5.0;" x1="440.7861" x2="440.7861" y1="118.5938" y2="606.5234"/></g><g><title>AUTH Service</title><rect fill="#000000" fill-opacity="0.00000" height="487.9297" width="8" x="628.9858" y="118.5938"/><line style="stroke:#181818;stroke-width:0.5;stroke-dasharray:5.0,5.0;" x1="632.4385" x2="632.4385" y1="118.5938" y2="606.5234"/></g><g><title>DB Service</title><rect fill="#000000" fill-opacity="0.00000" height="487.9297" width="8" x="847.5352" y="118.5938"/><line style="stroke:#181818;stroke-width:0.5;stroke-dasharray:5.0,5.0;" x1="851.2471" x2="851.2471" y1="118.5938" y2="606.5234"/></g><g><title>UserDB</title><rect fill="#000000" fill-opacity="0.00000" height="487.9297" width="8" x="1094.6299" y="118.5938"/><line style="stroke:#181818;stroke-width:0.5;stroke-dasharray:5.0,5.0;" x1="1098.4824" x2="1098.4824" y1="118.5938" y2="606.5234"/></g><g class="participant participant-head" data-participant="user"><text fill="#000000" font-family="sans-serif" font-size="14" lengthAdjust="spacing" textLength="31.9102" x="5" y="115.292">User</text><ellipse cx="23.9551" cy="50.7969" fill="#E2E2F0" rx="8" ry="8" style="stroke:#181818;stroke-width:0.5;"/><path d="M23.9551,58.7969 L23.9551,85.7969 M10.9551,66.7969 L36.9551,66.7969 M23.9551,85.7969 L10.9551,100.7969 M23.9551,85.7969 L36.9551,100.7969" fill="none" style="stroke:#181818;stroke-width:0.5;"/></g><g class="participant participant-tail" data-participant="user"><text fill="#000000" font-family="sans-serif" font-size="14" lengthAdjust="spacing" textLength="31.9102" x="5" y="618.5186">User</text><ellipse cx="23.9551" cy="630.3203" fill="#E2E2F0" rx="8" ry="8" style="stroke:#181818;stroke-width:0.5;"/><path d="M23.9551,638.3203 L23.9551,665.3203 M10.9551,646.3203 L36.9551,646.3203 M23.9551,665.3203 L10.9551,680.3203 M23.9551,665.3203 L36.9551,680.3203" fill="none" style="stroke:#181818;stroke-width:0.5;"/></g><g class="participant participant-head" data-participant="client"><rect fill="#E2E2F0" height="30.2969" rx="2.5" ry="2.5" style="stroke:#181818;stroke-width:0.5;" width="54.5303" x="194.876" y="87.2969"/><text fill="#000000" font-family="sans-serif" font-size="14" lengthAdjust="spacing" textLength="40.5303" x="201.876" y="107.292">Client</text></g><g class="participant participant-tail" data-participant="client"><rect fill="#E2E2F0" height="30.2969" rx="2.5" ry="2.5" style="stroke:#181818;stroke-width:0.5;" width="54.5303" x="194.876" y="605.5234"/><text fill="#000000" font-family="sans-serif" font-size="14" lengthAdjust="spacing" textLength="40.5303" x="201.876" y="625.5186">Client</text></g><g class="participant participant-head" data-participant="gateway"><rect fill="#E2E2F0" height="30.2969" rx="2.5" ry="2.5" style="stroke:#181818;stroke-width:0.5;" width="102.4434" x="389.7861" y="87.2969"/><text fill="#000000" font-family="sans-serif" font-size="14" lengthAdjust="spacing" textLength="88.4434" x="396.7861" y="107.292">API Gateway</text></g><g class="participant participant-tail" data-participant="gateway"><rect fill="#E2E2F0" height="30.2969" rx="2.5" ry="2.5" style="stroke:#181818;stroke-width:0.5;" width="102.4434" x="389.7861" y="605.5234"/><text fill="#000000" font-family="sans-serif" font-size="14" lengthAdjust="spacing" textLength="88.4434" x="396.7861" y="625.5186">API Gateway</text></g><g class="participant participant-head" data-participant="auth"><rect fill="#E2E2F0" height="30.2969" rx="2.5" ry="2.5" style="stroke:#181818;stroke-width:0.5;" width="109.0947" x="578.4385" y="87.2969"/><text fill="#000000" font-family="sans-serif" font-size="14" lengthAdjust="spacing" textLength="95.0947" x="585.4385" y="107.292">AUTH Service</text></g><g class="participant participant-tail" data-participant="auth"><rect fill="#E2E2F0" height="30.2969" rx="2.5" ry="2.5" style="stroke:#181818;stroke-width:0.5;" width="109.0947" x="578.4385" y="605.5234"/><text fill="#000000" font-family="sans-serif" font-size="14" lengthAdjust="spacing" textLength="95.0947" x="585.4385" y="625.5186">AUTH Service</text></g><g class="participant participant-head" data-participant="db"><rect fill="#E2E2F0" height="30.2969" rx="2.5" ry="2.5" style="stroke:#181818;stroke-width:0.5;" width="90.5762" x="806.2471" y="87.2969"/><text fill="#000000" font-family="sans-serif" font-size="14" lengthAdjust="spacing" textLength="76.5762" x="813.2471" y="107.292">DB Service</text></g><g class="participant participant-tail" data-participant="db"><rect fill="#E2E2F0" height="30.2969" rx="2.5" ry="2.5" style="stroke:#181818;stroke-width:0.5;" width="90.5762" x="806.2471" y="605.5234"/><text fill="#000000" font-family="sans-serif" font-size="14" lengthAdjust="spacing" textLength="76.5762" x="813.2471" y="625.5186">DB Service</text></g><g class="participant participant-head" data-participant="userDB"><text fill="#000000" font-family="sans-serif" font-size="14" lengthAdjust="spacing" textLength="52.2949" x="1069.4824" y="115.292">UserDB</text><path d="M1080.6299,66.2969 C1080.6299,56.2969 1098.6299,56.2969 1098.6299,56.2969 C1098.6299,56.2969 1116.6299,56.2969 1116.6299,66.2969 L1116.6299,92.2969 C1116.6299,102.2969 1098.6299,102.2969 1098.6299,102.2969 C1098.6299,102.2969 1080.6299,102.2969 1080.6299,92.2969 L1080.6299,66.2969" fill="#E2E2F0" style="stroke:#181818;stroke-width:1.5;"/><path d="M1080.6299,66.2969 C1080.6299,76.2969 1098.6299,76.2969 1098.6299,76.2969 C1098.6299,76.2969 1116.6299,76.2969 1116.6299,66.2969" fill="none" style="stroke:#181818;stroke-width:1.5;"/></g><g class="participant participant-tail" data-participant="userDB"><text fill="#000000" font-family="sans-serif" font-size="14" lengthAdjust="spacing" textLength="52.2949" x="1069.4824" y="618.5186">UserDB</text><path d="M1080.6299,631.8203 C1080.6299,621.8203 1098.6299,621.8203 1098.6299,621.8203 C1098.6299,621.8203 1116.6299,621.8203 1116.6299,631.8203 L1116.6299,657.8203 C1116.6299,667.8203 1098.6299,667.8203 1098.6299,667.8203 C1098.6299,667.8203 1080.6299,667.8203 1080.6299,657.8203 L1080.6299,631.8203" fill="#E2E2F0" style="stroke:#181818;stroke-width:1.5;"/><path d="M1080.6299,631.8203 C1080.6299,641.8203 1098.6299,641.8203 1098.6299,641.8203 C1098.6299,641.8203 1116.6299,641.8203 1116.6299,631.8203" fill="none" style="stroke:#181818;stroke-width:1.5;"/></g><g class="message" data-participant-1="user" data-participant-2="client"><polygon fill="#181818" points="210.1411,145.7266,220.1411,149.7266,210.1411,153.7266,214.1411,149.7266" style="stroke:#181818;stroke-width:1;"/><line style="stroke:#181818;stroke-width:1;" x1="23.9551" x2="216.1411" y1="149.7266" y2="149.7266"/><text fill="#000000" font-family="sans-serif" font-size="13" lengthAdjust="spacing" textLength="148.3257" x="30.9551" y="144.6606">Introduce credenciales</text></g><g class="message" data-participant-1="client" data-participant-2="gateway"><polygon fill="#181818" points="429.0078,174.8594,439.0078,178.8594,429.0078,182.8594,433.0078,178.8594" style="stroke:#181818;stroke-width:1;"/><line style="stroke:#181818;stroke-width:1;" x1="222.1411" x2="435.0078" y1="178.8594" y2="178.8594"/><text fill="#000000" font-family="sans-serif" font-size="13" lengthAdjust="spacing" textLength="194.8667" x="229.1411" y="173.7935">POST (username + password)</text></g><g class="message" data-participant-1="gateway" data-participant-2="auth"><polygon fill="#181818" points="620.9858,203.9922,630.9858,207.9922,620.9858,211.9922,624.9858,207.9922" style="stroke:#181818;stroke-width:1;"/><line style="stroke:#181818;stroke-width:1;" x1="441.0078" x2="626.9858" y1="207.9922" y2="207.9922"/><text fill="#000000" font-family="sans-serif" font-size="13" lengthAdjust="spacing" textLength="138.2837" x="448.0078" y="202.9263">Delega autenticaci&#243;n</text></g><g class="message" data-participant-1="auth" data-participant-2="db"><polygon fill="#181818" points="839.5352,233.125,849.5352,237.125,839.5352,241.125,843.5352,237.125" style="stroke:#181818;stroke-width:1;"/><line style="stroke:#181818;stroke-width:1;" x1="632.9858" x2="845.5352" y1="237.125" y2="237.125"/><text fill="#000000" font-family="sans-serif" font-size="13" lengthAdjust="spacing" textLength="194.5493" x="639.9858" y="232.0591">Solicita usuario por username</text></g><g class="message" data-participant-1="db" data-participant-2="userDB"><polygon fill="#181818" points="1086.6299,262.2578,1096.6299,266.2578,1086.6299,270.2578,1090.6299,266.2578" style="stroke:#181818;stroke-width:1;"/><line style="stroke:#181818;stroke-width:1;" x1="851.5352" x2="1092.6299" y1="266.2578" y2="266.2578"/><text fill="#000000" font-family="sans-serif" font-size="13" lengthAdjust="spacing" textLength="109.2178" x="858.5352" y="261.1919">Consulta usuario</text></g><g class="message" data-participant-1="userDB" data-participant-2="db"><polygon fill="#181818" points="862.5352,291.3906,852.5352,295.3906,862.5352,299.3906,858.5352,295.3906" style="stroke:#181818;stroke-width:1;"/><line style="stroke:#181818;stroke-width:1;" x1="856.5352" x2="1097.6299" y1="295.3906" y2="295.3906"/><text fill="#000000" font-family="sans-serif" font-size="13" lengthAdjust="spacing" textLength="223.0947" x="868.5352" y="290.3247">Devuelve hash almacenado + salt</text></g><g class="message" data-participant-1="db" data-participant-2="auth"><polygon fill="#181818" points="643.9858,320.5234,633.9858,324.5234,643.9858,328.5234,639.9858,324.5234" style="stroke:#181818;stroke-width:1;"/><line style="stroke:#181818;stroke-width:1;" x1="637.9858" x2="850.5352" y1="324.5234" y2="324.5234"/><text fill="#000000" font-family="sans-serif" font-size="13" lengthAdjust="spacing" textLength="139.1978" x="649.9858" y="319.4575">Devuelve hash + salt</text></g><g class="message" data-participant-1="auth" data-participant-2="auth"><line style="stroke:#181818;stroke-width:1;" x1="632.9858" x2="674.9858" y1="353.6563" y2="353.6563"/><line style="stroke:#181818;stroke-width:1;" x1="674.9858" x2="674.9858" y1="353.6563" y2="366.6563"/><line style="stroke:#181818;stroke-width:1;" x1="633.9858" x2="674.9858" y1="366.6563" y2="366.6563"/><polygon fill="#181818" points="643.9858,362.6563,633.9858,366.6563,643.9858,370.6563,639.9858,366.6563" style="stroke:#181818;stroke-width:1;"/><text fill="#000000" font-family="sans-serif" font-size="13" lengthAdjust="spacing" textLength="115.229" x="639.9858" y="348.5903">Verifica password</text></g><path d="M184.876,381.6563 L249.3188,381.6563 L249.3188,388.7891 L239.3188,398.7891 L184.876,398.7891 L184.876,381.6563" fill="#EEEEEE" style="stroke:#000000;stroke-width:1.5;"/><rect fill="none" height="178.7344" style="stroke:#000000;stroke-width:1.5;" width="512.6572" x="184.876" y="381.6563"/><text fill="#000000" font-family="sans-serif" font-size="13" font-weight="bold" lengthAdjust="spacing" textLength="19.4429" x="199.876" y="394.7231">alt</text><text fill="#000000" font-family="sans-serif" font-size="11" font-weight="bold" lengthAdjust="spacing" textLength="137.4785" x="264.3188" y="393.8667">[Credenciales v&#225;lidas]</text><g class="message" data-participant-1="auth" data-participant-2="gateway"><polygon fill="#181818" points="452.0078,415.9219,442.0078,419.9219,452.0078,423.9219,448.0078,419.9219" style="stroke:#181818;stroke-width:1;"/><line style="stroke:#181818;stroke-width:1;" x1="446.0078" x2="631.9858" y1="419.9219" y2="419.9219"/><text fill="#000000" font-family="sans-serif" font-size="13" lengthAdjust="spacing" textLength="68.5991" x="458.0078" y="414.856">200 + JWT</text></g><g class="message" data-participant-1="gateway" data-participant-2="client"><polygon fill="#181818" points="233.1411,445.0547,223.1411,449.0547,233.1411,453.0547,229.1411,449.0547" style="stroke:#181818;stroke-width:1;"/><line style="stroke:#181818;stroke-width:1;" x1="227.1411" x2="440.0078" y1="449.0547" y2="449.0547"/><text fill="#000000" font-family="sans-serif" font-size="13" lengthAdjust="spacing" textLength="68.5991" x="239.1411" y="443.9888">200 + JWT</text></g><line style="stroke:#000000;stroke-width:1;stroke-dasharray:2.0,2.0;" x1="184.876" x2="697.5332" y1="458.0547" y2="458.0547"/><text fill="#000000" font-family="sans-serif" font-size="11" font-weight="bold" lengthAdjust="spacing" textLength="149.0801" x="189.876" y="468.2651">[Credenciales inv&#225;lidas]</text><g class="message" data-participant-1="auth" data-participant-2="gateway"><polygon fill="#181818" points="452.0078,504.125,442.0078,508.125,452.0078,512.125,448.0078,508.125" style="stroke:#181818;stroke-width:1;"/><line style="stroke:#181818;stroke-width:1;" x1="446.0078" x2="631.9858" y1="508.125" y2="508.125"/><text fill="#000000" font-family="sans-serif" font-size="13" lengthAdjust="spacing" textLength="24.813" x="458.0078" y="487.9263">401</text><text fill="#000000" font-family="sans-serif" font-size="13" lengthAdjust="spacing" textLength="167.978" x="458.0078" y="503.0591">("Credenciales inv&#225;lidas")</text></g><g class="message" data-participant-1="gateway" data-participant-2="client"><polygon fill="#181818" points="233.1411,548.3906,223.1411,552.3906,233.1411,556.3906,229.1411,552.3906" style="stroke:#181818;stroke-width:1;"/><line style="stroke:#181818;stroke-width:1;" x1="227.1411" x2="440.0078" y1="552.3906" y2="552.3906"/><text fill="#000000" font-family="sans-serif" font-size="13" lengthAdjust="spacing" textLength="24.813" x="239.1411" y="532.1919">401</text><text fill="#000000" font-family="sans-serif" font-size="13" lengthAdjust="spacing" textLength="167.978" x="239.1411" y="547.3247">("Credenciales inv&#225;lidas")</text></g><g class="message" data-participant-1="client" data-participant-2="user"><polygon fill="#181818" points="34.9551,584.5234,24.9551,588.5234,34.9551,592.5234,30.9551,588.5234" style="stroke:#181818;stroke-width:1;"/><line style="stroke:#181818;stroke-width:1;" x1="28.9551" x2="221.1411" y1="588.5234" y2="588.5234"/><text fill="#000000" font-family="sans-serif" font-size="13" lengthAdjust="spacing" textLength="174.186" x="40.9551" y="583.4575">Muestra resultado de login</text></g><!--SRC=[XPDDJiCm48NtFiKegrQeKa6iigX46m5582grXGsRgJsqHguTsKugZiCPE48lXfsVja7yhEBaVVFo_2nxwHL1SgsADmE2uDwifOwBfIlGIkCInf1xOyC7ie0EYl1aELelkSnHUqWcIfBsIHHvjUpALxCftA2d7RvNpBfUVuEMYrkOaoqbfuh2mc-wI3Rk06B517fSeGlvOxXidBJviZ5ZyGc3KHCfXQdsreY24t1BWZINgCYnMevWaok5sUDy0Rquht5BS0OvEhSpLlHPmqGy1amX8qLhZ2_1HNBaSl-fMTGY8rOfp8qAM_0OWbMDGXxARCsPM4Mkpfp2n6XNg2FBQg6rogWiI9K46tGRGBL5JXg52H4TAj-OjS5EsGOu1AkP9xBoDOG-R90522OdzK2v_r1Ie6C0xUoXfulXC1ZVFI-2U59CM_XH9XNEg6ChzL_6byFp5zrBVfb8-Z__xzyfqe8rvpqOnMPJU2Z8UOjWgUfTL7T0nJlm1G00]--></g></svg>