<svg xmlns="http://www.w3.org/2000/svg" xmlns:xlink="http://www.w3.org/1999/xlink" contentStyleType="text/css" data-diagram-type="SEQUENCE" height="835px" preserveAspectRatio="none" style="width:804px;height:835px;background:#FFFFFF;" version="1.1" viewBox="0 0 804 835" width="804px" zoomAndPan="magnify"><title>Flujo de Login de Usuarios</title><defs/><g><text fill="#000000" font-family="sans-serif" font-size="14" font-weight="bold" lengthAdjust="spacing" textLength="209.3711" x="296.531" y="27.9951">Flujo de Login de Usuarios</text><rect fill="none" height="220.8672" style="stroke:#000000;stroke-width:1.5;" width="473.5273" x="128.6929" y="472.4531"/><g><title>User</title><rect fill="#000000" fill-opacity="0.00000" height="635.9922" width="8" x="19.9551" y="118.5938"/><line style="stroke:#181818;stroke-width:0.5;stroke-dasharray:5.0,5.0;" x1="23" x2="23" y1="118.5938" y2="754.5859"/></g><g><title>Client</title><rect fill="#000000" fill-opacity="0.00000" height="635.9922" width="8" x="161.958" y="118.5938"/><line style="stroke:#181818;stroke-width:0.5;stroke-dasharray:5.0,5.0;" x1="165.6929" x2="165.6929" y1="118.5938" y2="754.5859"/></g><g><title>API Gateway</title><rect fill="#000000" fill-opacity="0.00000" height="635.9922" width="8" x="332.3984" y="118.5938"/><line style="stroke:#181818;stroke-width:0.5;stroke-dasharray:5.0,5.0;" x1="336.1768" x2="336.1768" y1="118.5938" y2="754.5859"/></g><g><title>AUTH Service</title><rect fill="#000000" fill-opacity="0.00000" height="635.9922" width="8" x="502.8389" y="118.5938"/><line style="stroke:#181818;stroke-width:0.5;stroke-dasharray:5.0,5.0;" x1="506.2915" x2="506.2915" y1="118.5938" y2="754.5859"/></g><g><title>DB Service</title><rect fill="#000000" fill-opacity="0.00000" height="635.9922" width="8" x="632.0679" y="118.5938"/><line style="stroke:#181818;stroke-width:0.5;stroke-dasharray:5.0,5.0;" x1="635.7798" x2="635.7798" y1="118.5938" y2="754.5859"/></g><g><title>UserDB</title><rect fill="#000000" fill-opacity="0.00000" height="635.9922" width="8" x="765.2856" y="118.5938"/><line style="stroke:#181818;stroke-width:0.5;stroke-dasharray:5.0,5.0;" x1="769.1382" x2="769.1382" y1="118.5938" y2="754.5859"/></g><g class="participant participant-head" data-participant="user"><text fill="#000000" font-family="sans-serif" font-size="14" lengthAdjust="spacing" textLength="31.9102" x="5" y="115.292">User</text><ellipse cx="23.9551" cy="50.7969" fill="#E2E2F0" rx="8" ry="8" style="stroke:#181818;stroke-width:0.5;"/><path d="M23.9551,58.7969 L23.9551,85.7969 M10.9551,66.7969 L36.9551,66.7969 M23.9551,85.7969 L10.9551,100.7969 M23.9551,85.7969 L36.9551,100.7969" fill="none" style="stroke:#181818;stroke-width:0.5;"/></g><g class="participant participant-tail" data-participant="user"><text fill="#000000" font-family="sans-serif" font-size="14" lengthAdjust="spacing" textLength="31.9102" x="5" y="766.5811">User</text><ellipse cx="23.9551" cy="778.3828" fill="#E2E2F0" rx="8" ry="8" style="stroke:#181818;stroke-width:0.5;"/><path d="M23.9551,786.3828 L23.9551,813.3828 M10.9551,794.3828 L36.9551,794.3828 M23.9551,813.3828 L10.9551,828.3828 M23.9551,813.3828 L36.9551,828.3828" fill="none" style="stroke:#181818;stroke-width:0.5;"/></g><g class="participant participant-head" data-participant="client"><rect fill="#E2E2F0" height="30.2969" rx="2.5" ry="2.5" style="stroke:#181818;stroke-width:0.5;" width="54.5303" x="138.6929" y="87.2969"/><text fill="#000000" font-family="sans-serif" font-size="14" lengthAdjust="spacing" textLength="40.5303" x="145.6929" y="107.292">Client</text></g><g class="participant participant-tail" data-participant="client"><rect fill="#E2E2F0" height="30.2969" rx="2.5" ry="2.5" style="stroke:#181818;stroke-width:0.5;" width="54.5303" x="138.6929" y="753.5859"/><text fill="#000000" font-family="sans-serif" font-size="14" lengthAdjust="spacing" textLength="40.5303" x="145.6929" y="773.5811">Client</text></g><g class="participant participant-head" data-participant="gateway"><rect fill="#E2E2F0" height="30.2969" rx="2.5" ry="2.5" style="stroke:#181818;stroke-width:0.5;" width="102.4434" x="285.1768" y="87.2969"/><text fill="#000000" font-family="sans-serif" font-size="14" lengthAdjust="spacing" textLength="88.4434" x="292.1768" y="107.292">API Gateway</text></g><g class="participant participant-tail" data-participant="gateway"><rect fill="#E2E2F0" height="30.2969" rx="2.5" ry="2.5" style="stroke:#181818;stroke-width:0.5;" width="102.4434" x="285.1768" y="753.5859"/><text fill="#000000" font-family="sans-serif" font-size="14" lengthAdjust="spacing" textLength="88.4434" x="292.1768" y="773.5811">API Gateway</text></g><g class="participant participant-head" data-participant="auth"><rect fill="#E2E2F0" height="30.2969" rx="2.5" ry="2.5" style="stroke:#181818;stroke-width:0.5;" width="109.0947" x="452.2915" y="87.2969"/><text fill="#000000" font-family="sans-serif" font-size="14" lengthAdjust="spacing" textLength="95.0947" x="459.2915" y="107.292">AUTH Service</text></g><g class="participant participant-tail" data-participant="auth"><rect fill="#E2E2F0" height="30.2969" rx="2.5" ry="2.5" style="stroke:#181818;stroke-width:0.5;" width="109.0947" x="452.2915" y="753.5859"/><text fill="#000000" font-family="sans-serif" font-size="14" lengthAdjust="spacing" textLength="95.0947" x="459.2915" y="773.5811">AUTH Service</text></g><g class="participant participant-head" data-participant="db"><rect fill="#E2E2F0" height="30.2969" rx="2.5" ry="2.5" style="stroke:#181818;stroke-width:0.5;" width="90.5762" x="590.7798" y="87.2969"/><text fill="#000000" font-family="sans-serif" font-size="14" lengthAdjust="spacing" textLength="76.5762" x="597.7798" y="107.292">DB Service</text></g><g class="participant participant-tail" data-participant="db"><rect fill="#E2E2F0" height="30.2969" rx="2.5" ry="2.5" style="stroke:#181818;stroke-width:0.5;" width="90.5762" x="590.7798" y="753.5859"/><text fill="#000000" font-family="sans-serif" font-size="14" lengthAdjust="spacing" textLength="76.5762" x="597.7798" y="773.5811">DB Service</text></g><g class="participant participant-head" data-participant="userDB"><text fill="#000000" font-family="sans-serif" font-size="14" lengthAdjust="spacing" textLength="52.2949" x="740.1382" y="115.292">UserDB</text><path d="M751.2856,66.2969 C751.2856,56.2969 769.2856,56.2969 769.2856,56.2969 C769.2856,56.2969 787.2856,56.2969 787.2856,66.2969 L787.2856,92.2969 C787.2856,102.2969 769.2856,102.2969 769.2856,102.2969 C769.2856,102.2969 751.2856,102.2969 751.2856,92.2969 L751.2856,66.2969" fill="#E2E2F0" style="stroke:#181818;stroke-width:1.5;"/><path d="M751.2856,66.2969 C751.2856,76.2969 769.2856,76.2969 769.2856,76.2969 C769.2856,76.2969 787.2856,76.2969 787.2856,66.2969" fill="none" style="stroke:#181818;stroke-width:1.5;"/></g><g class="participant participant-tail" data-participant="userDB"><text fill="#000000" font-family="sans-serif" font-size="14" lengthAdjust="spacing" textLength="52.2949" x="740.1382" y="766.5811">UserDB</text><path d="M751.2856,779.8828 C751.2856,769.8828 769.2856,769.8828 769.2856,769.8828 C769.2856,769.8828 787.2856,769.8828 787.2856,779.8828 L787.2856,805.8828 C787.2856,815.8828 769.2856,815.8828 769.2856,815.8828 C769.2856,815.8828 751.2856,815.8828 751.2856,805.8828 L751.2856,779.8828" fill="#E2E2F0" style="stroke:#181818;stroke-width:1.5;"/><path d="M751.2856,779.8828 C751.2856,789.8828 769.2856,789.8828 769.2856,789.8828 C769.2856,789.8828 787.2856,789.8828 787.2856,779.8828" fill="none" style="stroke:#181818;stroke-width:1.5;"/></g><g class="message" data-participant-1="user" data-participant-2="client"><polygon fill="#181818" points="153.958,160.8594,163.958,164.8594,153.958,168.8594,157.958,164.8594" style="stroke:#181818;stroke-width:1;"/><line style="stroke:#181818;stroke-width:1;" x1="23.9551" x2="159.958" y1="164.8594" y2="164.8594"/><text fill="#000000" font-family="sans-serif" font-size="13" lengthAdjust="spacing" textLength="62.1055" x="30.9551" y="144.6606">Introduce</text><text fill="#000000" font-family="sans-serif" font-size="13" lengthAdjust="spacing" textLength="82.0879" x="30.9551" y="159.7935">credenciales</text></g><g class="message" data-participant-1="client" data-participant-2="gateway"><polygon fill="#0000FF" points="324.3984,205.125,334.3984,209.125,324.3984,213.125,328.3984,209.125" style="stroke:#0000FF;stroke-width:1;"/><line style="stroke:#0000FF;stroke-width:1;" x1="165.958" x2="330.3984" y1="209.125" y2="209.125"/><text fill="#000000" font-family="sans-serif" font-size="13" lengthAdjust="spacing" textLength="71.8936" x="172.958" y="188.9263">HTTP POST</text><text fill="#000000" font-family="sans-serif" font-size="13" lengthAdjust="spacing" textLength="146.4404" x="172.958" y="204.0591">(Username, Password)</text></g><g class="message" data-participant-1="gateway" data-participant-2="auth"><polygon fill="#800080" points="494.8389,249.3906,504.8389,253.3906,494.8389,257.3906,498.8389,253.3906" style="stroke:#800080;stroke-width:1;"/><line style="stroke:#800080;stroke-width:1;" x1="336.3984" x2="500.8389" y1="253.3906" y2="253.3906"/><text fill="#000000" font-family="sans-serif" font-size="13" lengthAdjust="spacing" textLength="116.0225" x="343.3984" y="233.1919">Delega validaci&#243;n</text><text fill="#000000" font-family="sans-serif" font-size="13" lengthAdjust="spacing" textLength="146.4404" x="343.3984" y="248.3247">(Username, Password)</text></g><g class="message" data-participant-1="auth" data-participant-2="db"><polygon fill="#800080" points="624.0679,293.6563,634.0679,297.6563,624.0679,301.6563,628.0679,297.6563" style="stroke:#800080;stroke-width:1;"/><line style="stroke:#800080;stroke-width:1;" x1="506.8389" x2="630.0679" y1="297.6563" y2="297.6563"/><text fill="#000000" font-family="sans-serif" font-size="13" lengthAdjust="spacing" textLength="99.5122" x="513.8389" y="277.4575">Solicita usuario</text><text fill="#000000" font-family="sans-serif" font-size="13" lengthAdjust="spacing" textLength="76.6416" x="513.8389" y="292.5903">(Username)</text></g><g class="message" data-participant-1="db" data-participant-2="userDB"><polygon fill="#181818" points="757.2856,322.7891,767.2856,326.7891,757.2856,330.7891,761.2856,326.7891" style="stroke:#181818;stroke-width:1;"/><line style="stroke:#181818;stroke-width:1;" x1="636.0679" x2="763.2856" y1="326.7891" y2="326.7891"/><text fill="#000000" font-family="sans-serif" font-size="13" lengthAdjust="spacing" textLength="109.2178" x="643.0679" y="321.7231">Consulta usuario</text></g><g class="message" data-participant-1="userDB" data-participant-2="db"><polygon fill="#181818" points="647.0679,367.0547,637.0679,371.0547,647.0679,375.0547,643.0679,371.0547" style="stroke:#181818;stroke-width:1;"/><line style="stroke:#181818;stroke-width:1;" x1="641.0679" x2="768.2856" y1="371.0547" y2="371.0547"/><text fill="#000000" font-family="sans-serif" font-size="13" lengthAdjust="spacing" textLength="101.4165" x="653.0679" y="350.856">Devuelve datos</text><text fill="#000000" font-family="sans-serif" font-size="13" lengthAdjust="spacing" textLength="76.0894" x="653.0679" y="365.9888">(Hash, Salt)</text></g><g class="message" data-participant-1="db" data-participant-2="auth"><polygon fill="#800080" points="517.8389,411.3203,507.8389,415.3203,517.8389,419.3203,513.8389,415.3203" style="stroke:#800080;stroke-width:1;"/><line style="stroke:#800080;stroke-width:1;" x1="511.8389" x2="635.0679" y1="415.3203" y2="415.3203"/><text fill="#000000" font-family="sans-serif" font-size="13" lengthAdjust="spacing" textLength="101.4165" x="523.8389" y="395.1216">Devuelve datos</text><text fill="#000000" font-family="sans-serif" font-size="13" lengthAdjust="spacing" textLength="76.0894" x="523.8389" y="410.2544">(Hash, Salt)</text></g><g class="message" data-participant-1="auth" data-participant-2="auth"><line style="stroke:#181818;stroke-width:1;" x1="506.8389" x2="548.8389" y1="444.4531" y2="444.4531"/><line style="stroke:#181818;stroke-width:1;" x1="548.8389" x2="548.8389" y1="444.4531" y2="457.4531"/><line style="stroke:#181818;stroke-width:1;" x1="507.8389" x2="548.8389" y1="457.4531" y2="457.4531"/><polygon fill="#181818" points="517.8389,453.4531,507.8389,457.4531,517.8389,461.4531,513.8389,457.4531" style="stroke:#181818;stroke-width:1;"/><text fill="#000000" font-family="sans-serif" font-size="13" lengthAdjust="spacing" textLength="115.229" x="513.8389" y="439.3872">Verifica password</text></g><path d="M128.6929,472.4531 L193.1357,472.4531 L193.1357,479.5859 L183.1357,489.5859 L128.6929,489.5859 L128.6929,472.4531" fill="#EEEEEE" style="stroke:#000000;stroke-width:1.5;"/><rect fill="none" height="220.8672" style="stroke:#000000;stroke-width:1.5;" width="473.5273" x="128.6929" y="472.4531"/><text fill="#000000" font-family="sans-serif" font-size="13" font-weight="bold" lengthAdjust="spacing" textLength="19.4429" x="143.6929" y="485.52">alt</text><text fill="#000000" font-family="sans-serif" font-size="11" font-weight="bold" lengthAdjust="spacing" textLength="73.7021" x="208.1357" y="484.6636">[Incorrecto]</text><g class="message" data-participant-1="auth" data-participant-2="gateway"><polygon fill="#800080" points="347.3984,506.7188,337.3984,510.7188,347.3984,514.7188,343.3984,510.7188" style="stroke:#800080;stroke-width:1;"/><line style="stroke:#800080;stroke-width:1;" x1="341.3984" x2="505.8389" y1="510.7188" y2="510.7188"/><text fill="#000000" font-family="sans-serif" font-size="13" lengthAdjust="spacing" textLength="66.0601" x="353.3984" y="505.6528">Incorrecto</text></g><g class="message" data-participant-1="gateway" data-participant-2="client"><polygon fill="#0000FF" points="176.958,550.9844,166.958,554.9844,176.958,558.9844,172.958,554.9844" style="stroke:#0000FF;stroke-width:1;"/><line style="stroke:#0000FF;stroke-width:1;" x1="170.958" x2="335.3984" y1="554.9844" y2="554.9844"/><text fill="#000000" font-family="sans-serif" font-size="13" lengthAdjust="spacing" textLength="62.4419" x="182.958" y="534.7856">HTTP 401</text><text fill="#000000" font-family="sans-serif" font-size="13" lengthAdjust="spacing" textLength="91.9458" x="182.958" y="549.9185">No Autorizado</text></g><line style="stroke:#000000;stroke-width:1;stroke-dasharray:2.0,2.0;" x1="128.6929" x2="602.2202" y1="563.9844" y2="563.9844"/><text fill="#000000" font-family="sans-serif" font-size="11" font-weight="bold" lengthAdjust="spacing" textLength="63.3306" x="133.6929" y="574.1948">[Correcto]</text><g class="message" data-participant-1="auth" data-participant-2="auth"><line style="stroke:#181818;stroke-width:1;" x1="506.8389" x2="548.8389" y1="598.9219" y2="598.9219"/><line style="stroke:#181818;stroke-width:1;" x1="548.8389" x2="548.8389" y1="598.9219" y2="611.9219"/><line style="stroke:#181818;stroke-width:1;" x1="507.8389" x2="548.8389" y1="611.9219" y2="611.9219"/><polygon fill="#181818" points="517.8389,607.9219,507.8389,611.9219,517.8389,615.9219,513.8389,611.9219" style="stroke:#181818;stroke-width:1;"/><text fill="#000000" font-family="sans-serif" font-size="13" lengthAdjust="spacing" textLength="76.3813" x="513.8389" y="593.856">Genera JWT</text></g><g class="message" data-participant-1="auth" data-participant-2="gateway"><polygon fill="#800080" points="347.3984,637.0547,337.3984,641.0547,347.3984,645.0547,343.3984,641.0547" style="stroke:#800080;stroke-width:1;"/><line style="stroke:#800080;stroke-width:1;" x1="341.3984" x2="505.8389" y1="641.0547" y2="641.0547"/><text fill="#000000" font-family="sans-serif" font-size="13" lengthAdjust="spacing" textLength="55.9165" x="353.3984" y="635.9888">Correcto</text></g><g class="message" data-participant-1="gateway" data-participant-2="client"><polygon fill="#0000FF" points="176.958,681.3203,166.958,685.3203,176.958,689.3203,172.958,685.3203" style="stroke:#0000FF;stroke-width:1;"/><line style="stroke:#0000FF;stroke-width:1;" x1="170.958" x2="335.3984" y1="685.3203" y2="685.3203"/><text fill="#000000" font-family="sans-serif" font-size="13" lengthAdjust="spacing" textLength="62.4419" x="182.958" y="665.1216">HTTP 200</text><text fill="#000000" font-family="sans-serif" font-size="13" lengthAdjust="spacing" textLength="34.7725" x="182.958" y="680.2544">(JWT)</text></g><g class="message" data-participant-1="client" data-participant-2="user"><polygon fill="#181818" points="34.9551,732.5859,24.9551,736.5859,34.9551,740.5859,30.9551,736.5859" style="stroke:#181818;stroke-width:1;"/><line style="stroke:#181818;stroke-width:1;" x1="28.9551" x2="164.958" y1="736.5859" y2="736.5859"/><text fill="#000000" font-family="sans-serif" font-size="13" lengthAdjust="spacing" textLength="118.0029" x="40.9551" y="716.3872">Muestra resultado</text><text fill="#000000" font-family="sans-serif" font-size="13" lengthAdjust="spacing" textLength="52.0508" x="40.9551" y="731.52">de login</text></g><!--SRC=[ZLDDJnin4BtxLuos5o8HAQ2UzX29P0K1jILI5ZWqFSpQqs1ax9K_WkZVwa_e7-kiT_b848YJHvutC- -ziQEEXg0uDUdEWIBuvZRQTi5LIEYr2uKGAAFpV44UC43YKxJeevQwHHkXc1jDDXPTKkPmDtsoF8SpZFI0ZncpwUCzq5MzW1NvhPQKKPZYxIwackq0L2CKHcmmCF-EN3KhdlXLCo6wSppj2PLmRgDtAabQM-b9aPKQ3GNHvyS_lpGcqQ_fmAs4HLqlONcvgjVse6jkyPuEOOaXF3YlHc80Sc6RV6kuj2DSGaM6DWXRD5gXrF_-sdSQTF1NrQefOUKCYut84hBthof7GZNZQI-jXBcp8PaNeEWJuzobecqYioLWTrpW7WiCjuUmGXDpbxUCFy3tD0VaDNdzMqk4Tb31QHFPMkcy9tua0c1FrhEVEw0NythNdvQKJVywELhR7mvE4hyw_GUL4sHun_Ez8GEfCxBa4IvkwW-cppyv-tWoOGEurqYGPNd3wyZ6b_0zKOWyorDsN_62-AEOxiVy1m00]--></g></svg>