<svg xmlns="http://www.w3.org/2000/svg" xmlns:xlink="http://www.w3.org/1999/xlink" contentStyleType="text/css" data-diagram-type="SEQUENCE" height="769px" preserveAspectRatio="none" style="width:1683px;height:769px;background:#FFFFFF;" version="1.1" viewBox="0 0 1683 769" width="1683px" zoomAndPan="magnify"><title>Flujo Consulta Usuario</title><defs/><g><text fill="#000000" font-family="sans-serif" font-size="14" font-weight="bold" lengthAdjust="spacing" textLength="178.0283" x="751.1274" y="27.9951">Flujo Consulta Usuario</text><g><title>User</title><rect fill="#000000" fill-opacity="0.00000" height="570.3906" width="8" x="19.9551" y="118.5938"/><line style="stroke:#181818;stroke-width:0.5;stroke-dasharray:5.0,5.0;" x1="23" x2="23" y1="118.5938" y2="688.9844"/></g><g><title>Client</title><rect fill="#000000" fill-opacity="0.00000" height="570.3906" width="8" x="264.2949" y="118.5938"/><line style="stroke:#181818;stroke-width:0.5;stroke-dasharray:5.0,5.0;" x1="268.0298" x2="268.0298" y1="118.5938" y2="688.9844"/></g><g><title>API Gateway</title><rect fill="#000000" fill-opacity="0.00000" height="570.3906" width="8" x="424.2935" y="118.5938"/><line style="stroke:#181818;stroke-width:0.5;stroke-dasharray:5.0,5.0;" x1="428.0718" x2="428.0718" y1="118.5938" y2="688.9844"/></g><g><title>CHAT Service</title><rect fill="#000000" fill-opacity="0.00000" height="570.3906" width="8" x="646.9053" y="118.5938"/><line style="stroke:#181818;stroke-width:0.5;stroke-dasharray:5.0,5.0;" x1="650.5938" x2="650.5938" y1="118.5938" y2="688.9844"/></g><g><title>RAG Service</title><rect fill="#000000" fill-opacity="0.00000" height="570.3906" width="8" x="920.1396" y="118.5938"/><line style="stroke:#181818;stroke-width:0.5;stroke-dasharray:5.0,5.0;" x1="923.9673" x2="923.9673" y1="118.5938" y2="688.9844"/></g><g><title>USER Service</title><rect fill="#000000" fill-opacity="0.00000" height="570.3906" width="8" x="1066.5547" y="118.5938"/><line style="stroke:#181818;stroke-width:0.5;stroke-dasharray:5.0,5.0;" x1="1069.6055" x2="1069.6055" y1="118.5938" y2="688.9844"/></g><g><title>OLLAMA Service</title><rect fill="#000000" fill-opacity="0.00000" height="570.3906" width="8" x="1194.5259" y="118.5938"/><line style="stroke:#181818;stroke-width:0.5;stroke-dasharray:5.0,5.0;" x1="1198.5039" x2="1198.5039" y1="118.5938" y2="688.9844"/></g><g><title>CHAT DB</title><rect fill="#000000" fill-opacity="0.00000" height="570.3906" width="8" x="1409.3149" y="118.5938"/><line style="stroke:#181818;stroke-width:0.5;stroke-dasharray:5.0,5.0;" x1="1412.6816" x2="1412.6816" y1="118.5938" y2="688.9844"/></g><g><title>Vector DB</title><rect fill="#000000" fill-opacity="0.00000" height="570.3906" width="8" x="1492.2148" y="118.5938"/><line style="stroke:#181818;stroke-width:0.5;stroke-dasharray:5.0,5.0;" x1="1495.9482" x2="1495.9482" y1="118.5938" y2="688.9844"/></g><g><title>Message Queue</title><rect fill="#000000" fill-opacity="0.00000" height="570.3906" width="8" x="1606.3823" y="118.5938"/><line style="stroke:#181818;stroke-width:0.5;stroke-dasharray:5.0,5.0;" x1="1609.4814" x2="1609.4814" y1="118.5938" y2="688.9844"/></g><g class="participant participant-head" data-participant="usr"><text fill="#000000" font-family="sans-serif" font-size="14" lengthAdjust="spacing" textLength="31.9102" x="5" y="115.292">User</text><ellipse cx="23.9551" cy="50.7969" fill="#E2E2F0" rx="8" ry="8" style="stroke:#181818;stroke-width:0.5;"/><path d="M23.9551,58.7969 L23.9551,85.7969 M10.9551,66.7969 L36.9551,66.7969 M23.9551,85.7969 L10.9551,100.7969 M23.9551,85.7969 L36.9551,100.7969" fill="none" style="stroke:#181818;stroke-width:0.5;"/></g><g class="participant participant-tail" data-participant="usr"><text fill="#000000" font-family="sans-serif" font-size="14" lengthAdjust="spacing" textLength="31.9102" x="5" y="700.9795">User</text><ellipse cx="23.9551" cy="712.7813" fill="#E2E2F0" rx="8" ry="8" style="stroke:#181818;stroke-width:0.5;"/><path d="M23.9551,720.7813 L23.9551,747.7813 M10.9551,728.7813 L36.9551,728.7813 M23.9551,747.7813 L10.9551,762.7813 M23.9551,747.7813 L36.9551,762.7813" fill="none" style="stroke:#181818;stroke-width:0.5;"/></g><g class="participant participant-head" data-participant="client"><rect fill="#E2E2F0" height="30.2969" rx="2.5" ry="2.5" style="stroke:#181818;stroke-width:0.5;" width="54.5303" x="241.0298" y="87.2969"/><text fill="#000000" font-family="sans-serif" font-size="14" lengthAdjust="spacing" textLength="40.5303" x="248.0298" y="107.292">Client</text></g><g class="participant participant-tail" data-participant="client"><rect fill="#E2E2F0" height="30.2969" rx="2.5" ry="2.5" style="stroke:#181818;stroke-width:0.5;" width="54.5303" x="241.0298" y="687.9844"/><text fill="#000000" font-family="sans-serif" font-size="14" lengthAdjust="spacing" textLength="40.5303" x="248.0298" y="707.9795">Client</text></g><g class="participant participant-head" data-participant="gateway"><rect fill="#E2E2F0" height="30.2969" rx="2.5" ry="2.5" style="stroke:#181818;stroke-width:0.5;" width="102.4434" x="377.0718" y="87.2969"/><text fill="#000000" font-family="sans-serif" font-size="14" lengthAdjust="spacing" textLength="88.4434" x="384.0718" y="107.292">API Gateway</text></g><g class="participant participant-tail" data-participant="gateway"><rect fill="#E2E2F0" height="30.2969" rx="2.5" ry="2.5" style="stroke:#181818;stroke-width:0.5;" width="102.4434" x="377.0718" y="687.9844"/><text fill="#000000" font-family="sans-serif" font-size="14" lengthAdjust="spacing" textLength="88.4434" x="384.0718" y="707.9795">API Gateway</text></g><g class="participant participant-head" data-participant="chat"><rect fill="#E2E2F0" height="30.2969" rx="2.5" ry="2.5" style="stroke:#181818;stroke-width:0.5;" width="108.623" x="596.5938" y="87.2969"/><text fill="#000000" font-family="sans-serif" font-size="14" lengthAdjust="spacing" textLength="94.623" x="603.5938" y="107.292">CHAT Service</text></g><g class="participant participant-tail" data-participant="chat"><rect fill="#E2E2F0" height="30.2969" rx="2.5" ry="2.5" style="stroke:#181818;stroke-width:0.5;" width="108.623" x="596.5938" y="687.9844"/><text fill="#000000" font-family="sans-serif" font-size="14" lengthAdjust="spacing" textLength="94.623" x="603.5938" y="707.9795">CHAT Service</text></g><g class="participant participant-head" data-participant="rag"><rect fill="#E2E2F0" height="30.2969" rx="2.5" ry="2.5" style="stroke:#181818;stroke-width:0.5;" width="100.3447" x="873.9673" y="87.2969"/><text fill="#000000" font-family="sans-serif" font-size="14" lengthAdjust="spacing" textLength="86.3447" x="880.9673" y="107.292">RAG Service</text></g><g class="participant participant-tail" data-participant="rag"><rect fill="#E2E2F0" height="30.2969" rx="2.5" ry="2.5" style="stroke:#181818;stroke-width:0.5;" width="100.3447" x="873.9673" y="687.9844"/><text fill="#000000" font-family="sans-serif" font-size="14" lengthAdjust="spacing" textLength="86.3447" x="880.9673" y="707.9795">RAG Service</text></g><g class="participant participant-head" data-participant="user"><rect fill="#E2E2F0" height="30.2969" rx="2.5" ry="2.5" style="stroke:#181818;stroke-width:0.5;" width="107.8984" x="1016.6055" y="87.2969"/><text fill="#000000" font-family="sans-serif" font-size="14" lengthAdjust="spacing" textLength="93.8984" x="1023.6055" y="107.292">USER Service</text></g><g class="participant participant-tail" data-participant="user"><rect fill="#E2E2F0" height="30.2969" rx="2.5" ry="2.5" style="stroke:#181818;stroke-width:0.5;" width="107.8984" x="1016.6055" y="687.9844"/><text fill="#000000" font-family="sans-serif" font-size="14" lengthAdjust="spacing" textLength="93.8984" x="1023.6055" y="707.9795">USER Service</text></g><g class="participant participant-head" data-participant="ollama"><rect fill="#E2E2F0" height="30.2969" rx="2.5" ry="2.5" style="stroke:#181818;stroke-width:0.5;" width="128.0439" x="1134.5039" y="87.2969"/><text fill="#000000" font-family="sans-serif" font-size="14" lengthAdjust="spacing" textLength="114.0439" x="1141.5039" y="107.292">OLLAMA Service</text></g><g class="participant participant-tail" data-participant="ollama"><rect fill="#E2E2F0" height="30.2969" rx="2.5" ry="2.5" style="stroke:#181818;stroke-width:0.5;" width="128.0439" x="1134.5039" y="687.9844"/><text fill="#000000" font-family="sans-serif" font-size="14" lengthAdjust="spacing" textLength="114.0439" x="1141.5039" y="707.9795">OLLAMA Service</text></g><g class="participant participant-head" data-participant="chatDB"><text fill="#000000" font-family="sans-serif" font-size="14" lengthAdjust="spacing" textLength="63.2666" x="1378.6816" y="115.292">CHAT DB</text><path d="M1395.3149,66.2969 C1395.3149,56.2969 1413.3149,56.2969 1413.3149,56.2969 C1413.3149,56.2969 1431.3149,56.2969 1431.3149,66.2969 L1431.3149,92.2969 C1431.3149,102.2969 1413.3149,102.2969 1413.3149,102.2969 C1413.3149,102.2969 1395.3149,102.2969 1395.3149,92.2969 L1395.3149,66.2969" fill="#E2E2F0" style="stroke:#181818;stroke-width:1.5;"/><path d="M1395.3149,66.2969 C1395.3149,76.2969 1413.3149,76.2969 1413.3149,76.2969 C1413.3149,76.2969 1431.3149,76.2969 1431.3149,66.2969" fill="none" style="stroke:#181818;stroke-width:1.5;"/></g><g class="participant participant-tail" data-participant="chatDB"><text fill="#000000" font-family="sans-serif" font-size="14" lengthAdjust="spacing" textLength="63.2666" x="1378.6816" y="700.9795">CHAT DB</text><path d="M1395.3149,714.2813 C1395.3149,704.2813 1413.3149,704.2813 1413.3149,704.2813 C1413.3149,704.2813 1431.3149,704.2813 1431.3149,714.2813 L1431.3149,740.2813 C1431.3149,750.2813 1413.3149,750.2813 1413.3149,750.2813 C1413.3149,750.2813 1395.3149,750.2813 1395.3149,740.2813 L1395.3149,714.2813" fill="#E2E2F0" style="stroke:#181818;stroke-width:1.5;"/><path d="M1395.3149,714.2813 C1395.3149,724.2813 1413.3149,724.2813 1413.3149,724.2813 C1413.3149,724.2813 1431.3149,724.2813 1431.3149,714.2813" fill="none" style="stroke:#181818;stroke-width:1.5;"/></g><g class="participant participant-head" data-participant="vectorDB"><text fill="#000000" font-family="sans-serif" font-size="14" lengthAdjust="spacing" textLength="70.5332" x="1457.9482" y="115.292">Vector DB</text><path d="M1478.2148,66.2969 C1478.2148,56.2969 1496.2148,56.2969 1496.2148,56.2969 C1496.2148,56.2969 1514.2148,56.2969 1514.2148,66.2969 L1514.2148,92.2969 C1514.2148,102.2969 1496.2148,102.2969 1496.2148,102.2969 C1496.2148,102.2969 1478.2148,102.2969 1478.2148,92.2969 L1478.2148,66.2969" fill="#E2E2F0" style="stroke:#181818;stroke-width:1.5;"/><path d="M1478.2148,66.2969 C1478.2148,76.2969 1496.2148,76.2969 1496.2148,76.2969 C1496.2148,76.2969 1514.2148,76.2969 1514.2148,66.2969" fill="none" style="stroke:#181818;stroke-width:1.5;"/></g><g class="participant participant-tail" data-participant="vectorDB"><text fill="#000000" font-family="sans-serif" font-size="14" lengthAdjust="spacing" textLength="70.5332" x="1457.9482" y="700.9795">Vector DB</text><path d="M1478.2148,714.2813 C1478.2148,704.2813 1496.2148,704.2813 1496.2148,704.2813 C1496.2148,704.2813 1514.2148,704.2813 1514.2148,714.2813 L1514.2148,740.2813 C1514.2148,750.2813 1496.2148,750.2813 1496.2148,750.2813 C1496.2148,750.2813 1478.2148,750.2813 1478.2148,740.2813 L1478.2148,714.2813" fill="#E2E2F0" style="stroke:#181818;stroke-width:1.5;"/><path d="M1478.2148,714.2813 C1478.2148,724.2813 1496.2148,724.2813 1496.2148,724.2813 C1496.2148,724.2813 1514.2148,724.2813 1514.2148,714.2813" fill="none" style="stroke:#181818;stroke-width:1.5;"/></g><g class="participant participant-head" data-participant="queue"><path d="M1549.4814,92.2969 L1671.2832,92.2969 C1676.2832,92.2969 1676.2832,105.4453 1676.2832,105.4453 C1676.2832,105.4453 1676.2832,118.5938 1671.2832,118.5938 L1549.4814,118.5938 C1544.4814,118.5938 1544.4814,105.4453 1544.4814,105.4453 C1544.4814,105.4453 1544.4814,92.2969 1549.4814,92.2969" fill="#E2E2F0" style="stroke:#181818;stroke-width:0.5;"/><path d="M1671.2832,92.2969 C1666.2832,92.2969 1666.2832,105.4453 1666.2832,105.4453 C1666.2832,118.5938 1671.2832,118.5938 1671.2832,118.5938" fill="none" style="stroke:#181818;stroke-width:0.5;"/><text fill="#000000" font-family="sans-serif" font-size="14" lengthAdjust="spacing" textLength="111.8018" x="1549.4814" y="110.292">Message Queue</text></g><g class="participant participant-tail" data-participant="queue"><path d="M1549.4814,687.9844 L1671.2832,687.9844 C1676.2832,687.9844 1676.2832,701.1328 1676.2832,701.1328 C1676.2832,701.1328 1676.2832,714.2813 1671.2832,714.2813 L1549.4814,714.2813 C1544.4814,714.2813 1544.4814,701.1328 1544.4814,701.1328 C1544.4814,701.1328 1544.4814,687.9844 1549.4814,687.9844" fill="#E2E2F0" style="stroke:#181818;stroke-width:0.5;"/><path d="M1671.2832,687.9844 C1666.2832,687.9844 1666.2832,701.1328 1666.2832,701.1328 C1666.2832,714.2813 1671.2832,714.2813 1671.2832,714.2813" fill="none" style="stroke:#181818;stroke-width:0.5;"/><text fill="#000000" font-family="sans-serif" font-size="14" lengthAdjust="spacing" textLength="111.8018" x="1549.4814" y="705.9795">Message Queue</text></g><g class="message" data-participant-1="usr" data-participant-2="client"><polygon fill="#181818" points="256.2949,145.7266,266.2949,149.7266,256.2949,153.7266,260.2949,149.7266" style="stroke:#181818;stroke-width:1;"/><line style="stroke:#181818;stroke-width:1;" x1="23.9551" x2="262.2949" y1="149.7266" y2="149.7266"/><text fill="#000000" font-family="sans-serif" font-size="13" lengthAdjust="spacing" textLength="136.9761" x="30.9551" y="144.6606">Introduce la consulta</text></g><g class="message" data-participant-1="client" data-participant-2="gateway"><polygon fill="#181818" points="416.2935,174.8594,426.2935,178.8594,416.2935,182.8594,420.2935,178.8594" style="stroke:#181818;stroke-width:1;"/><line style="stroke:#181818;stroke-width:1;" x1="268.2949" x2="422.2935" y1="178.8594" y2="178.8594"/><text fill="#000000" font-family="sans-serif" font-size="13" lengthAdjust="spacing" textLength="89.8955" x="275.2949" y="173.7935">Petici&#243;n POST</text></g><g class="message" data-participant-1="gateway" data-participant-2="gateway"><line style="stroke:#181818;stroke-width:1;" x1="428.2935" x2="470.2935" y1="207.9922" y2="207.9922"/><line style="stroke:#181818;stroke-width:1;" x1="470.2935" x2="470.2935" y1="207.9922" y2="220.9922"/><line style="stroke:#181818;stroke-width:1;" x1="429.2935" x2="470.2935" y1="220.9922" y2="220.9922"/><polygon fill="#181818" points="439.2935,216.9922,429.2935,220.9922,439.2935,224.9922,435.2935,220.9922" style="stroke:#181818;stroke-width:1;"/><text fill="#000000" font-family="sans-serif" font-size="13" lengthAdjust="spacing" textLength="96.0146" x="435.2935" y="202.9263">Validaci&#243;n JWT</text></g><g class="message" data-participant-1="gateway" data-participant-2="chat"><polygon fill="#181818" points="638.9053,246.125,648.9053,250.125,638.9053,254.125,642.9053,250.125" style="stroke:#181818;stroke-width:1;"/><line style="stroke:#181818;stroke-width:1;" x1="428.2935" x2="644.9053" y1="250.125" y2="250.125"/><text fill="#000000" font-family="sans-serif" font-size="13" lengthAdjust="spacing" textLength="198.6118" x="435.2935" y="245.0591">Redirige petici&#243;n (con user_id)</text></g><g class="message" data-participant-1="chat" data-participant-2="user"><polygon fill="#181818" points="1058.5547,275.2578,1068.5547,279.2578,1058.5547,283.2578,1062.5547,279.2578" style="stroke:#181818;stroke-width:1;"/><line style="stroke:#181818;stroke-width:1;" x1="650.9053" x2="1064.5547" y1="279.2578" y2="279.2578"/><text fill="#000000" font-family="sans-serif" font-size="13" lengthAdjust="spacing" textLength="395.6494" x="657.9053" y="274.1919">Solicita el historial reciente (async, solo &#250;ltimos N mensajes)</text></g><g class="message" data-participant-1="user" data-participant-2="chatDB"><polygon fill="#181818" points="1401.3149,304.3906,1411.3149,308.3906,1401.3149,312.3906,1405.3149,308.3906" style="stroke:#181818;stroke-width:1;"/><line style="stroke:#181818;stroke-width:1;" x1="1070.5547" x2="1407.3149" y1="308.3906" y2="308.3906"/><text fill="#000000" font-family="sans-serif" font-size="13" lengthAdjust="spacing" textLength="144.9741" x="1077.5547" y="303.3247">B&#250;squeda del historial</text></g><g class="message" data-participant-1="user" data-participant-2="chat"><polygon fill="#181818" points="661.9053,333.5234,651.9053,337.5234,661.9053,341.5234,657.9053,337.5234" style="stroke:#181818;stroke-width:1;"/><line style="stroke:#181818;stroke-width:1;" x1="655.9053" x2="1069.5547" y1="337.5234" y2="337.5234"/><text fill="#000000" font-family="sans-serif" font-size="13" lengthAdjust="spacing" textLength="133.3262" x="667.9053" y="332.4575">Devuelve el historial</text></g><g class="message" data-participant-1="chat" data-participant-2="rag"><polygon fill="#181818" points="912.1396,362.6563,922.1396,366.6563,912.1396,370.6563,916.1396,366.6563" style="stroke:#181818;stroke-width:1;"/><line style="stroke:#181818;stroke-width:1;" x1="650.9053" x2="918.1396" y1="366.6563" y2="366.6563"/><text fill="#000000" font-family="sans-serif" font-size="13" lengthAdjust="spacing" textLength="249.2344" x="657.9053" y="361.5903">Solicita contexto (consulta + historial)</text></g><g class="message" data-participant-1="rag" data-participant-2="vectorDB"><polygon fill="#181818" points="1484.2148,391.7891,1494.2148,395.7891,1484.2148,399.7891,1488.2148,395.7891" style="stroke:#181818;stroke-width:1;"/><line style="stroke:#181818;stroke-width:1;" x1="924.1396" x2="1490.2148" y1="395.7891" y2="395.7891"/><text fill="#000000" font-family="sans-serif" font-size="13" lengthAdjust="spacing" textLength="136.2334" x="931.1396" y="390.7231">B&#250;squeda sem&#225;ntica</text></g><g class="message" data-participant-1="rag" data-participant-2="chat"><polygon fill="#181818" points="661.9053,420.9219,651.9053,424.9219,661.9053,428.9219,657.9053,424.9219" style="stroke:#181818;stroke-width:1;"/><line style="stroke:#181818;stroke-width:1;" x1="655.9053" x2="923.1396" y1="424.9219" y2="424.9219"/><text fill="#000000" font-family="sans-serif" font-size="13" lengthAdjust="spacing" textLength="204.3755" x="667.9053" y="419.856">Devuelve el contexto relevante</text></g><g class="message" data-participant-1="chat" data-participant-2="queue"><polygon fill="#181818" points="1598.3823,450.0547,1608.3823,454.0547,1598.3823,458.0547,1602.3823,454.0547" style="stroke:#181818;stroke-width:1;"/><line style="stroke:#181818;stroke-width:1;" x1="650.9053" x2="1604.3823" y1="454.0547" y2="454.0547"/><text fill="#000000" font-family="sans-serif" font-size="13" lengthAdjust="spacing" textLength="399.4453" x="657.9053" y="448.9888">Publica tarea de generaci&#243;n (consulta + historial + contexto)</text></g><g class="message" data-participant-1="queue" data-participant-2="ollama"><polygon fill="#181818" points="1209.5259,479.1875,1199.5259,483.1875,1209.5259,487.1875,1205.5259,483.1875" style="stroke:#181818;stroke-width:1;"/><line style="stroke:#181818;stroke-width:1;" x1="1203.5259" x2="1609.3823" y1="483.1875" y2="483.1875"/><text fill="#000000" font-family="sans-serif" font-size="13" lengthAdjust="spacing" textLength="115.1592" x="1215.5259" y="478.1216">Consume la tarea</text></g><g class="message" data-participant-1="ollama" data-participant-2="ollama"><line style="stroke:#181818;stroke-width:1;" x1="1198.5259" x2="1240.5259" y1="512.3203" y2="512.3203"/><line style="stroke:#181818;stroke-width:1;" x1="1240.5259" x2="1240.5259" y1="512.3203" y2="525.3203"/><line style="stroke:#181818;stroke-width:1;" x1="1199.5259" x2="1240.5259" y1="525.3203" y2="525.3203"/><polygon fill="#181818" points="1209.5259,521.3203,1199.5259,525.3203,1209.5259,529.3203,1205.5259,525.3203" style="stroke:#181818;stroke-width:1;"/><text fill="#000000" font-family="sans-serif" font-size="13" lengthAdjust="spacing" textLength="200.7891" x="1205.5259" y="507.2544">Genera respuesta streamizada</text></g><g class="message" data-participant-1="ollama" data-participant-2="chat"><polygon fill="#181818" points="661.9053,550.4531,651.9053,554.4531,661.9053,558.4531,657.9053,554.4531" style="stroke:#181818;stroke-width:1;"/><line style="stroke:#181818;stroke-width:1;" x1="655.9053" x2="1197.5259" y1="554.4531" y2="554.4531"/><text fill="#000000" font-family="sans-serif" font-size="13" lengthAdjust="spacing" textLength="135.9985" x="667.9053" y="549.3872">Streaming respuesta</text></g><g class="message" data-participant-1="chat" data-participant-2="gateway"><polygon fill="#181818" points="439.2935,579.5859,429.2935,583.5859,439.2935,587.5859,435.2935,583.5859" style="stroke:#181818;stroke-width:1;"/><line style="stroke:#181818;stroke-width:1;" x1="433.2935" x2="649.9053" y1="583.5859" y2="583.5859"/><text fill="#000000" font-family="sans-serif" font-size="13" lengthAdjust="spacing" textLength="135.9985" x="445.2935" y="578.52">Streaming respuesta</text></g><g class="message" data-participant-1="gateway" data-participant-2="client"><polygon fill="#181818" points="279.2949,608.7188,269.2949,612.7188,279.2949,616.7188,275.2949,612.7188" style="stroke:#181818;stroke-width:1;"/><line style="stroke:#181818;stroke-width:1;" x1="273.2949" x2="427.2935" y1="612.7188" y2="612.7188"/><text fill="#000000" font-family="sans-serif" font-size="13" lengthAdjust="spacing" textLength="135.9985" x="285.2949" y="607.6528">Streaming respuesta</text></g><g class="message" data-participant-1="client" data-participant-2="usr"><polygon fill="#181818" points="34.9551,637.8516,24.9551,641.8516,34.9551,645.8516,30.9551,641.8516" style="stroke:#181818;stroke-width:1;"/><line style="stroke:#181818;stroke-width:1;" x1="28.9551" x2="267.2949" y1="641.8516" y2="641.8516"/><text fill="#000000" font-family="sans-serif" font-size="13" lengthAdjust="spacing" textLength="220.3398" x="40.9551" y="636.7856">Muestra respuesta en tiempo real</text></g><g class="message" data-participant-1="chat" data-participant-2="chatDB"><polygon fill="#181818" points="1401.3149,666.9844,1411.3149,670.9844,1401.3149,674.9844,1405.3149,670.9844" style="stroke:#181818;stroke-width:1;"/><line style="stroke:#181818;stroke-width:1;" x1="650.9053" x2="1407.3149" y1="670.9844" y2="670.9844"/><text fill="#000000" font-family="sans-serif" font-size="13" lengthAdjust="spacing" textLength="256.3628" x="657.9053" y="665.9185">Almacena mensaje y respuesta (async)</text></g><!--SRC=[RPDDSjim38NtF0KcgtXQNq0BpyXnwwOJDwwTdsK7aJ0ECnJfyiTjUfkUeRjiVR62f6H9INQYyEdn0NZoqYk2poey6RWmsWNb4MvTG2kD408hRooVoG8w2CuAiKVhPINtg3sSNIX9sf_5OfKUn-LoVGbBzFGBdnEpoy-lDBwKDx0bUv0LPQL7VAMpAPSZmk9k3DnkFsr6H63BO-JwwgfSbIF8A8KD2b6ZnmTqr7fPp4ys5lD1yOxIDDho8PqO-1aeS7L5pk6Eu7iy9Y8LXE2fJMTvEWLSQczD7Ie2XL2r0nUvEfsryobWJT7uyP-6zVNsHhJl1y0TAbbZHhxU3uZeke0DrT9AThC_2PtpRMaiFsGz4I9oqray5x0rYY5UF2bub8xRagZ0KXLT4PoZUzRLHt166JY-A2yRu-0RDAGTFf6RY2YJhrxC2vWVNnptNYFKGy41LS223e7KWKPNTgvulGDJxDlJRszI1pcW7_fl9eBfwQpRnl1sHytnh-R-CJDlRpv9Mr9qu9XGPo7jZlSG7jW5WaTBiHtOaIQB_KJV-E7dJdMIep6TvPmL-GThqkgJeCY57bWcTNRZze4S2plFM2F_ODt3kOrjhkXTJxVMJnbv3-bpqWRoFUYKHuvk0QluSkIAD7X9pJxEhTzQj_vIDLYHnYuVy3puD6TfyXy0]--></g></svg>