<svg xmlns="http://www.w3.org/2000/svg" xmlns:xlink="http://www.w3.org/1999/xlink" contentStyleType="text/css" data-diagram-type="SEQUENCE" height="640px" preserveAspectRatio="none" style="width:1670px;height:640px;background:#FFFFFF;" version="1.1" viewBox="0 0 1670 640" width="1670px" zoomAndPan="magnify"><title>Flujo Optimizado para Consulta de Usuario</title><defs/><g><text fill="#000000" font-family="sans-serif" font-size="14" font-weight="bold" lengthAdjust="spacing" textLength="338.0234" x="664.9453" y="27.9951">Flujo Optimizado para Consulta de Usuario</text><g><title>User</title><rect fill="#000000" fill-opacity="0.00000" height="440.8594" width="8" x="19.9551" y="118.5938"/><line style="stroke:#181818;stroke-width:0.5;stroke-dasharray:5.0,5.0;" x1="23" x2="23" y1="118.5938" y2="559.4531"/></g><g><title>Client</title><rect fill="#000000" fill-opacity="0.00000" height="440.8594" width="8" x="264.2949" y="118.5938"/><line style="stroke:#181818;stroke-width:0.5;stroke-dasharray:5.0,5.0;" x1="268.0298" x2="268.0298" y1="118.5938" y2="559.4531"/></g><g><title>API Gateway</title><rect fill="#000000" fill-opacity="0.00000" height="440.8594" width="8" x="425.8994" y="118.5938"/><line style="stroke:#181818;stroke-width:0.5;stroke-dasharray:5.0,5.0;" x1="429.6777" x2="429.6777" y1="118.5938" y2="559.4531"/></g><g><title>CHAT Service</title><rect fill="#000000" fill-opacity="0.00000" height="440.8594" width="8" x="648.5112" y="118.5938"/><line style="stroke:#181818;stroke-width:0.5;stroke-dasharray:5.0,5.0;" x1="652.1997" x2="652.1997" y1="118.5938" y2="559.4531"/></g><g><title>RAG Service</title><rect fill="#000000" fill-opacity="0.00000" height="440.8594" width="8" x="921.7456" y="118.5938"/><line style="stroke:#181818;stroke-width:0.5;stroke-dasharray:5.0,5.0;" x1="925.5732" x2="925.5732" y1="118.5938" y2="559.4531"/></g><g><title>USER Service</title><rect fill="#000000" fill-opacity="0.00000" height="440.8594" width="8" x="1052.4185" y="118.5938"/><line style="stroke:#181818;stroke-width:0.5;stroke-dasharray:5.0,5.0;" x1="1055.4692" x2="1055.4692" y1="118.5938" y2="559.4531"/></g><g><title>OLLAMA Service</title><rect fill="#000000" fill-opacity="0.00000" height="440.8594" width="8" x="1180.3896" y="118.5938"/><line style="stroke:#181818;stroke-width:0.5;stroke-dasharray:5.0,5.0;" x1="1184.3677" x2="1184.3677" y1="118.5938" y2="559.4531"/></g><g><title>Database</title><rect fill="#000000" fill-opacity="0.00000" height="440.8594" width="8" x="1395.1787" y="118.5938"/><line style="stroke:#181818;stroke-width:0.5;stroke-dasharray:5.0,5.0;" x1="1398.7783" x2="1398.7783" y1="118.5938" y2="559.4531"/></g><g><title>Vector DB</title><rect fill="#000000" fill-opacity="0.00000" height="440.8594" width="8" x="1479.8457" y="118.5938"/><line style="stroke:#181818;stroke-width:0.5;stroke-dasharray:5.0,5.0;" x1="1483.5791" x2="1483.5791" y1="118.5938" y2="559.4531"/></g><g><title>Message Queue</title><rect fill="#000000" fill-opacity="0.00000" height="440.8594" width="8" x="1594.0132" y="118.5938"/><line style="stroke:#181818;stroke-width:0.5;stroke-dasharray:5.0,5.0;" x1="1597.1123" x2="1597.1123" y1="118.5938" y2="559.4531"/></g><g class="participant participant-head" data-participant="user"><text fill="#000000" font-family="sans-serif" font-size="14" lengthAdjust="spacing" textLength="31.9102" x="5" y="115.292">User</text><ellipse cx="23.9551" cy="50.7969" fill="#E2E2F0" rx="8" ry="8" style="stroke:#181818;stroke-width:0.5;"/><path d="M23.9551,58.7969 L23.9551,85.7969 M10.9551,66.7969 L36.9551,66.7969 M23.9551,85.7969 L10.9551,100.7969 M23.9551,85.7969 L36.9551,100.7969" fill="none" style="stroke:#181818;stroke-width:0.5;"/></g><g class="participant participant-tail" data-participant="user"><text fill="#000000" font-family="sans-serif" font-size="14" lengthAdjust="spacing" textLength="31.9102" x="5" y="571.4482">User</text><ellipse cx="23.9551" cy="583.25" fill="#E2E2F0" rx="8" ry="8" style="stroke:#181818;stroke-width:0.5;"/><path d="M23.9551,591.25 L23.9551,618.25 M10.9551,599.25 L36.9551,599.25 M23.9551,618.25 L10.9551,633.25 M23.9551,618.25 L36.9551,633.25" fill="none" style="stroke:#181818;stroke-width:0.5;"/></g><g class="participant participant-head" data-participant="client"><rect fill="#E2E2F0" height="30.2969" rx="2.5" ry="2.5" style="stroke:#181818;stroke-width:0.5;" width="54.5303" x="241.0298" y="87.2969"/><text fill="#000000" font-family="sans-serif" font-size="14" lengthAdjust="spacing" textLength="40.5303" x="248.0298" y="107.292">Client</text></g><g class="participant participant-tail" data-participant="client"><rect fill="#E2E2F0" height="30.2969" rx="2.5" ry="2.5" style="stroke:#181818;stroke-width:0.5;" width="54.5303" x="241.0298" y="558.4531"/><text fill="#000000" font-family="sans-serif" font-size="14" lengthAdjust="spacing" textLength="40.5303" x="248.0298" y="578.4482">Client</text></g><g class="participant participant-head" data-participant="gateway"><rect fill="#E2E2F0" height="30.2969" rx="2.5" ry="2.5" style="stroke:#181818;stroke-width:0.5;" width="102.4434" x="378.6777" y="87.2969"/><text fill="#000000" font-family="sans-serif" font-size="14" lengthAdjust="spacing" textLength="88.4434" x="385.6777" y="107.292">API Gateway</text></g><g class="participant participant-tail" data-participant="gateway"><rect fill="#E2E2F0" height="30.2969" rx="2.5" ry="2.5" style="stroke:#181818;stroke-width:0.5;" width="102.4434" x="378.6777" y="558.4531"/><text fill="#000000" font-family="sans-serif" font-size="14" lengthAdjust="spacing" textLength="88.4434" x="385.6777" y="578.4482">API Gateway</text></g><g class="participant participant-head" data-participant="chat"><rect fill="#E2E2F0" height="30.2969" rx="2.5" ry="2.5" style="stroke:#181818;stroke-width:0.5;" width="108.623" x="598.1997" y="87.2969"/><text fill="#000000" font-family="sans-serif" font-size="14" lengthAdjust="spacing" textLength="94.623" x="605.1997" y="107.292">CHAT Service</text></g><g class="participant participant-tail" data-participant="chat"><rect fill="#E2E2F0" height="30.2969" rx="2.5" ry="2.5" style="stroke:#181818;stroke-width:0.5;" width="108.623" x="598.1997" y="558.4531"/><text fill="#000000" font-family="sans-serif" font-size="14" lengthAdjust="spacing" textLength="94.623" x="605.1997" y="578.4482">CHAT Service</text></g><g class="participant participant-head" data-participant="rag"><rect fill="#E2E2F0" height="30.2969" rx="2.5" ry="2.5" style="stroke:#181818;stroke-width:0.5;" width="100.3447" x="875.5732" y="87.2969"/><text fill="#000000" font-family="sans-serif" font-size="14" lengthAdjust="spacing" textLength="86.3447" x="882.5732" y="107.292">RAG Service</text></g><g class="participant participant-tail" data-participant="rag"><rect fill="#E2E2F0" height="30.2969" rx="2.5" ry="2.5" style="stroke:#181818;stroke-width:0.5;" width="100.3447" x="875.5732" y="558.4531"/><text fill="#000000" font-family="sans-serif" font-size="14" lengthAdjust="spacing" textLength="86.3447" x="882.5732" y="578.4482">RAG Service</text></g><g class="participant participant-head" data-participant="user_service"><rect fill="#E2E2F0" height="30.2969" rx="2.5" ry="2.5" style="stroke:#181818;stroke-width:0.5;" width="107.8984" x="1002.4692" y="87.2969"/><text fill="#000000" font-family="sans-serif" font-size="14" lengthAdjust="spacing" textLength="93.8984" x="1009.4692" y="107.292">USER Service</text></g><g class="participant participant-tail" data-participant="user_service"><rect fill="#E2E2F0" height="30.2969" rx="2.5" ry="2.5" style="stroke:#181818;stroke-width:0.5;" width="107.8984" x="1002.4692" y="558.4531"/><text fill="#000000" font-family="sans-serif" font-size="14" lengthAdjust="spacing" textLength="93.8984" x="1009.4692" y="578.4482">USER Service</text></g><g class="participant participant-head" data-participant="ollama"><rect fill="#E2E2F0" height="30.2969" rx="2.5" ry="2.5" style="stroke:#181818;stroke-width:0.5;" width="128.0439" x="1120.3677" y="87.2969"/><text fill="#000000" font-family="sans-serif" font-size="14" lengthAdjust="spacing" textLength="114.0439" x="1127.3677" y="107.292">OLLAMA Service</text></g><g class="participant participant-tail" data-participant="ollama"><rect fill="#E2E2F0" height="30.2969" rx="2.5" ry="2.5" style="stroke:#181818;stroke-width:0.5;" width="128.0439" x="1120.3677" y="558.4531"/><text fill="#000000" font-family="sans-serif" font-size="14" lengthAdjust="spacing" textLength="114.0439" x="1127.3677" y="578.4482">OLLAMA Service</text></g><g class="participant participant-head" data-participant="db"><text fill="#000000" font-family="sans-serif" font-size="14" lengthAdjust="spacing" textLength="66.8008" x="1362.7783" y="115.292">Database</text><path d="M1381.1787,66.2969 C1381.1787,56.2969 1399.1787,56.2969 1399.1787,56.2969 C1399.1787,56.2969 1417.1787,56.2969 1417.1787,66.2969 L1417.1787,92.2969 C1417.1787,102.2969 1399.1787,102.2969 1399.1787,102.2969 C1399.1787,102.2969 1381.1787,102.2969 1381.1787,92.2969 L1381.1787,66.2969" fill="#E2E2F0" style="stroke:#181818;stroke-width:1.5;"/><path d="M1381.1787,66.2969 C1381.1787,76.2969 1399.1787,76.2969 1399.1787,76.2969 C1399.1787,76.2969 1417.1787,76.2969 1417.1787,66.2969" fill="none" style="stroke:#181818;stroke-width:1.5;"/></g><g class="participant participant-tail" data-participant="db"><text fill="#000000" font-family="sans-serif" font-size="14" lengthAdjust="spacing" textLength="66.8008" x="1362.7783" y="571.4482">Database</text><path d="M1381.1787,584.75 C1381.1787,574.75 1399.1787,574.75 1399.1787,574.75 C1399.1787,574.75 1417.1787,574.75 1417.1787,584.75 L1417.1787,610.75 C1417.1787,620.75 1399.1787,620.75 1399.1787,620.75 C1399.1787,620.75 1381.1787,620.75 1381.1787,610.75 L1381.1787,584.75" fill="#E2E2F0" style="stroke:#181818;stroke-width:1.5;"/><path d="M1381.1787,584.75 C1381.1787,594.75 1399.1787,594.75 1399.1787,594.75 C1399.1787,594.75 1417.1787,594.75 1417.1787,584.75" fill="none" style="stroke:#181818;stroke-width:1.5;"/></g><g class="participant participant-head" data-participant="vector_db"><text fill="#000000" font-family="sans-serif" font-size="14" lengthAdjust="spacing" textLength="70.5332" x="1445.5791" y="115.292">Vector DB</text><path d="M1465.8457,66.2969 C1465.8457,56.2969 1483.8457,56.2969 1483.8457,56.2969 C1483.8457,56.2969 1501.8457,56.2969 1501.8457,66.2969 L1501.8457,92.2969 C1501.8457,102.2969 1483.8457,102.2969 1483.8457,102.2969 C1483.8457,102.2969 1465.8457,102.2969 1465.8457,92.2969 L1465.8457,66.2969" fill="#E2E2F0" style="stroke:#181818;stroke-width:1.5;"/><path d="M1465.8457,66.2969 C1465.8457,76.2969 1483.8457,76.2969 1483.8457,76.2969 C1483.8457,76.2969 1501.8457,76.2969 1501.8457,66.2969" fill="none" style="stroke:#181818;stroke-width:1.5;"/></g><g class="participant participant-tail" data-participant="vector_db"><text fill="#000000" font-family="sans-serif" font-size="14" lengthAdjust="spacing" textLength="70.5332" x="1445.5791" y="571.4482">Vector DB</text><path d="M1465.8457,584.75 C1465.8457,574.75 1483.8457,574.75 1483.8457,574.75 C1483.8457,574.75 1501.8457,574.75 1501.8457,584.75 L1501.8457,610.75 C1501.8457,620.75 1483.8457,620.75 1483.8457,620.75 C1483.8457,620.75 1465.8457,620.75 1465.8457,610.75 L1465.8457,584.75" fill="#E2E2F0" style="stroke:#181818;stroke-width:1.5;"/><path d="M1465.8457,584.75 C1465.8457,594.75 1483.8457,594.75 1483.8457,594.75 C1483.8457,594.75 1501.8457,594.75 1501.8457,584.75" fill="none" style="stroke:#181818;stroke-width:1.5;"/></g><g class="participant participant-head" data-participant="queue"><path d="M1537.1123,92.2969 L1658.9141,92.2969 C1663.9141,92.2969 1663.9141,105.4453 1663.9141,105.4453 C1663.9141,105.4453 1663.9141,118.5938 1658.9141,118.5938 L1537.1123,118.5938 C1532.1123,118.5938 1532.1123,105.4453 1532.1123,105.4453 C1532.1123,105.4453 1532.1123,92.2969 1537.1123,92.2969" fill="#E2E2F0" style="stroke:#181818;stroke-width:0.5;"/><path d="M1658.9141,92.2969 C1653.9141,92.2969 1653.9141,105.4453 1653.9141,105.4453 C1653.9141,118.5938 1658.9141,118.5938 1658.9141,118.5938" fill="none" style="stroke:#181818;stroke-width:0.5;"/><text fill="#000000" font-family="sans-serif" font-size="14" lengthAdjust="spacing" textLength="111.8018" x="1537.1123" y="110.292">Message Queue</text></g><g class="participant participant-tail" data-participant="queue"><path d="M1537.1123,558.4531 L1658.9141,558.4531 C1663.9141,558.4531 1663.9141,571.6016 1663.9141,571.6016 C1663.9141,571.6016 1663.9141,584.75 1658.9141,584.75 L1537.1123,584.75 C1532.1123,584.75 1532.1123,571.6016 1532.1123,571.6016 C1532.1123,571.6016 1532.1123,558.4531 1537.1123,558.4531" fill="#E2E2F0" style="stroke:#181818;stroke-width:0.5;"/><path d="M1658.9141,558.4531 C1653.9141,558.4531 1653.9141,571.6016 1653.9141,571.6016 C1653.9141,584.75 1658.9141,584.75 1658.9141,584.75" fill="none" style="stroke:#181818;stroke-width:0.5;"/><text fill="#000000" font-family="sans-serif" font-size="14" lengthAdjust="spacing" textLength="111.8018" x="1537.1123" y="576.4482">Message Queue</text></g><g class="message" data-participant-1="user" data-participant-2="client"><polygon fill="#181818" points="256.2949,145.7266,266.2949,149.7266,256.2949,153.7266,260.2949,149.7266" style="stroke:#181818;stroke-width:1;"/><line style="stroke:#181818;stroke-width:1;" x1="23.9551" x2="262.2949" y1="149.7266" y2="149.7266"/><text fill="#000000" font-family="sans-serif" font-size="13" lengthAdjust="spacing" textLength="136.9761" x="30.9551" y="144.6606">Introduce la consulta</text></g><g class="message" data-participant-1="client" data-participant-2="gateway"><polygon fill="#181818" points="417.8994,174.8594,427.8994,178.8594,417.8994,182.8594,421.8994,178.8594" style="stroke:#181818;stroke-width:1;"/><line style="stroke:#181818;stroke-width:1;" x1="268.2949" x2="423.8994" y1="178.8594" y2="178.8594"/><text fill="#000000" font-family="sans-serif" font-size="13" lengthAdjust="spacing" textLength="137.6045" x="275.2949" y="173.7935">POST /chat (con JWT)</text></g><g class="message" data-participant-1="gateway" data-participant-2="chat"><polygon fill="#181818" points="640.5112,203.9922,650.5112,207.9922,640.5112,211.9922,644.5112,207.9922" style="stroke:#181818;stroke-width:1;"/><line style="stroke:#181818;stroke-width:1;" x1="429.8994" x2="646.5112" y1="207.9922" y2="207.9922"/><text fill="#000000" font-family="sans-serif" font-size="13" lengthAdjust="spacing" textLength="198.6118" x="436.8994" y="202.9263">Redirige petici&#243;n (con user_id)</text></g><g class="message" data-participant-1="chat" data-participant-2="user_service"><polygon fill="#181818" points="1044.4185,233.125,1054.4185,237.125,1044.4185,241.125,1048.4185,237.125" style="stroke:#181818;stroke-width:1;"/><line style="stroke:#181818;stroke-width:1;" x1="652.5112" x2="1050.4185" y1="237.125" y2="237.125"/><text fill="#000000" font-family="sans-serif" font-size="13" lengthAdjust="spacing" textLength="379.9072" x="659.5112" y="232.0591">Solicita historial reciente (async, solo &#250;ltimos N mensajes)</text></g><g class="message" data-participant-1="user_service" data-participant-2="chat"><polygon fill="#181818" points="663.5112,262.2578,653.5112,266.2578,663.5112,270.2578,659.5112,266.2578" style="stroke:#181818;stroke-width:1;"/><line style="stroke:#181818;stroke-width:1;" x1="657.5112" x2="1055.4185" y1="266.2578" y2="266.2578"/><text fill="#000000" font-family="sans-serif" font-size="13" lengthAdjust="spacing" textLength="117.584" x="669.5112" y="261.1919">Devuelve historial</text></g><g class="message" data-participant-1="chat" data-participant-2="rag"><polygon fill="#181818" points="913.7456,291.3906,923.7456,295.3906,913.7456,299.3906,917.7456,295.3906" style="stroke:#181818;stroke-width:1;"/><line style="stroke:#181818;stroke-width:1;" x1="652.5112" x2="919.7456" y1="295.3906" y2="295.3906"/><text fill="#000000" font-family="sans-serif" font-size="13" lengthAdjust="spacing" textLength="249.2344" x="659.5112" y="290.3247">Solicita contexto (consulta + historial)</text></g><g class="message" data-participant-1="rag" data-participant-2="vector_db"><polygon fill="#181818" points="1471.8457,320.5234,1481.8457,324.5234,1471.8457,328.5234,1475.8457,324.5234" style="stroke:#181818;stroke-width:1;"/><line style="stroke:#181818;stroke-width:1;" x1="925.7456" x2="1477.8457" y1="324.5234" y2="324.5234"/><text fill="#000000" font-family="sans-serif" font-size="13" lengthAdjust="spacing" textLength="136.2334" x="932.7456" y="319.4575">B&#250;squeda sem&#225;ntica</text></g><g class="message" data-participant-1="rag" data-participant-2="chat"><polygon fill="#181818" points="663.5112,349.6563,653.5112,353.6563,663.5112,357.6563,659.5112,353.6563" style="stroke:#181818;stroke-width:1;"/><line style="stroke:#181818;stroke-width:1;" x1="657.5112" x2="924.7456" y1="353.6563" y2="353.6563"/><text fill="#000000" font-family="sans-serif" font-size="13" lengthAdjust="spacing" textLength="188.6333" x="669.5112" y="348.5903">Devuelve contexto relevante</text></g><g class="message" data-participant-1="chat" data-participant-2="queue"><polygon fill="#181818" points="1586.0132,378.7891,1596.0132,382.7891,1586.0132,386.7891,1590.0132,382.7891" style="stroke:#181818;stroke-width:1;"/><line style="stroke:#181818;stroke-width:1;" x1="652.5112" x2="1592.0132" y1="382.7891" y2="382.7891"/><text fill="#000000" font-family="sans-serif" font-size="13" lengthAdjust="spacing" textLength="377.6602" x="659.5112" y="377.7231">Publica tarea de generaci&#243;n (consulta, contexto, historial)</text></g><g class="message" data-participant-1="queue" data-participant-2="ollama"><polygon fill="#181818" points="1195.3896,407.9219,1185.3896,411.9219,1195.3896,415.9219,1191.3896,411.9219" style="stroke:#181818;stroke-width:1;"/><line style="stroke:#181818;stroke-width:1;" x1="1189.3896" x2="1597.0132" y1="411.9219" y2="411.9219"/><text fill="#000000" font-family="sans-serif" font-size="13" lengthAdjust="spacing" textLength="99.4487" x="1201.3896" y="406.856">Consume tarea</text></g><g class="message" data-participant-1="ollama" data-participant-2="ollama"><line style="stroke:#181818;stroke-width:1;" x1="1184.3896" x2="1226.3896" y1="441.0547" y2="441.0547"/><line style="stroke:#181818;stroke-width:1;" x1="1226.3896" x2="1226.3896" y1="441.0547" y2="454.0547"/><line style="stroke:#181818;stroke-width:1;" x1="1185.3896" x2="1226.3896" y1="454.0547" y2="454.0547"/><polygon fill="#181818" points="1195.3896,450.0547,1185.3896,454.0547,1195.3896,458.0547,1191.3896,454.0547" style="stroke:#181818;stroke-width:1;"/><text fill="#000000" font-family="sans-serif" font-size="13" lengthAdjust="spacing" textLength="200.7891" x="1191.3896" y="435.9888">Genera respuesta streamizada</text></g><g class="message" data-participant-1="ollama" data-participant-2="client"><polygon fill="#181818" points="279.2949,479.1875,269.2949,483.1875,279.2949,487.1875,275.2949,483.1875" style="stroke:#181818;stroke-width:1;"/><line style="stroke:#181818;stroke-width:1;" x1="273.2949" x2="1183.3896" y1="483.1875" y2="483.1875"/><text fill="#000000" font-family="sans-serif" font-size="13" lengthAdjust="spacing" textLength="529.604" x="285.2949" y="478.1216">Streaming directo via WebSocket/SSE (bypassando gateway para datos grandes)</text></g><g class="message" data-participant-1="client" data-participant-2="user"><polygon fill="#181818" points="34.9551,508.3203,24.9551,512.3203,34.9551,516.3203,30.9551,512.3203" style="stroke:#181818;stroke-width:1;"/><line style="stroke:#181818;stroke-width:1;" x1="28.9551" x2="267.2949" y1="512.3203" y2="512.3203"/><text fill="#000000" font-family="sans-serif" font-size="13" lengthAdjust="spacing" textLength="220.3398" x="40.9551" y="507.2544">Muestra respuesta en tiempo real</text></g><g class="message" data-participant-1="chat" data-participant-2="db"><polygon fill="#181818" points="1387.1787,537.4531,1397.1787,541.4531,1387.1787,545.4531,1391.1787,541.4531" style="stroke:#181818;stroke-width:1;"/><line style="stroke:#181818;stroke-width:1;" x1="652.5112" x2="1393.1787" y1="541.4531" y2="541.4531"/><text fill="#000000" font-family="sans-serif" font-size="13" lengthAdjust="spacing" textLength="352.1997" x="659.5112" y="536.3872">Almacena mensaje y respuesta para auditor&#237;a (async)</text></g><!--SRC=[NLJBSjf04BplLqpv11K_IPoaT4W56vkOG208xADha2PudTMAx8E4_4q-8AVSVEN7Chi28toWqAfxUsUxP-IaKmJNoZ-MC5muMSZVc9UmG8DmMMhhbKF82QRMev6b49Yvql2I3A05p_-2oKvcSe7QmS6bagJTGG2p-BWFjqStq4L7Ft4LEVFg-ON6f_O4KZ9BcL6bz80lTCRjxXx3u7oVC4slndkCKEgzhLxiKuVzVdlGtYENIc618aU7CxG41vtDKqJpMGsvfUX8vo92oxYwPyOFJvxX0LcBSuAlOHaf4H0Yr0D77pOk9N2ZdIbpdn4eX6nZlQZGmDiubS1ec4xW95W23UP1xsxI51iq2ZAIm9XoQIGVlA1mq_K_NR6Z3J9l2X4Lc5yt9e6qL4pdq1-avPj8L60e2qKGDD2kT7O8jbGbh9yKjqjfuGiKf2q-acsAkjQkbWujFQabxJHtftDmjKEvGaU_N1bhhPhlrMvNKp0xR7fsEO6BzPDbHtC4IyNwZ-RBufRsulHdSKEAbXmzxSg8eR2tViQL83Wq5Fj-JfeCxloBDHq-IntMYwiIPx6gUv9gW0ggr4JrjevtepYNOnUUBD_LEYR64QpJjnsILgYU0qSR782bHBYZMLfctycTfEaLD6Qh1NB7QHxYRK_4OUQ6vQpcXf4GrAwlGcG93481UxMG1YUfM0Ixwe45qzkgm8mqRfE7LMrZF0vzBjcNzL_ST4rJV2ITWozOQgJO_EcWppaQAxafpuvRfwtpuzUDr7C_y-_q34vRoVcxfFK61fq91BWf6jrHdvlF6swkd7qtSkOTxs-A7YuHnfxJBpZ5uO9qh_Dv-mAkz5AQKXVXQzIx7Um8RzySNKWN9v-7yNOWElGDEM7UaPKvEvt0T79zz5xqKSyzZt72jeZBadKDJwBsIlq7]--></g></svg>