<svg xmlns="http://www.w3.org/2000/svg" xmlns:xlink="http://www.w3.org/1999/xlink" contentStyleType="text/css" data-diagram-type="SEQUENCE" height="902px" preserveAspectRatio="none" style="width:804px;height:902px;background:#FFFFFF;" version="1.1" viewBox="0 0 804 902" width="804px" zoomAndPan="magnify"><title>Flujo de Login de Usuarios</title><defs/><g><text fill="#000000" font-family="sans-serif" font-size="14" font-weight="bold" lengthAdjust="spacing" textLength="209.3711" x="296.531" y="27.9951">Flujo de Login de Usuarios</text><rect fill="none" height="220.8672" style="stroke:#000000;stroke-width:1.5;" width="473.5273" x="128.6929" y="540.0469"/><g><title>User</title><rect fill="#000000" fill-opacity="0.00000" height="635.9922" width="8" x="19.9551" y="186.1875"/><line style="stroke:#181818;stroke-width:0.5;stroke-dasharray:5.0,5.0;" x1="23" x2="23" y1="186.1875" y2="822.1797"/></g><g><title>Client</title><rect fill="#000000" fill-opacity="0.00000" height="635.9922" width="8" x="161.958" y="186.1875"/><line style="stroke:#181818;stroke-width:0.5;stroke-dasharray:5.0,5.0;" x1="165.6929" x2="165.6929" y1="186.1875" y2="822.1797"/></g><g><title>API Gateway</title><rect fill="#000000" fill-opacity="0.00000" height="635.9922" width="8" x="332.3984" y="186.1875"/><line style="stroke:#181818;stroke-width:0.5;stroke-dasharray:5.0,5.0;" x1="336.1768" x2="336.1768" y1="186.1875" y2="822.1797"/></g><g><title>AUTH Service</title><rect fill="#000000" fill-opacity="0.00000" height="635.9922" width="8" x="502.8389" y="186.1875"/><line style="stroke:#181818;stroke-width:0.5;stroke-dasharray:5.0,5.0;" x1="506.2915" x2="506.2915" y1="186.1875" y2="822.1797"/></g><g><title>DB Service</title><rect fill="#000000" fill-opacity="0.00000" height="635.9922" width="8" x="632.0679" y="186.1875"/><line style="stroke:#181818;stroke-width:0.5;stroke-dasharray:5.0,5.0;" x1="635.7798" x2="635.7798" y1="186.1875" y2="822.1797"/></g><g><title>UserDB</title><rect fill="#000000" fill-opacity="0.00000" height="635.9922" width="8" x="765.2856" y="186.1875"/><line style="stroke:#181818;stroke-width:0.5;stroke-dasharray:5.0,5.0;" x1="769.1382" x2="769.1382" y1="186.1875" y2="822.1797"/></g><g class="participant participant-head" data-participant="user"><text fill="#000000" font-family="sans-serif" font-size="14" lengthAdjust="spacing" textLength="31.9102" x="5" y="182.8857">User</text><ellipse cx="23.9551" cy="118.3906" fill="#E2E2F0" rx="8" ry="8" style="stroke:#181818;stroke-width:0.5;"/><path d="M23.9551,126.3906 L23.9551,153.3906 M10.9551,134.3906 L36.9551,134.3906 M23.9551,153.3906 L10.9551,168.3906 M23.9551,153.3906 L36.9551,168.3906" fill="none" style="stroke:#181818;stroke-width:0.5;"/></g><g class="participant participant-tail" data-participant="user"><text fill="#000000" font-family="sans-serif" font-size="14" lengthAdjust="spacing" textLength="31.9102" x="5" y="834.1748">User</text><ellipse cx="23.9551" cy="845.9766" fill="#E2E2F0" rx="8" ry="8" style="stroke:#181818;stroke-width:0.5;"/><path d="M23.9551,853.9766 L23.9551,880.9766 M10.9551,861.9766 L36.9551,861.9766 M23.9551,880.9766 L10.9551,895.9766 M23.9551,880.9766 L36.9551,895.9766" fill="none" style="stroke:#181818;stroke-width:0.5;"/></g><g class="participant participant-head" data-participant="client"><rect fill="#E2E2F0" height="30.2969" rx="2.5" ry="2.5" style="stroke:#181818;stroke-width:0.5;" width="54.5303" x="138.6929" y="154.8906"/><text fill="#000000" font-family="sans-serif" font-size="14" lengthAdjust="spacing" textLength="40.5303" x="145.6929" y="174.8857">Client</text></g><g class="participant participant-tail" data-participant="client"><rect fill="#E2E2F0" height="30.2969" rx="2.5" ry="2.5" style="stroke:#181818;stroke-width:0.5;" width="54.5303" x="138.6929" y="821.1797"/><text fill="#000000" font-family="sans-serif" font-size="14" lengthAdjust="spacing" textLength="40.5303" x="145.6929" y="841.1748">Client</text></g><g class="participant participant-head" data-participant="gateway"><rect fill="#E2E2F0" height="30.2969" rx="2.5" ry="2.5" style="stroke:#181818;stroke-width:0.5;" width="102.4434" x="285.1768" y="154.8906"/><text fill="#000000" font-family="sans-serif" font-size="14" lengthAdjust="spacing" textLength="88.4434" x="292.1768" y="174.8857">API Gateway</text></g><g class="participant participant-tail" data-participant="gateway"><rect fill="#E2E2F0" height="30.2969" rx="2.5" ry="2.5" style="stroke:#181818;stroke-width:0.5;" width="102.4434" x="285.1768" y="821.1797"/><text fill="#000000" font-family="sans-serif" font-size="14" lengthAdjust="spacing" textLength="88.4434" x="292.1768" y="841.1748">API Gateway</text></g><g class="participant participant-head" data-participant="auth"><rect fill="#E2E2F0" height="30.2969" rx="2.5" ry="2.5" style="stroke:#181818;stroke-width:0.5;" width="109.0947" x="452.2915" y="154.8906"/><text fill="#000000" font-family="sans-serif" font-size="14" lengthAdjust="spacing" textLength="95.0947" x="459.2915" y="174.8857">AUTH Service</text></g><g class="participant participant-tail" data-participant="auth"><rect fill="#E2E2F0" height="30.2969" rx="2.5" ry="2.5" style="stroke:#181818;stroke-width:0.5;" width="109.0947" x="452.2915" y="821.1797"/><text fill="#000000" font-family="sans-serif" font-size="14" lengthAdjust="spacing" textLength="95.0947" x="459.2915" y="841.1748">AUTH Service</text></g><g class="participant participant-head" data-participant="db"><rect fill="#E2E2F0" height="30.2969" rx="2.5" ry="2.5" style="stroke:#181818;stroke-width:0.5;" width="90.5762" x="590.7798" y="154.8906"/><text fill="#000000" font-family="sans-serif" font-size="14" lengthAdjust="spacing" textLength="76.5762" x="597.7798" y="174.8857">DB Service</text></g><g class="participant participant-tail" data-participant="db"><rect fill="#E2E2F0" height="30.2969" rx="2.5" ry="2.5" style="stroke:#181818;stroke-width:0.5;" width="90.5762" x="590.7798" y="821.1797"/><text fill="#000000" font-family="sans-serif" font-size="14" lengthAdjust="spacing" textLength="76.5762" x="597.7798" y="841.1748">DB Service</text></g><g class="participant participant-head" data-participant="userDB"><text fill="#000000" font-family="sans-serif" font-size="14" lengthAdjust="spacing" textLength="52.2949" x="740.1382" y="182.8857">UserDB</text><path d="M751.2856,133.8906 C751.2856,123.8906 769.2856,123.8906 769.2856,123.8906 C769.2856,123.8906 787.2856,123.8906 787.2856,133.8906 L787.2856,159.8906 C787.2856,169.8906 769.2856,169.8906 769.2856,169.8906 C769.2856,169.8906 751.2856,169.8906 751.2856,159.8906 L751.2856,133.8906" fill="#E2E2F0" style="stroke:#181818;stroke-width:1.5;"/><path d="M751.2856,133.8906 C751.2856,143.8906 769.2856,143.8906 769.2856,143.8906 C769.2856,143.8906 787.2856,143.8906 787.2856,133.8906" fill="none" style="stroke:#181818;stroke-width:1.5;"/></g><g class="participant participant-tail" data-participant="userDB"><text fill="#000000" font-family="sans-serif" font-size="14" lengthAdjust="spacing" textLength="52.2949" x="740.1382" y="834.1748">UserDB</text><path d="M751.2856,847.4766 C751.2856,837.4766 769.2856,837.4766 769.2856,837.4766 C769.2856,837.4766 787.2856,837.4766 787.2856,847.4766 L787.2856,873.4766 C787.2856,883.4766 769.2856,883.4766 769.2856,883.4766 C769.2856,883.4766 751.2856,883.4766 751.2856,873.4766 L751.2856,847.4766" fill="#E2E2F0" style="stroke:#181818;stroke-width:1.5;"/><path d="M751.2856,847.4766 C751.2856,857.4766 769.2856,857.4766 769.2856,857.4766 C769.2856,857.4766 787.2856,857.4766 787.2856,847.4766" fill="none" style="stroke:#181818;stroke-width:1.5;"/></g><g class="message" data-participant-1="user" data-participant-2="client"><polygon fill="#181818" points="153.958,228.4531,163.958,232.4531,153.958,236.4531,157.958,232.4531" style="stroke:#181818;stroke-width:1;"/><line style="stroke:#181818;stroke-width:1;" x1="23.9551" x2="159.958" y1="232.4531" y2="232.4531"/><text fill="#000000" font-family="sans-serif" font-size="13" lengthAdjust="spacing" textLength="62.1055" x="30.9551" y="212.2544">Introduce</text><text fill="#000000" font-family="sans-serif" font-size="13" lengthAdjust="spacing" textLength="82.0879" x="30.9551" y="227.3872">credenciales</text></g><g class="message" data-participant-1="client" data-participant-2="gateway"><polygon fill="#0000FF" points="324.3984,272.7188,334.3984,276.7188,324.3984,280.7188,328.3984,276.7188" style="stroke:#0000FF;stroke-width:1;"/><line style="stroke:#0000FF;stroke-width:1;" x1="165.958" x2="330.3984" y1="276.7188" y2="276.7188"/><text fill="#000000" font-family="sans-serif" font-size="13" lengthAdjust="spacing" textLength="71.8936" x="172.958" y="256.52">HTTP POST</text><text fill="#000000" font-family="sans-serif" font-size="13" lengthAdjust="spacing" textLength="146.4404" x="172.958" y="271.6528">(Username, Password)</text></g><g class="message" data-participant-1="gateway" data-participant-2="auth"><polygon fill="#800080" points="494.8389,316.9844,504.8389,320.9844,494.8389,324.9844,498.8389,320.9844" style="stroke:#800080;stroke-width:1;"/><line style="stroke:#800080;stroke-width:1;" x1="336.3984" x2="500.8389" y1="320.9844" y2="320.9844"/><text fill="#000000" font-family="sans-serif" font-size="13" lengthAdjust="spacing" textLength="116.0225" x="343.3984" y="300.7856">Delega validaci&#243;n</text><text fill="#000000" font-family="sans-serif" font-size="13" lengthAdjust="spacing" textLength="146.4404" x="343.3984" y="315.9185">(Username, Password)</text></g><g class="message" data-participant-1="auth" data-participant-2="db"><polygon fill="#800080" points="624.0679,361.25,634.0679,365.25,624.0679,369.25,628.0679,365.25" style="stroke:#800080;stroke-width:1;"/><line style="stroke:#800080;stroke-width:1;" x1="506.8389" x2="630.0679" y1="365.25" y2="365.25"/><text fill="#000000" font-family="sans-serif" font-size="13" lengthAdjust="spacing" textLength="99.5122" x="513.8389" y="345.0513">Solicita usuario</text><text fill="#000000" font-family="sans-serif" font-size="13" lengthAdjust="spacing" textLength="76.6416" x="513.8389" y="360.1841">(Username)</text></g><g class="message" data-participant-1="db" data-participant-2="userDB"><polygon fill="#181818" points="757.2856,390.3828,767.2856,394.3828,757.2856,398.3828,761.2856,394.3828" style="stroke:#181818;stroke-width:1;"/><line style="stroke:#181818;stroke-width:1;" x1="636.0679" x2="763.2856" y1="394.3828" y2="394.3828"/><text fill="#000000" font-family="sans-serif" font-size="13" lengthAdjust="spacing" textLength="109.2178" x="643.0679" y="389.3169">Consulta usuario</text></g><g class="message" data-participant-1="userDB" data-participant-2="db"><polygon fill="#181818" points="647.0679,434.6484,637.0679,438.6484,647.0679,442.6484,643.0679,438.6484" style="stroke:#181818;stroke-width:1;"/><line style="stroke:#181818;stroke-width:1;" x1="641.0679" x2="768.2856" y1="438.6484" y2="438.6484"/><text fill="#000000" font-family="sans-serif" font-size="13" lengthAdjust="spacing" textLength="101.4165" x="653.0679" y="418.4497">Devuelve datos</text><text fill="#000000" font-family="sans-serif" font-size="13" lengthAdjust="spacing" textLength="76.0894" x="653.0679" y="433.5825">(Hash, Salt)</text></g><g class="message" data-participant-1="db" data-participant-2="auth"><polygon fill="#800080" points="517.8389,478.9141,507.8389,482.9141,517.8389,486.9141,513.8389,482.9141" style="stroke:#800080;stroke-width:1;"/><line style="stroke:#800080;stroke-width:1;" x1="511.8389" x2="635.0679" y1="482.9141" y2="482.9141"/><text fill="#000000" font-family="sans-serif" font-size="13" lengthAdjust="spacing" textLength="101.4165" x="523.8389" y="462.7153">Devuelve datos</text><text fill="#000000" font-family="sans-serif" font-size="13" lengthAdjust="spacing" textLength="76.0894" x="523.8389" y="477.8481">(Hash, Salt)</text></g><g class="message" data-participant-1="auth" data-participant-2="auth"><line style="stroke:#181818;stroke-width:1;" x1="506.8389" x2="548.8389" y1="512.0469" y2="512.0469"/><line style="stroke:#181818;stroke-width:1;" x1="548.8389" x2="548.8389" y1="512.0469" y2="525.0469"/><line style="stroke:#181818;stroke-width:1;" x1="507.8389" x2="548.8389" y1="525.0469" y2="525.0469"/><polygon fill="#181818" points="517.8389,521.0469,507.8389,525.0469,517.8389,529.0469,513.8389,525.0469" style="stroke:#181818;stroke-width:1;"/><text fill="#000000" font-family="sans-serif" font-size="13" lengthAdjust="spacing" textLength="115.229" x="513.8389" y="506.981">Verifica password</text></g><path d="M128.6929,540.0469 L193.1357,540.0469 L193.1357,547.1797 L183.1357,557.1797 L128.6929,557.1797 L128.6929,540.0469" fill="#EEEEEE" style="stroke:#000000;stroke-width:1.5;"/><rect fill="none" height="220.8672" style="stroke:#000000;stroke-width:1.5;" width="473.5273" x="128.6929" y="540.0469"/><text fill="#000000" font-family="sans-serif" font-size="13" font-weight="bold" lengthAdjust="spacing" textLength="19.4429" x="143.6929" y="553.1138">alt</text><text fill="#000000" font-family="sans-serif" font-size="11" font-weight="bold" lengthAdjust="spacing" textLength="73.7021" x="208.1357" y="552.2573">[Incorrecto]</text><g class="message" data-participant-1="auth" data-participant-2="gateway"><polygon fill="#800080" points="347.3984,574.3125,337.3984,578.3125,347.3984,582.3125,343.3984,578.3125" style="stroke:#800080;stroke-width:1;"/><line style="stroke:#800080;stroke-width:1;" x1="341.3984" x2="505.8389" y1="578.3125" y2="578.3125"/><text fill="#000000" font-family="sans-serif" font-size="13" lengthAdjust="spacing" textLength="66.0601" x="353.3984" y="573.2466">Incorrecto</text></g><g class="message" data-participant-1="gateway" data-participant-2="client"><polygon fill="#0000FF" points="176.958,618.5781,166.958,622.5781,176.958,626.5781,172.958,622.5781" style="stroke:#0000FF;stroke-width:1;"/><line style="stroke:#0000FF;stroke-width:1;" x1="170.958" x2="335.3984" y1="622.5781" y2="622.5781"/><text fill="#000000" font-family="sans-serif" font-size="13" lengthAdjust="spacing" textLength="62.4419" x="182.958" y="602.3794">HTTP 401</text><text fill="#000000" font-family="sans-serif" font-size="13" lengthAdjust="spacing" textLength="91.9458" x="182.958" y="617.5122">No Autorizado</text></g><line style="stroke:#000000;stroke-width:1;stroke-dasharray:2.0,2.0;" x1="128.6929" x2="602.2202" y1="631.5781" y2="631.5781"/><text fill="#000000" font-family="sans-serif" font-size="11" font-weight="bold" lengthAdjust="spacing" textLength="63.3306" x="133.6929" y="641.7886">[Correcto]</text><g class="message" data-participant-1="auth" data-participant-2="auth"><line style="stroke:#181818;stroke-width:1;" x1="506.8389" x2="548.8389" y1="666.5156" y2="666.5156"/><line style="stroke:#181818;stroke-width:1;" x1="548.8389" x2="548.8389" y1="666.5156" y2="679.5156"/><line style="stroke:#181818;stroke-width:1;" x1="507.8389" x2="548.8389" y1="679.5156" y2="679.5156"/><polygon fill="#181818" points="517.8389,675.5156,507.8389,679.5156,517.8389,683.5156,513.8389,679.5156" style="stroke:#181818;stroke-width:1;"/><text fill="#000000" font-family="sans-serif" font-size="13" lengthAdjust="spacing" textLength="76.3813" x="513.8389" y="661.4497">Genera JWT</text></g><g class="message" data-participant-1="auth" data-participant-2="gateway"><polygon fill="#800080" points="347.3984,704.6484,337.3984,708.6484,347.3984,712.6484,343.3984,708.6484" style="stroke:#800080;stroke-width:1;"/><line style="stroke:#800080;stroke-width:1;" x1="341.3984" x2="505.8389" y1="708.6484" y2="708.6484"/><text fill="#000000" font-family="sans-serif" font-size="13" lengthAdjust="spacing" textLength="55.9165" x="353.3984" y="703.5825">Correcto</text></g><g class="message" data-participant-1="gateway" data-participant-2="client"><polygon fill="#0000FF" points="176.958,748.9141,166.958,752.9141,176.958,756.9141,172.958,752.9141" style="stroke:#0000FF;stroke-width:1;"/><line style="stroke:#0000FF;stroke-width:1;" x1="170.958" x2="335.3984" y1="752.9141" y2="752.9141"/><text fill="#000000" font-family="sans-serif" font-size="13" lengthAdjust="spacing" textLength="62.4419" x="182.958" y="732.7153">HTTP 200</text><text fill="#000000" font-family="sans-serif" font-size="13" lengthAdjust="spacing" textLength="34.7725" x="182.958" y="747.8481">(JWT)</text></g><g class="message" data-participant-1="client" data-participant-2="user"><polygon fill="#181818" points="34.9551,800.1797,24.9551,804.1797,34.9551,808.1797,30.9551,804.1797" style="stroke:#181818;stroke-width:1;"/><line style="stroke:#181818;stroke-width:1;" x1="28.9551" x2="164.958" y1="804.1797" y2="804.1797"/><text fill="#000000" font-family="sans-serif" font-size="13" lengthAdjust="spacing" textLength="118.0029" x="40.9551" y="783.981">Muestra resultado</text><text fill="#000000" font-family="sans-serif" font-size="13" lengthAdjust="spacing" textLength="52.0508" x="40.9551" y="799.1138">de login</text></g><rect fill="#DDDDDD" height="42.5938" rx="7.5" ry="7.5" style="stroke:#000000;stroke-width:1;" width="86.8018" x="357.8157" y="54.2969"/><text fill="#0000FF" font-family="sans-serif" font-size="14" lengthAdjust="spacing" textLength="76.8018" x="362.8157" y="72.292">REST/HTTP</text><text fill="#800080" font-family="sans-serif" font-size="14" lengthAdjust="spacing" textLength="36.832" x="362.8157" y="88.5889">gRPC</text><!--SRC=[ZLFRRXCn47ttLup22v4QDI2ULjLApGQQ8YvHTmiFX8TPUqYDZBto9HNyLZ-17sEykssQ82gUFFASENFcZ1rrD0IJDoPzTw08thcjjZcu3WczTc4Y1CheF5-G1moG-1GT-gYbxj16c5H6ausJd9HzU9W-Nr_21KQwnPyzPZl4Hw3hPWKr-PsMrACmnPj3o79n052jK1YnnS3wixZbOdAlRxaG8f-pSX1KmAMDtgaaQMEb9qLMQZGKn92VVNdMcaHVor5R0QkcMSFwOzrixFDCRl47dS0QGxXrNat52EJ2BldES6aMNC2I36qHTcYqGgb_tzb_46JueshL5b0xmyD6v15wxnzLJeLgP-KmMW6Lio6PFL0CYLdFigHT8hCZO7TSO8uLXfiJgD74dkLlnK_W1vaZyXDv_KrBX6wSWjCcihNIUK_yI0J0qLWFVXw0zkODhjylgJVzrVp5ndvmS9xurUbVg9mWmpkkZfgCeYx8aaTu-xbvedlrdxrVpkTi07DD1LaURtmTlV45l4yK8lVorBklU47yKKp-CKBmsha4ekkuoPbqnlaYToYlNjVDQMO_E-rlotr-q5bkhzRLGpAJ35n_0000]--></g></svg>