<svg xmlns="http://www.w3.org/2000/svg" xmlns:xlink="http://www.w3.org/1999/xlink" contentStyleType="text/css" data-diagram-type="SEQUENCE" height="1063px" preserveAspectRatio="none" style="width:1080px;height:1063px;background:#FFFFFF;" version="1.1" viewBox="0 0 1080 1063" width="1080px" zoomAndPan="magnify"><title>Flujo de Login de Usuarios</title><defs/><g><text fill="#000000" font-family="sans-serif" font-size="14" font-weight="bold" lengthAdjust="spacing" textLength="209.3711" x="431.3457" y="27.9951">Flujo de Login de Usuarios</text><rect fill="none" height="104.5313" style="stroke:#000000;stroke-width:1.5;" width="904.4751" x="158.5874" y="758.3047"/><rect fill="none" height="75.3984" style="stroke:#000000;stroke-width:1.5;" width="666.2417" x="158.5874" y="876.8359"/><g><title>Usuario</title><rect fill="#000000" fill-opacity="0.00000" height="764.4531" width="8" x="30.6021" y="204.7813"/><line style="stroke:#181818;stroke-width:0.5;stroke-dasharray:5.0,5.0;" x1="34" x2="34" y1="204.7813" y2="969.2344"/></g><g><title>Cliente Web/App</title><rect fill="#000000" fill-opacity="0.00000" height="764.4531" width="8" x="230.0894" y="204.7813"/><line style="stroke:#181818;stroke-width:0.5;stroke-dasharray:5.0,5.0;" x1="233.5874" x2="233.5874" y1="204.7813" y2="969.2344"/></g><g><title>API Gateway</title><rect fill="#000000" fill-opacity="0.00000" height="764.4531" width="8" x="492.9326" y="204.7813"/><line style="stroke:#181818;stroke-width:0.5;stroke-dasharray:5.0,5.0;" x1="496.7109" x2="496.7109" y1="204.7813" y2="969.2344"/></g><g><title>Servicio de</title><rect fill="#000000" fill-opacity="0.00000" height="764.4531" width="8" x="755.7759" y="204.7813"/><line style="stroke:#181818;stroke-width:0.5;stroke-dasharray:5.0,5.0;" x1="759.7227" x2="759.7227" y1="204.7813" y2="969.2344"/></g><g><title>Base de Datos</title><rect fill="#000000" fill-opacity="0.00000" height="764.4531" width="8" x="995.4629" y="204.7813"/><line style="stroke:#181818;stroke-width:0.5;stroke-dasharray:5.0,5.0;" x1="998.8633" x2="998.8633" y1="204.7813" y2="969.2344"/></g><g class="participant participant-head" data-participant="user"><text fill="#000000" font-family="sans-serif" font-size="14" lengthAdjust="spacing" textLength="53.2041" x="5" y="201.4795">Usuario</text><ellipse cx="34.6021" cy="136.9844" fill="#E2E2F0" rx="8" ry="8" style="stroke:#181818;stroke-width:0.5;"/><path d="M34.6021,144.9844 L34.6021,171.9844 M21.6021,152.9844 L47.6021,152.9844 M34.6021,171.9844 L21.6021,186.9844 M34.6021,171.9844 L47.6021,186.9844" fill="none" style="stroke:#181818;stroke-width:0.5;"/></g><g class="participant participant-tail" data-participant="user"><text fill="#000000" font-family="sans-serif" font-size="14" lengthAdjust="spacing" textLength="53.2041" x="5" y="981.2295">Usuario</text><ellipse cx="34.6021" cy="993.0313" fill="#E2E2F0" rx="8" ry="8" style="stroke:#181818;stroke-width:0.5;"/><path d="M34.6021,1001.0313 L34.6021,1028.0313 M21.6021,1009.0313 L47.6021,1009.0313 M34.6021,1028.0313 L21.6021,1043.0313 M34.6021,1028.0313 L47.6021,1043.0313" fill="none" style="stroke:#181818;stroke-width:0.5;"/></g><g class="participant participant-head" data-participant="client"><rect fill="#E2E2F0" height="30.2969" rx="2.5" ry="2.5" style="stroke:#181818;stroke-width:0.5;" width="131.0039" x="168.5874" y="173.4844"/><text fill="#000000" font-family="sans-serif" font-size="14" lengthAdjust="spacing" textLength="117.0039" x="175.5874" y="193.4795">Cliente Web/App</text></g><g class="participant participant-tail" data-participant="client"><rect fill="#E2E2F0" height="30.2969" rx="2.5" ry="2.5" style="stroke:#181818;stroke-width:0.5;" width="131.0039" x="168.5874" y="968.2344"/><text fill="#000000" font-family="sans-serif" font-size="14" lengthAdjust="spacing" textLength="117.0039" x="175.5874" y="988.2295">Cliente Web/App</text></g><g class="participant participant-head" data-participant="gateway"><rect fill="#E2E2F0" height="46.5938" rx="2.5" ry="2.5" style="stroke:#181818;stroke-width:0.5;" width="102.4434" x="445.7109" y="157.1875"/><text fill="#000000" font-family="sans-serif" font-size="14" lengthAdjust="spacing" textLength="88.4434" x="452.7109" y="177.1826">API Gateway</text><text fill="#000000" font-family="sans-serif" font-size="14" lengthAdjust="spacing" textLength="55.6787" x="469.0933" y="193.4795">(APISIX)</text></g><g class="participant participant-tail" data-participant="gateway"><rect fill="#E2E2F0" height="46.5938" rx="2.5" ry="2.5" style="stroke:#181818;stroke-width:0.5;" width="102.4434" x="445.7109" y="968.2344"/><text fill="#000000" font-family="sans-serif" font-size="14" lengthAdjust="spacing" textLength="88.4434" x="452.7109" y="988.2295">API Gateway</text><text fill="#000000" font-family="sans-serif" font-size="14" lengthAdjust="spacing" textLength="55.6787" x="469.0933" y="1004.5264">(APISIX)</text></g><g class="participant participant-head" data-participant="auth"><rect fill="#E2E2F0" height="46.5938" rx="2.5" ry="2.5" style="stroke:#181818;stroke-width:0.5;" width="110.1064" x="704.7227" y="157.1875"/><text fill="#000000" font-family="sans-serif" font-size="14" lengthAdjust="spacing" textLength="77.5332" x="721.0093" y="177.1826">Servicio de</text><text fill="#000000" font-family="sans-serif" font-size="14" lengthAdjust="spacing" textLength="96.1064" x="711.7227" y="193.4795">Autenticaci&#243;n</text></g><g class="participant participant-tail" data-participant="auth"><rect fill="#E2E2F0" height="46.5938" rx="2.5" ry="2.5" style="stroke:#181818;stroke-width:0.5;" width="110.1064" x="704.7227" y="968.2344"/><text fill="#000000" font-family="sans-serif" font-size="14" lengthAdjust="spacing" textLength="77.5332" x="721.0093" y="988.2295">Servicio de</text><text fill="#000000" font-family="sans-serif" font-size="14" lengthAdjust="spacing" textLength="96.1064" x="711.7227" y="1004.5264">Autenticaci&#243;n</text></g><g class="participant participant-head" data-participant="userDB"><text fill="#000000" font-family="sans-serif" font-size="14" lengthAdjust="spacing" textLength="101.1992" x="945.8633" y="185.1826">Base de Datos</text><text fill="#000000" font-family="sans-serif" font-size="14" lengthAdjust="spacing" textLength="60.498" x="966.2139" y="201.4795">Usuarios</text><path d="M981.4629,136.1875 C981.4629,126.1875 999.4629,126.1875 999.4629,126.1875 C999.4629,126.1875 1017.4629,126.1875 1017.4629,136.1875 L1017.4629,162.1875 C1017.4629,172.1875 999.4629,172.1875 999.4629,172.1875 C999.4629,172.1875 981.4629,172.1875 981.4629,162.1875 L981.4629,136.1875" fill="#E2E2F0" style="stroke:#181818;stroke-width:1.5;"/><path d="M981.4629,136.1875 C981.4629,146.1875 999.4629,146.1875 999.4629,146.1875 C999.4629,146.1875 1017.4629,146.1875 1017.4629,136.1875" fill="none" style="stroke:#181818;stroke-width:1.5;"/></g><g class="participant participant-tail" data-participant="userDB"><text fill="#000000" font-family="sans-serif" font-size="14" lengthAdjust="spacing" textLength="101.1992" x="945.8633" y="981.2295">Base de Datos</text><text fill="#000000" font-family="sans-serif" font-size="14" lengthAdjust="spacing" textLength="60.498" x="966.2139" y="997.5264">Usuarios</text><path d="M981.4629,1010.8281 C981.4629,1000.8281 999.4629,1000.8281 999.4629,1000.8281 C999.4629,1000.8281 1017.4629,1000.8281 1017.4629,1010.8281 L1017.4629,1036.8281 C1017.4629,1046.8281 999.4629,1046.8281 999.4629,1046.8281 C999.4629,1046.8281 981.4629,1046.8281 981.4629,1036.8281 L981.4629,1010.8281" fill="#E2E2F0" style="stroke:#181818;stroke-width:1.5;"/><path d="M981.4629,1010.8281 C981.4629,1020.8281 999.4629,1020.8281 999.4629,1020.8281 C999.4629,1020.8281 1017.4629,1020.8281 1017.4629,1010.8281" fill="none" style="stroke:#181818;stroke-width:1.5;"/></g><rect fill="#EEEEEE" height="3" style="stroke:#EEEEEE;stroke-width:1;" width="1073.0625" x="0" y="235.3477"/><line style="stroke:#000000;stroke-width:1;" x1="0" x2="1073.0625" y1="235.3477" y2="235.3477"/><line style="stroke:#000000;stroke-width:1;" x1="0" x2="1073.0625" y1="238.3477" y2="238.3477"/><rect fill="#EEEEEE" height="23.1328" style="stroke:#000000;stroke-width:2;" width="121.9102" x="475.5762" y="224.7813"/><text fill="#000000" font-family="sans-serif" font-size="13" font-weight="bold" lengthAdjust="spacing" textLength="103.3843" x="481.5762" y="240.8481">Flujo de Login</text><g class="message" data-participant-1="user" data-participant-2="client"><polygon fill="#181818" points="222.0894,290.1797,232.0894,294.1797,222.0894,298.1797,226.0894,294.1797" style="stroke:#181818;stroke-width:1;"/><line style="stroke:#181818;stroke-width:1;" x1="34.6021" x2="228.0894" y1="294.1797" y2="294.1797"/><text fill="#000000" font-family="sans-serif" font-size="13" lengthAdjust="spacing" textLength="148.3257" x="41.6021" y="273.981">Introduce credenciales</text><text fill="#000000" font-family="sans-serif" font-size="13" font-weight="bold" lengthAdjust="spacing" textLength="23.0293" x="194.0601" y="273.981">1.0</text><text fill="#000000" font-family="sans-serif" font-size="13" lengthAdjust="spacing" textLength="173.2339" x="41.6021" y="289.1138">{USERNAME, PASSWORD}</text></g><g class="message" data-participant-1="client" data-participant-2="gateway"><polygon fill="#0000FF" points="484.9326,334.4453,494.9326,338.4453,484.9326,342.4453,488.9326,338.4453" style="stroke:#0000FF;stroke-width:1;"/><line style="stroke:#0000FF;stroke-width:1;stroke-dasharray:2.0,2.0;" x1="234.0894" x2="490.9326" y1="338.4453" y2="338.4453"/><text fill="#000000" font-family="sans-serif" font-size="13" lengthAdjust="spacing" textLength="145.9961" x="241.0894" y="318.2466">HTTP POST /auth/login</text><text fill="#000000" font-family="sans-serif" font-size="13" font-weight="bold" lengthAdjust="spacing" textLength="23.0293" x="391.2178" y="318.2466">1.1</text><text fill="#000000" font-family="sans-serif" font-size="13" lengthAdjust="spacing" textLength="173.2339" x="241.0894" y="333.3794">{USERNAME, PASSWORD}</text></g><g class="message" data-participant-1="gateway" data-participant-2="auth"><polygon fill="#800080" points="747.7759,378.7109,757.7759,382.7109,747.7759,386.7109,751.7759,382.7109" style="stroke:#800080;stroke-width:1;"/><line style="stroke:#800080;stroke-width:1;stroke-dasharray:2.0,2.0;" x1="496.9326" x2="753.7759" y1="382.7109" y2="382.7109"/><text fill="#000000" font-family="sans-serif" font-size="13" lengthAdjust="spacing" textLength="125.855" x="503.9326" y="362.5122">Redirige la petici&#243;n</text><text fill="#000000" font-family="sans-serif" font-size="13" font-weight="bold" lengthAdjust="spacing" textLength="23.0293" x="633.9199" y="362.5122">1.2</text><text fill="#000000" font-family="sans-serif" font-size="13" lengthAdjust="spacing" textLength="173.2339" x="503.9326" y="377.645">{USERNAME, PASSWORD}</text></g><g class="message" data-participant-1="auth" data-participant-2="userDB"><polygon fill="#181818" points="987.4629,407.8438,997.4629,411.8438,987.4629,415.8438,991.4629,411.8438" style="stroke:#181818;stroke-width:1;"/><line style="stroke:#181818;stroke-width:1;stroke-dasharray:2.0,2.0;" x1="759.7759" x2="993.4629" y1="411.8438" y2="411.8438"/><text fill="#000000" font-family="sans-serif" font-size="13" lengthAdjust="spacing" textLength="147.748" x="766.7759" y="406.7778">Busca las credenciales</text><text fill="#000000" font-family="sans-serif" font-size="13" font-weight="bold" lengthAdjust="spacing" textLength="23.0293" x="918.6563" y="406.7778">1.3</text></g><g class="message" data-participant-1="userDB" data-participant-2="auth"><polygon fill="#181818" points="770.7759,452.1094,760.7759,456.1094,770.7759,460.1094,766.7759,456.1094" style="stroke:#181818;stroke-width:1;"/><line style="stroke:#181818;stroke-width:1;stroke-dasharray:2.0,2.0;" x1="764.7759" x2="998.4629" y1="456.1094" y2="456.1094"/><text fill="#000000" font-family="sans-serif" font-size="13" lengthAdjust="spacing" textLength="18.7573" x="776.7759" y="435.9106">OK</text><text fill="#000000" font-family="sans-serif" font-size="13" lengthAdjust="spacing" textLength="93.8311" x="776.7759" y="451.0435">{HASH, SALT}</text></g><g class="message" data-participant-1="auth" data-participant-2="auth"><line style="stroke:#181818;stroke-width:1;" x1="759.7759" x2="801.7759" y1="485.2422" y2="485.2422"/><line style="stroke:#181818;stroke-width:1;" x1="801.7759" x2="801.7759" y1="485.2422" y2="498.2422"/><line style="stroke:#181818;stroke-width:1;" x1="760.7759" x2="801.7759" y1="498.2422" y2="498.2422"/><polygon fill="#181818" points="770.7759,494.2422,760.7759,498.2422,770.7759,502.2422,766.7759,498.2422" style="stroke:#181818;stroke-width:1;"/><text fill="#000000" font-family="sans-serif" font-size="13" lengthAdjust="spacing" textLength="154.6543" x="766.7759" y="480.1763">Genera ACCESS_TOKEN</text><text fill="#000000" font-family="sans-serif" font-size="13" font-weight="bold" lengthAdjust="spacing" textLength="45.7856" x="925.5625" y="480.1763">1.4.1a</text></g><g class="message" data-participant-1="auth" data-participant-2="auth"><line style="stroke:#181818;stroke-width:1;" x1="759.7759" x2="801.7759" y1="527.375" y2="527.375"/><line style="stroke:#181818;stroke-width:1;" x1="801.7759" x2="801.7759" y1="527.375" y2="540.375"/><line style="stroke:#181818;stroke-width:1;" x1="760.7759" x2="801.7759" y1="540.375" y2="540.375"/><polygon fill="#181818" points="770.7759,536.375,760.7759,540.375,770.7759,544.375,766.7759,540.375" style="stroke:#181818;stroke-width:1;"/><text fill="#000000" font-family="sans-serif" font-size="13" lengthAdjust="spacing" textLength="162.8872" x="766.7759" y="522.3091">Genera REFRESH_TOKEN</text><text fill="#000000" font-family="sans-serif" font-size="13" font-weight="bold" lengthAdjust="spacing" textLength="45.7856" x="933.7954" y="522.3091">1.4.2a</text></g><g class="message" data-participant-1="auth" data-participant-2="userDB"><polygon fill="#181818" points="987.4629,565.5078,997.4629,569.5078,987.4629,573.5078,991.4629,569.5078" style="stroke:#181818;stroke-width:1;"/><line style="stroke:#181818;stroke-width:1;stroke-dasharray:2.0,2.0;" x1="759.7759" x2="993.4629" y1="569.5078" y2="569.5078"/><text fill="#000000" font-family="sans-serif" font-size="13" lengthAdjust="spacing" textLength="179.7529" x="766.7759" y="564.4419">Almacena REFRESH_TOKEN</text><text fill="#000000" font-family="sans-serif" font-size="13" font-weight="bold" lengthAdjust="spacing" textLength="31.8018" x="950.6611" y="564.4419">1.5a</text></g><g class="message" data-participant-1="auth" data-participant-2="gateway"><polygon fill="#800080" points="507.9326,609.7734,497.9326,613.7734,507.9326,617.7734,503.9326,613.7734" style="stroke:#800080;stroke-width:1;"/><line style="stroke:#800080;stroke-width:1;stroke-dasharray:2.0,2.0;" x1="501.9326" x2="758.7759" y1="613.7734" y2="613.7734"/><text fill="#000000" font-family="sans-serif" font-size="13" lengthAdjust="spacing" textLength="57.1924" x="513.9326" y="593.5747">Login Ok</text><text fill="#000000" font-family="sans-serif" font-size="13" font-weight="bold" lengthAdjust="spacing" textLength="31.8018" x="575.2573" y="593.5747">1.6a</text><text fill="#000000" font-family="sans-serif" font-size="13" lengthAdjust="spacing" textLength="238.8433" x="513.9326" y="608.7075">{ACCESS_TOKEN, REFRESH_TOKEN}</text></g><g class="message" data-participant-1="gateway" data-participant-2="client"><polygon fill="#0000FF" points="245.0894,654.0391,235.0894,658.0391,245.0894,662.0391,241.0894,658.0391" style="stroke:#0000FF;stroke-width:1;"/><line style="stroke:#0000FF;stroke-width:1;stroke-dasharray:2.0,2.0;" x1="239.0894" x2="495.9326" y1="658.0391" y2="658.0391"/><text fill="#000000" font-family="sans-serif" font-size="13" lengthAdjust="spacing" textLength="93.1582" x="251.0894" y="637.8403">HTTP 200 - Ok</text><text fill="#000000" font-family="sans-serif" font-size="13" font-weight="bold" lengthAdjust="spacing" textLength="31.8018" x="348.3799" y="637.8403">1.7a</text><text fill="#000000" font-family="sans-serif" font-size="13" lengthAdjust="spacing" textLength="238.8433" x="251.0894" y="652.9731">{ACCESS_TOKEN, REFRESH_TOKEN}</text></g><g class="message" data-participant-1="client" data-participant-2="client"><line style="stroke:#181818;stroke-width:1;" x1="234.0894" x2="276.0894" y1="687.1719" y2="687.1719"/><line style="stroke:#181818;stroke-width:1;" x1="276.0894" x2="276.0894" y1="687.1719" y2="700.1719"/><line style="stroke:#181818;stroke-width:1;" x1="235.0894" x2="276.0894" y1="700.1719" y2="700.1719"/><polygon fill="#181818" points="245.0894,696.1719,235.0894,700.1719,245.0894,704.1719,241.0894,700.1719" style="stroke:#181818;stroke-width:1;"/><text fill="#000000" font-family="sans-serif" font-size="13" lengthAdjust="spacing" textLength="112.2075" x="241.0894" y="682.106">Almacena tokens</text><text fill="#000000" font-family="sans-serif" font-size="13" font-weight="bold" lengthAdjust="spacing" textLength="31.8018" x="357.4292" y="682.106">1.8a</text></g><rect fill="#EEEEEE" height="3" style="stroke:#EEEEEE;stroke-width:1;" width="1073.0625" x="0" y="728.7383"/><line style="stroke:#000000;stroke-width:1;" x1="0" x2="1073.0625" y1="728.7383" y2="728.7383"/><line style="stroke:#000000;stroke-width:1;" x1="0" x2="1073.0625" y1="731.7383" y2="731.7383"/><rect fill="#EEEEEE" height="23.1328" style="stroke:#000000;stroke-width:2;" width="156.5684" x="458.2471" y="718.1719"/><text fill="#000000" font-family="sans-serif" font-size="13" font-weight="bold" lengthAdjust="spacing" textLength="138.0425" x="464.2471" y="734.2388">Flujos Alternativos</text><path d="M158.5874,758.3047 L223.0303,758.3047 L223.0303,765.4375 L213.0303,775.4375 L158.5874,775.4375 L158.5874,758.3047" fill="#EEEEEE" style="stroke:#000000;stroke-width:1.5;"/><rect fill="none" height="104.5313" style="stroke:#000000;stroke-width:1.5;" width="904.4751" x="158.5874" y="758.3047"/><text fill="#000000" font-family="sans-serif" font-size="13" font-weight="bold" lengthAdjust="spacing" textLength="19.4429" x="173.5874" y="771.3716">alt</text><text fill="#000000" font-family="sans-serif" font-size="11" font-weight="bold" lengthAdjust="spacing" textLength="131.436" x="238.0303" y="770.5151">[Usuario Inexistente]</text><g class="message" data-participant-1="userDB" data-participant-2="auth"><polygon fill="#181818" points="770.7759,792.5703,760.7759,796.5703,770.7759,800.5703,766.7759,796.5703" style="stroke:#181818;stroke-width:1;"/><line style="stroke:#181818;stroke-width:1;stroke-dasharray:2.0,2.0;" x1="764.7759" x2="998.4629" y1="796.5703" y2="796.5703"/><text fill="#000000" font-family="sans-serif" font-size="13" lengthAdjust="spacing" textLength="154.9653" x="776.7759" y="791.5044">FAIL (No existe usuario)</text></g><g class="message" data-participant-1="auth" data-participant-2="gateway"><polygon fill="#800080" points="507.9326,821.7031,497.9326,825.7031,507.9326,829.7031,503.9326,825.7031" style="stroke:#800080;stroke-width:1;"/><line style="stroke:#800080;stroke-width:1;stroke-dasharray:2.0,2.0;" x1="501.9326" x2="758.7759" y1="825.7031" y2="825.7031"/><text fill="#000000" font-family="sans-serif" font-size="13" lengthAdjust="spacing" textLength="83.6812" x="513.9326" y="820.6372">Login Failure</text><text fill="#000000" font-family="sans-serif" font-size="13" font-weight="bold" lengthAdjust="spacing" textLength="32.335" x="601.7461" y="820.6372">1.4b</text></g><g class="message" data-participant-1="gateway" data-participant-2="client"><polygon fill="#0000FF" points="245.0894,850.8359,235.0894,854.8359,245.0894,858.8359,241.0894,854.8359" style="stroke:#0000FF;stroke-width:1;"/><line style="stroke:#0000FF;stroke-width:1;stroke-dasharray:2.0,2.0;" x1="239.0894" x2="495.9326" y1="854.8359" y2="854.8359"/><text fill="#000000" font-family="sans-serif" font-size="13" lengthAdjust="spacing" textLength="128.7876" x="251.0894" y="849.77">401 - No autorizado</text><text fill="#000000" font-family="sans-serif" font-size="13" font-weight="bold" lengthAdjust="spacing" textLength="32.335" x="384.0093" y="849.77">1.5b</text></g><path d="M158.5874,876.8359 L223.0303,876.8359 L223.0303,883.9688 L213.0303,893.9688 L158.5874,893.9688 L158.5874,876.8359" fill="#EEEEEE" style="stroke:#000000;stroke-width:1.5;"/><rect fill="none" height="75.3984" style="stroke:#000000;stroke-width:1.5;" width="666.2417" x="158.5874" y="876.8359"/><text fill="#000000" font-family="sans-serif" font-size="13" font-weight="bold" lengthAdjust="spacing" textLength="19.4429" x="173.5874" y="889.9028">alt</text><text fill="#000000" font-family="sans-serif" font-size="11" font-weight="bold" lengthAdjust="spacing" textLength="94.3218" x="238.0303" y="889.0464">[Internal Error]</text><g class="message" data-participant-1="auth" data-participant-2="gateway"><polygon fill="#800080" points="507.9326,911.1016,497.9326,915.1016,507.9326,919.1016,503.9326,915.1016" style="stroke:#800080;stroke-width:1;"/><line style="stroke:#800080;stroke-width:1;stroke-dasharray:2.0,2.0;" x1="501.9326" x2="758.7759" y1="915.1016" y2="915.1016"/><text fill="#000000" font-family="sans-serif" font-size="13" lengthAdjust="spacing" textLength="83.6812" x="513.9326" y="910.0356">Login Failure</text><text fill="#000000" font-family="sans-serif" font-size="13" font-weight="bold" lengthAdjust="spacing" textLength="30.7354" x="601.7461" y="910.0356">1.4c</text></g><g class="message" data-participant-1="gateway" data-participant-2="client"><polygon fill="#0000FF" points="245.0894,940.2344,235.0894,944.2344,245.0894,948.2344,241.0894,944.2344" style="stroke:#0000FF;stroke-width:1;"/><line style="stroke:#0000FF;stroke-width:1;stroke-dasharray:2.0,2.0;" x1="239.0894" x2="495.9326" y1="944.2344" y2="944.2344"/><text fill="#000000" font-family="sans-serif" font-size="13" lengthAdjust="spacing" textLength="116.5176" x="251.0894" y="939.1685">500 - Server error</text><text fill="#000000" font-family="sans-serif" font-size="13" font-weight="bold" lengthAdjust="spacing" textLength="30.7354" x="371.7393" y="939.1685">1.5c</text></g><rect fill="#DDDDDD" height="58.8906" rx="7.5" ry="7.5" style="stroke:#000000;stroke-width:1;" width="252.8809" x="409.5908" y="54.2969"/><text fill="#000000" font-family="sans-serif" font-size="14" lengthAdjust="spacing" textLength="119.54" x="414.5908" y="72.292">Comunicaciones:</text><text fill="#000000" font-family="sans-serif" font-size="14" lengthAdjust="spacing" textLength="8.9004" x="414.5908" y="88.5889">&#160;&#160;</text><text fill="#0000FF" font-family="sans-serif" font-size="14" lengthAdjust="spacing" textLength="36.0117" x="423.4912" y="88.5889">REST</text><text fill="#000000" font-family="sans-serif" font-size="14" lengthAdjust="spacing" textLength="189.0684" x="459.5029" y="88.5889">: Comunicaci&#243;n HTTP REST</text><text fill="#000000" font-family="sans-serif" font-size="14" lengthAdjust="spacing" textLength="8.9004" x="414.5908" y="104.8857">&#160;&#160;</text><text fill="#800080" font-family="sans-serif" font-size="14" lengthAdjust="spacing" textLength="36.832" x="423.4912" y="104.8857">gRPC</text><text fill="#000000" font-family="sans-serif" font-size="14" lengthAdjust="spacing" textLength="149.3652" x="460.3232" y="104.8857">: Comunicaci&#243;n gRPC</text><!--SRC=[bLJTRjem6BttKtnYDoqg1RfscwA2520KrAuWGjL9OvfCyebvTUt8SRe_zQds27kn-OS4MDjrkq74FkVu-1pRcccEK1louhE45E52hfYmVwxoWYecyneX75SeKj0o8trvMmYMq8H9WNb004uJoQKAbhp0xYoAvwTDDz0DO8FzzLF0Q3wVWWK0R5XPeJAEtTLisd-AP-SCnHhmFWWXDD5IGMrjiGOqXo97HJAgD4jOHeM6Mfyp51hX6fVDCCiSAd5ZkxXmEeOpgl4B_ROGU-Oh7h_RT-YL7zs5nwZkp8SDQo72GXkzqgiZqK9_8YdLT4bp4spF_feu1rJBV26gL4lFWnuXdGxyaN-dGuYTXKPtxJc0iT1AfaM2a2XCKIICSioXNcyVjkhrXVXn5KUpo_1jT03JC8wl9xF1FV5aQBn_OGlwOEJMcmfy8TE9AQHfFJUvMzdAjP-K8sks5VJTMKbB3s26ALDiXS0fP6W3i_LPlQEdzImL6aR3Pn50hyWJQYJoXxjyMQyJ3tCCl-hat4YFmdXq075uCQyao_ap5AWeXFr-5CSVvvFpwDA97H-sgT5x53oBXkQWZdRGHnlqbjkGtz84nMEK4qjOCxR3glBtJKzk7FeLTHbjsppO5RtVphuiipmRhikZLWiQfU3hVn2iJiT6gDgGbZSeVEvlt4wgKveRa4Obg6PtviCULSfr-LwOOufVMMwl1Pfx_g2lOJY-WBrB2Hvb08wsRx3FPZMaZ1SAVIDBOmhWBvaSjzec3hEIqPMAVQUfzCLu9d5FYNLkBfRT3eT8AQd-sqZod94JrujzDyo5Hhk6zv5KFdu3]--></g></svg>