<svg xmlns="http://www.w3.org/2000/svg" xmlns:xlink="http://www.w3.org/1999/xlink" contentStyleType="text/css" data-diagram-type="SEQUENCE" height="946px" preserveAspectRatio="none" style="width:818px;height:946px;background:#FFFFFF;" version="1.1" viewBox="0 0 818 946" width="818px" zoomAndPan="magnify"><title>Flujo de creaci&#243;n de chat de Usuario</title><defs/><g><text fill="#000000" font-family="sans-serif" font-size="14" font-weight="bold" lengthAdjust="spacing" textLength="288.21" x="261.2026" y="27.9951">Flujo de creaci&#243;n de chat de Usuario</text><g><title>User</title><rect fill="#000000" fill-opacity="0.00000" height="631.1875" width="8" x="19.9551" y="221.0781"/><line style="stroke:#181818;stroke-width:0.5;stroke-dasharray:5.0,5.0;" x1="23" x2="23" y1="221.0781" y2="852.2656"/></g><g><title>Client</title><rect fill="#000000" fill-opacity="0.00000" height="631.1875" width="8" x="206.1504" y="221.0781"/><line style="stroke:#181818;stroke-width:0.5;stroke-dasharray:5.0,5.0;" x1="209.8853" x2="209.8853" y1="221.0781" y2="852.2656"/></g><g><title>API</title><rect fill="#000000" fill-opacity="0.00000" height="631.1875" width="8" x="349.5942" y="221.0781"/><line style="stroke:#181818;stroke-width:0.5;stroke-dasharray:5.0,5.0;" x1="352.6719" x2="352.6719" y1="221.0781" y2="852.2656"/></g><g><title>AUTH</title><rect fill="#000000" fill-opacity="0.00000" height="631.1875" width="8" x="430.3872" y="221.0781"/><line style="stroke:#181818;stroke-width:0.5;stroke-dasharray:5.0,5.0;" x1="433.5166" x2="433.5166" y1="221.0781" y2="852.2656"/></g><g><title>CHAT Service</title><rect fill="#000000" fill-opacity="0.00000" height="631.1875" width="8" x="527.5693" y="221.0781"/><line style="stroke:#181818;stroke-width:0.5;stroke-dasharray:5.0,5.0;" x1="531.2578" x2="531.2578" y1="221.0781" y2="852.2656"/></g><g><title>Chat</title><rect fill="#000000" fill-opacity="0.00000" height="631.1875" width="8" x="722.6704" y="221.0781"/><line style="stroke:#181818;stroke-width:0.5;stroke-dasharray:5.0,5.0;" x1="725.9014" x2="725.9014" y1="221.0781" y2="852.2656"/></g><g><title>Chat</title><rect fill="#000000" fill-opacity="0.00000" height="631.1875" width="8" x="776.7979" y="221.0781"/><line style="stroke:#181818;stroke-width:0.5;stroke-dasharray:5.0,5.0;" x1="780.4395" x2="780.4395" y1="221.0781" y2="852.2656"/></g><g class="participant participant-head" data-participant="user"><text fill="#000000" font-family="sans-serif" font-size="14" lengthAdjust="spacing" textLength="31.9102" x="5" y="217.7764">User</text><ellipse cx="23.9551" cy="153.2813" fill="#E2E2F0" rx="8" ry="8" style="stroke:#181818;stroke-width:0.5;"/><path d="M23.9551,161.2813 L23.9551,188.2813 M10.9551,169.2813 L36.9551,169.2813 M23.9551,188.2813 L10.9551,203.2813 M23.9551,188.2813 L36.9551,203.2813" fill="none" style="stroke:#181818;stroke-width:0.5;"/></g><g class="participant participant-tail" data-participant="user"><text fill="#000000" font-family="sans-serif" font-size="14" lengthAdjust="spacing" textLength="31.9102" x="5" y="864.2607">User</text><ellipse cx="23.9551" cy="876.0625" fill="#E2E2F0" rx="8" ry="8" style="stroke:#181818;stroke-width:0.5;"/><path d="M23.9551,884.0625 L23.9551,911.0625 M10.9551,892.0625 L36.9551,892.0625 M23.9551,911.0625 L10.9551,926.0625 M23.9551,911.0625 L36.9551,926.0625" fill="none" style="stroke:#181818;stroke-width:0.5;"/></g><g class="participant participant-head" data-participant="client"><rect fill="#E2E2F0" height="30.2969" rx="2.5" ry="2.5" style="stroke:#181818;stroke-width:0.5;" width="54.5303" x="182.8853" y="189.7813"/><text fill="#000000" font-family="sans-serif" font-size="14" lengthAdjust="spacing" textLength="40.5303" x="189.8853" y="209.7764">Client</text></g><g class="participant participant-tail" data-participant="client"><rect fill="#E2E2F0" height="30.2969" rx="2.5" ry="2.5" style="stroke:#181818;stroke-width:0.5;" width="54.5303" x="182.8853" y="851.2656"/><text fill="#000000" font-family="sans-serif" font-size="14" lengthAdjust="spacing" textLength="40.5303" x="189.8853" y="871.2607">Client</text></g><g class="participant participant-head" data-participant="gateway"><rect fill="#E2E2F0" height="46.5938" rx="2.5" ry="2.5" style="stroke:#181818;stroke-width:0.5;" width="75.8447" x="315.6719" y="173.4844"/><text fill="#000000" font-family="sans-serif" font-size="14" lengthAdjust="spacing" textLength="22.1484" x="342.52" y="193.4795">API</text><text fill="#000000" font-family="sans-serif" font-size="14" lengthAdjust="spacing" textLength="61.8447" x="322.6719" y="209.7764">Gateway</text></g><g class="participant participant-tail" data-participant="gateway"><rect fill="#E2E2F0" height="46.5938" rx="2.5" ry="2.5" style="stroke:#181818;stroke-width:0.5;" width="75.8447" x="315.6719" y="851.2656"/><text fill="#000000" font-family="sans-serif" font-size="14" lengthAdjust="spacing" textLength="22.1484" x="342.52" y="871.2607">API</text><text fill="#000000" font-family="sans-serif" font-size="14" lengthAdjust="spacing" textLength="61.8447" x="322.6719" y="887.5576">Gateway</text></g><g class="participant participant-head" data-participant="auth"><rect fill="#E2E2F0" height="46.5938" rx="2.5" ry="2.5" style="stroke:#181818;stroke-width:0.5;" width="65.7412" x="401.5166" y="173.4844"/><text fill="#000000" font-family="sans-serif" font-size="14" lengthAdjust="spacing" textLength="38.9033" x="414.9355" y="193.4795">AUTH</text><text fill="#000000" font-family="sans-serif" font-size="14" lengthAdjust="spacing" textLength="51.7412" x="408.5166" y="209.7764">Service</text></g><g class="participant participant-tail" data-participant="auth"><rect fill="#E2E2F0" height="46.5938" rx="2.5" ry="2.5" style="stroke:#181818;stroke-width:0.5;" width="65.7412" x="401.5166" y="851.2656"/><text fill="#000000" font-family="sans-serif" font-size="14" lengthAdjust="spacing" textLength="38.9033" x="414.9355" y="871.2607">AUTH</text><text fill="#000000" font-family="sans-serif" font-size="14" lengthAdjust="spacing" textLength="51.7412" x="408.5166" y="887.5576">Service</text></g><g class="participant participant-head" data-participant="chat"><rect fill="#E2E2F0" height="30.2969" rx="2.5" ry="2.5" style="stroke:#181818;stroke-width:0.5;" width="108.623" x="477.2578" y="189.7813"/><text fill="#000000" font-family="sans-serif" font-size="14" lengthAdjust="spacing" textLength="94.623" x="484.2578" y="209.7764">CHAT Service</text></g><g class="participant participant-tail" data-participant="chat"><rect fill="#E2E2F0" height="30.2969" rx="2.5" ry="2.5" style="stroke:#181818;stroke-width:0.5;" width="108.623" x="477.2578" y="851.2656"/><text fill="#000000" font-family="sans-serif" font-size="14" lengthAdjust="spacing" textLength="94.623" x="484.2578" y="871.2607">CHAT Service</text></g><g class="participant participant-head" data-participant="chatCache"><text fill="#000000" font-family="sans-serif" font-size="14" lengthAdjust="spacing" textLength="32.7168" x="707.312" y="201.4795">Chat</text><text fill="#000000" font-family="sans-serif" font-size="14" lengthAdjust="spacing" textLength="43.5381" x="701.9014" y="217.7764">Cach&#233;</text><path d="M708.6704,152.4844 C708.6704,142.4844 726.6704,142.4844 726.6704,142.4844 C726.6704,142.4844 744.6704,142.4844 744.6704,152.4844 L744.6704,178.4844 C744.6704,188.4844 726.6704,188.4844 726.6704,188.4844 C726.6704,188.4844 708.6704,188.4844 708.6704,178.4844 L708.6704,152.4844" fill="#E2E2F0" style="stroke:#181818;stroke-width:1.5;"/><path d="M708.6704,152.4844 C708.6704,162.4844 726.6704,162.4844 726.6704,162.4844 C726.6704,162.4844 744.6704,162.4844 744.6704,152.4844" fill="none" style="stroke:#181818;stroke-width:1.5;"/></g><g class="participant participant-tail" data-participant="chatCache"><text fill="#000000" font-family="sans-serif" font-size="14" lengthAdjust="spacing" textLength="32.7168" x="707.312" y="864.2607">Chat</text><text fill="#000000" font-family="sans-serif" font-size="14" lengthAdjust="spacing" textLength="43.5381" x="701.9014" y="880.5576">Cach&#233;</text><path d="M708.6704,893.8594 C708.6704,883.8594 726.6704,883.8594 726.6704,883.8594 C726.6704,883.8594 744.6704,883.8594 744.6704,893.8594 L744.6704,919.8594 C744.6704,929.8594 726.6704,929.8594 726.6704,929.8594 C726.6704,929.8594 708.6704,929.8594 708.6704,919.8594 L708.6704,893.8594" fill="#E2E2F0" style="stroke:#181818;stroke-width:1.5;"/><path d="M708.6704,893.8594 C708.6704,903.8594 726.6704,903.8594 726.6704,903.8594 C726.6704,903.8594 744.6704,903.8594 744.6704,893.8594" fill="none" style="stroke:#181818;stroke-width:1.5;"/></g><g class="participant participant-head" data-participant="chatDB"><text fill="#000000" font-family="sans-serif" font-size="14" lengthAdjust="spacing" textLength="32.7168" x="761.4395" y="201.4795">Chat</text><text fill="#000000" font-family="sans-serif" font-size="14" lengthAdjust="spacing" textLength="20.3848" x="767.6055" y="217.7764">DB</text><path d="M762.7979,152.4844 C762.7979,142.4844 780.7979,142.4844 780.7979,142.4844 C780.7979,142.4844 798.7979,142.4844 798.7979,152.4844 L798.7979,178.4844 C798.7979,188.4844 780.7979,188.4844 780.7979,188.4844 C780.7979,188.4844 762.7979,188.4844 762.7979,178.4844 L762.7979,152.4844" fill="#E2E2F0" style="stroke:#181818;stroke-width:1.5;"/><path d="M762.7979,152.4844 C762.7979,162.4844 780.7979,162.4844 780.7979,162.4844 C780.7979,162.4844 798.7979,162.4844 798.7979,152.4844" fill="none" style="stroke:#181818;stroke-width:1.5;"/></g><g class="participant participant-tail" data-participant="chatDB"><text fill="#000000" font-family="sans-serif" font-size="14" lengthAdjust="spacing" textLength="32.7168" x="761.4395" y="864.2607">Chat</text><text fill="#000000" font-family="sans-serif" font-size="14" lengthAdjust="spacing" textLength="20.3848" x="767.6055" y="880.5576">DB</text><path d="M762.7979,893.8594 C762.7979,883.8594 780.7979,883.8594 780.7979,883.8594 C780.7979,883.8594 798.7979,883.8594 798.7979,893.8594 L798.7979,919.8594 C798.7979,929.8594 780.7979,929.8594 780.7979,929.8594 C780.7979,929.8594 762.7979,929.8594 762.7979,919.8594 L762.7979,893.8594" fill="#E2E2F0" style="stroke:#181818;stroke-width:1.5;"/><path d="M762.7979,893.8594 C762.7979,903.8594 780.7979,903.8594 780.7979,903.8594 C780.7979,903.8594 798.7979,903.8594 798.7979,893.8594" fill="none" style="stroke:#181818;stroke-width:1.5;"/></g><rect fill="#EEEEEE" height="3" style="stroke:#EEEEEE;stroke-width:1;" width="811.6152" x="0" y="251.6445"/><line style="stroke:#000000;stroke-width:1;" x1="0" x2="811.6152" y1="251.6445" y2="251.6445"/><line style="stroke:#000000;stroke-width:1;" x1="0" x2="811.6152" y1="254.6445" y2="254.6445"/><rect fill="#EEEEEE" height="23.1328" style="stroke:#000000;stroke-width:2;" width="159.2407" x="326.1873" y="241.0781"/><text fill="#000000" font-family="sans-serif" font-size="13" font-weight="bold" lengthAdjust="spacing" textLength="136.189" x="332.1873" y="257.145">Notifica crear chat</text><g class="message" data-participant-1="user" data-participant-2="client"><polygon fill="#181818" points="198.1504,291.3438,208.1504,295.3438,198.1504,299.3438,202.1504,295.3438" style="stroke:#181818;stroke-width:1;"/><line style="stroke:#181818;stroke-width:1;" x1="23.9551" x2="204.1504" y1="295.3438" y2="295.3438"/><text fill="#000000" font-family="sans-serif" font-size="13" lengthAdjust="spacing" textLength="162.1953" x="30.9551" y="290.2778">Notifica creaci&#243;n de chat</text></g><g class="message" data-participant-1="client" data-participant-2="gateway"><polygon fill="#0000FF" points="341.5942,335.6094,351.5942,339.6094,341.5942,343.6094,345.5942,339.6094" style="stroke:#0000FF;stroke-width:1;"/><line style="stroke:#0000FF;stroke-width:1;" x1="210.1504" x2="347.5942" y1="339.6094" y2="339.6094"/><text fill="#000000" font-family="sans-serif" font-size="13" lengthAdjust="spacing" textLength="102.4766" x="217.1504" y="319.4106">POST /chat/new</text><text fill="#000000" font-family="sans-serif" font-size="13" lengthAdjust="spacing" textLength="119.4438" x="217.1504" y="334.5435">{ACCESS_TOKEN}</text></g><rect fill="#EEEEEE" height="3" style="stroke:#EEEEEE;stroke-width:1;" width="811.6152" x="0" y="368.1758"/><line style="stroke:#000000;stroke-width:1;" x1="0" x2="811.6152" y1="368.1758" y2="368.1758"/><line style="stroke:#000000;stroke-width:1;" x1="0" x2="811.6152" y1="371.1758" y2="371.1758"/><rect fill="#EEEEEE" height="23.1328" style="stroke:#000000;stroke-width:2;" width="145.9932" x="332.811" y="357.6094"/><text fill="#000000" font-family="sans-serif" font-size="13" font-weight="bold" lengthAdjust="spacing" textLength="127.4673" x="338.811" y="373.6763">Creaci&#243;n del chat</text><g class="message" data-participant-1="gateway" data-participant-2="chat"><polygon fill="#800080" points="519.5693,423.0078,529.5693,427.0078,519.5693,431.0078,523.5693,427.0078" style="stroke:#800080;stroke-width:1;"/><line style="stroke:#800080;stroke-width:1;" x1="353.5942" x2="525.5693" y1="427.0078" y2="427.0078"/><text fill="#000000" font-family="sans-serif" font-size="13" lengthAdjust="spacing" textLength="62.9688" x="360.5942" y="406.8091">Crea chat</text><text fill="#000000" font-family="sans-serif" font-size="13" lengthAdjust="spacing" textLength="119.4438" x="360.5942" y="421.9419">{ACCESS_TOKEN}</text></g><g class="message" data-participant-1="chat" data-participant-2="chat"><line style="stroke:#FF0000;stroke-width:1;" x1="531.5693" x2="573.5693" y1="456.1406" y2="456.1406"/><line style="stroke:#FF0000;stroke-width:1;" x1="573.5693" x2="573.5693" y1="456.1406" y2="469.1406"/><line style="stroke:#FF0000;stroke-width:1;" x1="532.5693" x2="573.5693" y1="469.1406" y2="469.1406"/><polygon fill="#FF0000" points="542.5693,465.1406,532.5693,469.1406,542.5693,473.1406,538.5693,469.1406" style="stroke:#FF0000;stroke-width:1;"/><text fill="#000000" font-family="sans-serif" font-size="13" lengthAdjust="spacing" textLength="98.8901" x="538.5693" y="451.0747">Gestion de JWT</text></g><path d="M536,482.1406 L536,507.1406 L806,507.1406 L806,492.1406 L796,482.1406 L536,482.1406" fill="#FEFFDD" style="stroke:#181818;stroke-width:0.5;"/><path d="M796,482.1406 L796,492.1406 L806,492.1406 L796,482.1406" fill="#FEFFDD" style="stroke:#181818;stroke-width:0.5;"/><text fill="#000000" font-family="sans-serif" font-size="13" lengthAdjust="spacing" textLength="249.6152" x="542" y="499.2075">Este flujo valida y gestiona los tokens.</text><g class="message" data-participant-1="chat" data-participant-2="chatDB"><polygon fill="#181818" points="768.7979,544.5391,778.7979,548.5391,768.7979,552.5391,772.7979,548.5391" style="stroke:#181818;stroke-width:1;"/><line style="stroke:#181818;stroke-width:1;" x1="531.5693" x2="774.7979" y1="548.5391" y2="548.5391"/><text fill="#000000" font-family="sans-serif" font-size="13" lengthAdjust="spacing" textLength="79.5806" x="538.5693" y="528.3403">INSERT chat</text><text fill="#000000" font-family="sans-serif" font-size="13" lengthAdjust="spacing" textLength="63.2607" x="538.5693" y="543.4731">{user_id}</text></g><g class="message" data-participant-1="chat" data-participant-2="chat"><line style="stroke:#181818;stroke-width:1;" x1="531.5693" x2="573.5693" y1="592.8047" y2="592.8047"/><line style="stroke:#181818;stroke-width:1;" x1="573.5693" x2="573.5693" y1="592.8047" y2="605.8047"/><line style="stroke:#181818;stroke-width:1;" x1="532.5693" x2="573.5693" y1="605.8047" y2="605.8047"/><polygon fill="#181818" points="542.5693,601.8047,532.5693,605.8047,542.5693,609.8047,538.5693,605.8047" style="stroke:#181818;stroke-width:1;"/><text fill="#000000" font-family="sans-serif" font-size="13" lengthAdjust="spacing" textLength="96.8335" x="538.5693" y="572.606">Crea directorio</text><text fill="#000000" font-family="sans-serif" font-size="13" lengthAdjust="spacing" textLength="56.6973" x="538.5693" y="587.7388">y fichero</text></g><g class="message" data-participant-1="chat" data-participant-2="chatCache"><polygon fill="#181818" points="714.6704,646.0703,724.6704,650.0703,714.6704,654.0703,718.6704,650.0703" style="stroke:#181818;stroke-width:1;"/><line style="stroke:#181818;stroke-width:1;" x1="531.5693" x2="720.6704" y1="650.0703" y2="650.0703"/><text fill="#000000" font-family="sans-serif" font-size="13" lengthAdjust="spacing" textLength="171.1011" x="538.5693" y="629.8716">async Crea nuevo registro</text><text fill="#000000" font-family="sans-serif" font-size="13" lengthAdjust="spacing" textLength="63.356" x="538.5693" y="645.0044">{chat_id}</text></g><g class="message" data-participant-1="chat" data-participant-2="gateway"><polygon fill="#800080" points="364.5942,675.2031,354.5942,679.2031,364.5942,683.2031,360.5942,679.2031" style="stroke:#800080;stroke-width:1;"/><line style="stroke:#800080;stroke-width:1;" x1="358.5942" x2="530.5693" y1="679.2031" y2="679.2031"/><text fill="#000000" font-family="sans-serif" font-size="13" lengthAdjust="spacing" textLength="51.2827" x="370.5942" y="674.1372">Payload</text></g><path d="M358,692.2031 L358,792.2031 L528,792.2031 L528,702.2031 L518,692.2031 L358,692.2031" fill="#FEFFDD" style="stroke:#181818;stroke-width:0.5;"/><path d="M518,692.2031 L518,702.2031 L528,702.2031 L518,692.2031" fill="#FEFFDD" style="stroke:#181818;stroke-width:0.5;"/><text fill="#000000" font-family="sans-serif" font-size="13" lengthAdjust="spacing" textLength="51.2827" x="364" y="709.27">Payload</text><text fill="#000000" font-family="sans-serif" font-size="13" lengthAdjust="spacing" textLength="8.271" x="364" y="724.4028">{</text><text fill="#000000" font-family="sans-serif" font-size="13" lengthAdjust="spacing" textLength="87.0962" x="372.2646" y="739.5356">"status": true</text><text fill="#000000" font-family="sans-serif" font-size="13" lengthAdjust="spacing" textLength="76.6353" x="372.2646" y="754.6685">"code": 200</text><text fill="#000000" font-family="sans-serif" font-size="13" lengthAdjust="spacing" textLength="141.7241" x="372.2646" y="769.8013">"chat_id": 123456789</text><text fill="#000000" font-family="sans-serif" font-size="13" lengthAdjust="spacing" textLength="8.271" x="364" y="784.9341">}</text><g class="message" data-participant-1="gateway" data-participant-2="client"><polygon fill="#0000FF" points="221.1504,830.2656,211.1504,834.2656,221.1504,838.2656,217.1504,834.2656" style="stroke:#0000FF;stroke-width:1;"/><line style="stroke:#0000FF;stroke-width:1;" x1="215.1504" x2="352.5942" y1="834.2656" y2="834.2656"/><text fill="#000000" font-family="sans-serif" font-size="13" lengthAdjust="spacing" textLength="56.5259" x="227.1504" y="814.0669">200 - OK</text><text fill="#000000" font-family="sans-serif" font-size="13" lengthAdjust="spacing" textLength="63.356" x="227.1504" y="829.1997">{chat_id}</text></g><rect fill="#DDDDDD" height="75.1875" rx="7.5" ry="7.5" style="stroke:#000000;stroke-width:1;" width="215.085" x="297.7651" y="54.2969"/><text fill="#000000" font-family="sans-serif" font-size="14" lengthAdjust="spacing" textLength="64.3672" x="302.7651" y="72.292">Leyenda:</text><text fill="#000000" font-family="sans-serif" font-size="14" lengthAdjust="spacing" textLength="5.0518" x="302.7651" y="88.5889">-</text><text fill="#0000FF" font-family="sans-serif" font-size="14" lengthAdjust="spacing" textLength="36.0117" x="312.2671" y="88.5889">REST</text><text fill="#000000" font-family="sans-serif" font-size="14" lengthAdjust="spacing" textLength="153.542" x="352.729" y="88.5889">= comunicaci&#243;n HTTP</text><text fill="#000000" font-family="sans-serif" font-size="14" lengthAdjust="spacing" textLength="5.0518" x="302.7651" y="104.8857">-</text><text fill="#800080" font-family="sans-serif" font-size="14" lengthAdjust="spacing" textLength="36.832" x="312.2671" y="104.8857">gRPC</text><text fill="#000000" font-family="sans-serif" font-size="14" lengthAdjust="spacing" textLength="154.3008" x="353.5493" y="104.8857">= comunicaci&#243;n gRPC</text><text fill="#000000" font-family="sans-serif" font-size="14" lengthAdjust="spacing" textLength="5.0518" x="302.7651" y="121.1826">-</text><text fill="#FF0000" font-family="sans-serif" font-size="14" lengthAdjust="spacing" textLength="28.834" x="312.2671" y="121.1826">flow</text><text fill="#000000" font-family="sans-serif" font-size="14" lengthAdjust="spacing" textLength="127.8047" x="345.5513" y="121.1826">= flujo secundario</text><!--SRC=[TLBRRjim37tNLn3USvQkknkDWTJDcgv34iGkzh0KXIepZZPF2cGvWH7aW_QyJ-YFJHSdTbhimR187fA7FDHS5mZ1bwBwAI53O0efuqz_XJDMLDl_NLbHnML0I84vYWoqN9DlM9id3KaFBfWif0eVYmgZ-IX9B_hE4S40cFnT2SwQckCqdRNuTQNM1KRvV1R_DyC6smo5MRGivBO3Nphc9RBAa34aYUNdQH92cPRAq4S5j8JA_CcQAiqPNrEX8OWBZa87DiZSypGydDqin3NLkAMr0-N-_GnrbuuN8a6ruGmTZ5PwHPvr6WzJw6BiRWd9gAQFj3GAnCPUY9YorTEV8y2Q-09qTNa4N5qIGWO3c4ZDbsPfJZ_bXOF1W10xSo_omuMdi1EPYOVqVhooAjv7pQGXpAP92dqBwGlSBiHk6CUZ97b8fxUZoTvtZplL2j_Szcvgc9fUwVl8Xa87TwYNrQpNu8tE1_0rbffBn_FhzvGG8JM2ulbAUzu0ez9u_1biQC4p2ZNaFej28KjphRzGbA_TPTZqfata5nZ2pIGPpTC38xkn1vxjEw26SiOLseFYSY5gC7jSeP8Tc5ChDDBKWlaCKU56WiASbrgPh9s5jSNRnRJhfdKXQNOov-7gu1W5s9aF82WrrLKPXA1LXTx5P8R6SNvsrjY-fN6zEN_xxls7Zvy-cy2-iurM9w_zuLfC2UZ1zBR3-ny0]--></g></svg>