<svg xmlns="http://www.w3.org/2000/svg" xmlns:xlink="http://www.w3.org/1999/xlink" contentStyleType="text/css" data-diagram-type="SEQUENCE" height="1380px" preserveAspectRatio="none" style="width:1106px;height:1380px;background:#FFFFFF;" version="1.1" viewBox="0 0 1106 1380" width="1106px" zoomAndPan="magnify"><title>Flujo de login de Usuario</title><defs/><g><text fill="#000000" font-family="sans-serif" font-size="14" font-weight="bold" lengthAdjust="spacing" textLength="196.916" x="450.6528" y="27.9951">Flujo de login de Usuario</text><rect fill="none" height="781.125" style="stroke:#000000;stroke-width:1.5;" width="936.5562" x="152.6655" y="487.6172"/><rect fill="none" height="479.7266" style="stroke:#000000;stroke-width:1.5;" width="916.5562" x="162.6655" y="782.0156"/><g><title>User</title><rect fill="#000000" fill-opacity="0.00000" height="1164.8516" width="8" x="19.9551" y="120.8906"/><line style="stroke:#181818;stroke-width:0.5;stroke-dasharray:5.0,5.0;" x1="23" x2="23" y1="120.8906" y2="1285.7422"/></g><g><title>Client</title><rect fill="#000000" fill-opacity="0.00000" height="1164.8516" width="8" x="195.9307" y="120.8906"/><line style="stroke:#181818;stroke-width:0.5;stroke-dasharray:5.0,5.0;" x1="199.6655" x2="199.6655" y1="120.8906" y2="1285.7422"/></g><g><title>API</title><rect fill="#000000" fill-opacity="0.00000" height="1164.8516" width="8" x="458.7739" y="120.8906"/><line style="stroke:#181818;stroke-width:0.5;stroke-dasharray:5.0,5.0;" x1="461.8516" x2="461.8516" y1="120.8906" y2="1285.7422"/></g><g><title>AUTH</title><rect fill="#000000" fill-opacity="0.00000" height="1164.8516" width="8" x="634.7495" y="120.8906"/><line style="stroke:#181818;stroke-width:0.5;stroke-dasharray:5.0,5.0;" x1="637.8789" x2="637.8789" y1="120.8906" y2="1285.7422"/></g><g><title>Token</title><rect fill="#000000" fill-opacity="0.00000" height="1164.8516" width="8" x="878.7441" y="120.8906"/><line style="stroke:#181818;stroke-width:0.5;stroke-dasharray:5.0,5.0;" x1="881.9751" x2="881.9751" y1="120.8906" y2="1285.7422"/></g><g><title>User</title><rect fill="#000000" fill-opacity="0.00000" height="1164.8516" width="8" x="932.4683" y="120.8906"/><line style="stroke:#181818;stroke-width:0.5;stroke-dasharray:5.0,5.0;" x1="935.5132" x2="935.5132" y1="120.8906" y2="1285.7422"/></g><g class="participant participant-head" data-participant="user"><text fill="#000000" font-family="sans-serif" font-size="14" lengthAdjust="spacing" textLength="31.9102" x="5" y="117.5889">User</text><ellipse cx="23.9551" cy="53.0938" fill="#E2E2F0" rx="8" ry="8" style="stroke:#181818;stroke-width:0.5;"/><path d="M23.9551,61.0938 L23.9551,88.0938 M10.9551,69.0938 L36.9551,69.0938 M23.9551,88.0938 L10.9551,103.0938 M23.9551,88.0938 L36.9551,103.0938" fill="none" style="stroke:#181818;stroke-width:0.5;"/></g><g class="participant participant-tail" data-participant="user"><text fill="#000000" font-family="sans-serif" font-size="14" lengthAdjust="spacing" textLength="31.9102" x="5" y="1297.7373">User</text><ellipse cx="23.9551" cy="1309.5391" fill="#E2E2F0" rx="8" ry="8" style="stroke:#181818;stroke-width:0.5;"/><path d="M23.9551,1317.5391 L23.9551,1344.5391 M10.9551,1325.5391 L36.9551,1325.5391 M23.9551,1344.5391 L10.9551,1359.5391 M23.9551,1344.5391 L36.9551,1359.5391" fill="none" style="stroke:#181818;stroke-width:0.5;"/></g><g class="participant participant-head" data-participant="client"><rect fill="#E2E2F0" height="30.2969" rx="2.5" ry="2.5" style="stroke:#181818;stroke-width:0.5;" width="54.5303" x="172.6655" y="89.5938"/><text fill="#000000" font-family="sans-serif" font-size="14" lengthAdjust="spacing" textLength="40.5303" x="179.6655" y="109.5889">Client</text></g><g class="participant participant-tail" data-participant="client"><rect fill="#E2E2F0" height="30.2969" rx="2.5" ry="2.5" style="stroke:#181818;stroke-width:0.5;" width="54.5303" x="172.6655" y="1284.7422"/><text fill="#000000" font-family="sans-serif" font-size="14" lengthAdjust="spacing" textLength="40.5303" x="179.6655" y="1304.7373">Client</text></g><g class="participant participant-head" data-participant="gateway"><rect fill="#E2E2F0" height="46.5938" rx="2.5" ry="2.5" style="stroke:#181818;stroke-width:0.5;" width="75.8447" x="424.8516" y="73.2969"/><text fill="#000000" font-family="sans-serif" font-size="14" lengthAdjust="spacing" textLength="22.1484" x="451.6997" y="93.292">API</text><text fill="#000000" font-family="sans-serif" font-size="14" lengthAdjust="spacing" textLength="61.8447" x="431.8516" y="109.5889">Gateway</text></g><g class="participant participant-tail" data-participant="gateway"><rect fill="#E2E2F0" height="46.5938" rx="2.5" ry="2.5" style="stroke:#181818;stroke-width:0.5;" width="75.8447" x="424.8516" y="1284.7422"/><text fill="#000000" font-family="sans-serif" font-size="14" lengthAdjust="spacing" textLength="22.1484" x="451.6997" y="1304.7373">API</text><text fill="#000000" font-family="sans-serif" font-size="14" lengthAdjust="spacing" textLength="61.8447" x="431.8516" y="1321.0342">Gateway</text></g><g class="participant participant-head" data-participant="auth"><rect fill="#E2E2F0" height="46.5938" rx="2.5" ry="2.5" style="stroke:#181818;stroke-width:0.5;" width="65.7412" x="605.8789" y="73.2969"/><text fill="#000000" font-family="sans-serif" font-size="14" lengthAdjust="spacing" textLength="38.9033" x="619.2979" y="93.292">AUTH</text><text fill="#000000" font-family="sans-serif" font-size="14" lengthAdjust="spacing" textLength="51.7412" x="612.8789" y="109.5889">Service</text></g><g class="participant participant-tail" data-participant="auth"><rect fill="#E2E2F0" height="46.5938" rx="2.5" ry="2.5" style="stroke:#181818;stroke-width:0.5;" width="65.7412" x="605.8789" y="1284.7422"/><text fill="#000000" font-family="sans-serif" font-size="14" lengthAdjust="spacing" textLength="38.9033" x="619.2979" y="1304.7373">AUTH</text><text fill="#000000" font-family="sans-serif" font-size="14" lengthAdjust="spacing" textLength="51.7412" x="612.8789" y="1321.0342">Service</text></g><g class="participant participant-head" data-participant="tokenCache"><text fill="#000000" font-family="sans-serif" font-size="14" lengthAdjust="spacing" textLength="42.7109" x="858.3887" y="101.292">Token</text><text fill="#000000" font-family="sans-serif" font-size="14" lengthAdjust="spacing" textLength="43.5381" x="857.9751" y="117.5889">Cach&#233;</text><path d="M864.7441,52.2969 C864.7441,42.2969 882.7441,42.2969 882.7441,42.2969 C882.7441,42.2969 900.7441,42.2969 900.7441,52.2969 L900.7441,78.2969 C900.7441,88.2969 882.7441,88.2969 882.7441,88.2969 C882.7441,88.2969 864.7441,88.2969 864.7441,78.2969 L864.7441,52.2969" fill="#E2E2F0" style="stroke:#181818;stroke-width:1.5;"/><path d="M864.7441,52.2969 C864.7441,62.2969 882.7441,62.2969 882.7441,62.2969 C882.7441,62.2969 900.7441,62.2969 900.7441,52.2969" fill="none" style="stroke:#181818;stroke-width:1.5;"/></g><g class="participant participant-tail" data-participant="tokenCache"><text fill="#000000" font-family="sans-serif" font-size="14" lengthAdjust="spacing" textLength="42.7109" x="858.3887" y="1297.7373">Token</text><text fill="#000000" font-family="sans-serif" font-size="14" lengthAdjust="spacing" textLength="43.5381" x="857.9751" y="1314.0342">Cach&#233;</text><path d="M864.7441,1327.3359 C864.7441,1317.3359 882.7441,1317.3359 882.7441,1317.3359 C882.7441,1317.3359 900.7441,1317.3359 900.7441,1327.3359 L900.7441,1353.3359 C900.7441,1363.3359 882.7441,1363.3359 882.7441,1363.3359 C882.7441,1363.3359 864.7441,1363.3359 864.7441,1353.3359 L864.7441,1327.3359" fill="#E2E2F0" style="stroke:#181818;stroke-width:1.5;"/><path d="M864.7441,1327.3359 C864.7441,1337.3359 882.7441,1337.3359 882.7441,1337.3359 C882.7441,1337.3359 900.7441,1337.3359 900.7441,1327.3359" fill="none" style="stroke:#181818;stroke-width:1.5;"/></g><g class="participant participant-head" data-participant="userDB"><text fill="#000000" font-family="sans-serif" font-size="14" lengthAdjust="spacing" textLength="31.9102" x="917.5132" y="101.292">User</text><text fill="#000000" font-family="sans-serif" font-size="14" lengthAdjust="spacing" textLength="20.3848" x="923.2759" y="117.5889">DB</text><path d="M918.4683,52.2969 C918.4683,42.2969 936.4683,42.2969 936.4683,42.2969 C936.4683,42.2969 954.4683,42.2969 954.4683,52.2969 L954.4683,78.2969 C954.4683,88.2969 936.4683,88.2969 936.4683,88.2969 C936.4683,88.2969 918.4683,88.2969 918.4683,78.2969 L918.4683,52.2969" fill="#E2E2F0" style="stroke:#181818;stroke-width:1.5;"/><path d="M918.4683,52.2969 C918.4683,62.2969 936.4683,62.2969 936.4683,62.2969 C936.4683,62.2969 954.4683,62.2969 954.4683,52.2969" fill="none" style="stroke:#181818;stroke-width:1.5;"/></g><g class="participant participant-tail" data-participant="userDB"><text fill="#000000" font-family="sans-serif" font-size="14" lengthAdjust="spacing" textLength="31.9102" x="917.5132" y="1297.7373">User</text><text fill="#000000" font-family="sans-serif" font-size="14" lengthAdjust="spacing" textLength="20.3848" x="923.2759" y="1314.0342">DB</text><path d="M918.4683,1327.3359 C918.4683,1317.3359 936.4683,1317.3359 936.4683,1317.3359 C936.4683,1317.3359 954.4683,1317.3359 954.4683,1327.3359 L954.4683,1353.3359 C954.4683,1363.3359 936.4683,1363.3359 936.4683,1363.3359 C936.4683,1363.3359 918.4683,1363.3359 918.4683,1353.3359 L918.4683,1327.3359" fill="#E2E2F0" style="stroke:#181818;stroke-width:1.5;"/><path d="M918.4683,1327.3359 C918.4683,1337.3359 936.4683,1337.3359 936.4683,1337.3359 C936.4683,1337.3359 954.4683,1337.3359 954.4683,1327.3359" fill="none" style="stroke:#181818;stroke-width:1.5;"/></g><rect fill="#EEEEEE" height="3" style="stroke:#EEEEEE;stroke-width:1;" width="1099.2217" x="0" y="151.457"/><line style="stroke:#000000;stroke-width:1;" x1="0" x2="1099.2217" y1="151.457" y2="151.457"/><line style="stroke:#000000;stroke-width:1;" x1="0" x2="1099.2217" y1="154.457" y2="154.457"/><rect fill="#EEEEEE" height="23.1328" style="stroke:#000000;stroke-width:2;" width="107.2217" x="496" y="140.8906"/><text fill="#000000" font-family="sans-serif" font-size="13" font-weight="bold" lengthAdjust="spacing" textLength="88.6958" x="502" y="156.9575">Login Inicial</text><g class="message" data-participant-1="user" data-participant-2="client"><polygon fill="#181818" points="187.9307,206.2891,197.9307,210.2891,187.9307,214.2891,191.9307,210.2891" style="stroke:#181818;stroke-width:1;"/><line style="stroke:#181818;stroke-width:1;" x1="23.9551" x2="193.9307" y1="210.2891" y2="210.2891"/><text fill="#000000" font-family="sans-serif" font-size="13" lengthAdjust="spacing" textLength="148.3257" x="30.9551" y="190.0903">Introduce credenciales</text><text fill="#000000" font-family="sans-serif" font-size="13" lengthAdjust="spacing" textLength="151.9756" x="30.9551" y="205.2231">{username, password}</text></g><g class="message" data-participant-1="client" data-participant-2="gateway"><polygon fill="#0000FF" points="450.7739,250.5547,460.7739,254.5547,450.7739,258.5547,454.7739,254.5547" style="stroke:#0000FF;stroke-width:1;"/><line style="stroke:#0000FF;stroke-width:1;" x1="199.9307" x2="456.7739" y1="254.5547" y2="254.5547"/><text fill="#000000" font-family="sans-serif" font-size="13" lengthAdjust="spacing" textLength="74.4453" x="206.9307" y="234.356">POST /login</text><text fill="#000000" font-family="sans-serif" font-size="13" lengthAdjust="spacing" textLength="151.9756" x="206.9307" y="249.4888">{username, password}</text></g><rect fill="#EEEEEE" height="3" style="stroke:#EEEEEE;stroke-width:1;" width="1099.2217" x="0" y="283.1211"/><line style="stroke:#000000;stroke-width:1;" x1="0" x2="1099.2217" y1="283.1211" y2="283.1211"/><line style="stroke:#000000;stroke-width:1;" x1="0" x2="1099.2217" y1="286.1211" y2="286.1211"/><rect fill="#EEEEEE" height="23.1328" style="stroke:#000000;stroke-width:2;" width="214.1289" x="442.5464" y="272.5547"/><text fill="#000000" font-family="sans-serif" font-size="13" font-weight="bold" lengthAdjust="spacing" textLength="195.603" x="448.5464" y="288.6216">Validaci&#243;n de credenciales</text><g class="message" data-participant-1="gateway" data-participant-2="auth"><polygon fill="#800080" points="626.7495,337.9531,636.7495,341.9531,626.7495,345.9531,630.7495,341.9531" style="stroke:#800080;stroke-width:1;"/><line style="stroke:#800080;stroke-width:1;" x1="462.7739" x2="632.7495" y1="341.9531" y2="341.9531"/><text fill="#000000" font-family="sans-serif" font-size="13" lengthAdjust="spacing" textLength="126.5215" x="469.7739" y="321.7544">Valida credenciales</text><text fill="#000000" font-family="sans-serif" font-size="13" lengthAdjust="spacing" textLength="151.9756" x="469.7739" y="336.8872">{username, password}</text></g><g class="message" data-participant-1="auth" data-participant-2="userDB"><polygon fill="#181818" points="924.4683,382.2188,934.4683,386.2188,924.4683,390.2188,928.4683,386.2188" style="stroke:#181818;stroke-width:1;"/><line style="stroke:#181818;stroke-width:1;" x1="638.7495" x2="930.4683" y1="386.2188" y2="386.2188"/><text fill="#000000" font-family="sans-serif" font-size="13" lengthAdjust="spacing" textLength="171.2407" x="645.7495" y="366.02">Busqueda de credenciales</text><text fill="#000000" font-family="sans-serif" font-size="13" lengthAdjust="spacing" textLength="81.7642" x="645.7495" y="381.1528">{username}</text></g><g class="message" data-participant-1="userDB" data-participant-2="auth"><polygon fill="#181818" points="649.7495,426.4844,639.7495,430.4844,649.7495,434.4844,645.7495,430.4844" style="stroke:#181818;stroke-width:1;"/><line style="stroke:#181818;stroke-width:1;" x1="643.7495" x2="935.4683" y1="430.4844" y2="430.4844"/><text fill="#000000" font-family="sans-serif" font-size="13" lengthAdjust="spacing" textLength="147.4624" x="655.7495" y="410.2856">Devuelve credenciales</text><text fill="#000000" font-family="sans-serif" font-size="13" lengthAdjust="spacing" textLength="79.4727" x="655.7495" y="425.4185">{hash, salt}</text></g><g class="message" data-participant-1="auth" data-participant-2="auth"><line style="stroke:#181818;stroke-width:1;" x1="638.7495" x2="680.7495" y1="459.6172" y2="459.6172"/><line style="stroke:#181818;stroke-width:1;" x1="680.7495" x2="680.7495" y1="459.6172" y2="472.6172"/><line style="stroke:#181818;stroke-width:1;" x1="639.7495" x2="680.7495" y1="472.6172" y2="472.6172"/><polygon fill="#181818" points="649.7495,468.6172,639.7495,472.6172,649.7495,476.6172,645.7495,472.6172" style="stroke:#181818;stroke-width:1;"/><text fill="#000000" font-family="sans-serif" font-size="13" lengthAdjust="spacing" textLength="142.854" x="645.7495" y="454.5513">Compara contrase&#241;as</text></g><path d="M152.6655,487.6172 L217.1084,487.6172 L217.1084,494.75 L207.1084,504.75 L152.6655,504.75 L152.6655,487.6172" fill="#EEEEEE" style="stroke:#000000;stroke-width:1.5;"/><rect fill="none" height="781.125" style="stroke:#000000;stroke-width:1.5;" width="936.5562" x="152.6655" y="487.6172"/><text fill="#000000" font-family="sans-serif" font-size="13" font-weight="bold" lengthAdjust="spacing" textLength="19.4429" x="167.6655" y="500.6841">alt</text><text fill="#000000" font-family="sans-serif" font-size="11" font-weight="bold" lengthAdjust="spacing" textLength="149.4023" x="232.1084" y="499.8276">[Credenciales Inv&#225;lidas]</text><g class="message" data-participant-1="auth" data-participant-2="gateway"><polygon fill="#800080" points="473.7739,521.8828,463.7739,525.8828,473.7739,529.8828,469.7739,525.8828" style="stroke:#800080;stroke-width:1;"/><line style="stroke:#800080;stroke-width:1;" x1="467.7739" x2="637.7495" y1="525.8828" y2="525.8828"/><text fill="#000000" font-family="sans-serif" font-size="13" lengthAdjust="spacing" textLength="51.2827" x="479.7739" y="520.8169">Payload</text></g><path d="M467,538.8828 L467,623.8828 L590,623.8828 L590,548.8828 L580,538.8828 L467,538.8828" fill="#FEFFDD" style="stroke:#181818;stroke-width:0.5;"/><path d="M580,538.8828 L580,548.8828 L590,548.8828 L580,538.8828" fill="#FEFFDD" style="stroke:#181818;stroke-width:0.5;"/><text fill="#000000" font-family="sans-serif" font-size="13" lengthAdjust="spacing" textLength="55.6626" x="473" y="555.9497">Payload:</text><text fill="#000000" font-family="sans-serif" font-size="13" lengthAdjust="spacing" textLength="8.271" x="473" y="571.0825">{</text><text fill="#000000" font-family="sans-serif" font-size="13" lengthAdjust="spacing" textLength="94.2437" x="481.2646" y="586.2153">"status": False</text><text fill="#000000" font-family="sans-serif" font-size="13" lengthAdjust="spacing" textLength="76.6353" x="481.2646" y="601.3481">"code": 401</text><text fill="#000000" font-family="sans-serif" font-size="13" lengthAdjust="spacing" textLength="8.271" x="473" y="616.481">}</text><g class="message" data-participant-1="gateway" data-participant-2="client"><polygon fill="#0000FF" points="210.9307,646.6797,200.9307,650.6797,210.9307,654.6797,206.9307,650.6797" style="stroke:#0000FF;stroke-width:1;"/><line style="stroke:#0000FF;stroke-width:1;" x1="204.9307" x2="461.7739" y1="650.6797" y2="650.6797"/><text fill="#000000" font-family="sans-serif" font-size="13" lengthAdjust="spacing" textLength="128.7876" x="216.9307" y="645.6138">401 - No autorizado</text></g><line style="stroke:#000000;stroke-width:1;stroke-dasharray:2.0,2.0;" x1="152.6655" x2="1089.2217" y1="659.6797" y2="659.6797"/><text fill="#000000" font-family="sans-serif" font-size="11" font-weight="bold" lengthAdjust="spacing" textLength="138.8213" x="157.6655" y="669.8901">[Credenciales V&#225;lidas]</text><g class="message" data-participant-1="auth" data-participant-2="auth"><line style="stroke:#181818;stroke-width:1;" x1="638.7495" x2="680.7495" y1="709.75" y2="709.75"/><line style="stroke:#181818;stroke-width:1;" x1="680.7495" x2="680.7495" y1="709.75" y2="722.75"/><line style="stroke:#181818;stroke-width:1;" x1="639.7495" x2="680.7495" y1="722.75" y2="722.75"/><polygon fill="#181818" points="649.7495,718.75,639.7495,722.75,649.7495,726.75,645.7495,722.75" style="stroke:#181818;stroke-width:1;"/><text fill="#000000" font-family="sans-serif" font-size="13" lengthAdjust="spacing" textLength="95.3418" x="645.7495" y="689.5513">Genera tokens</text><text fill="#000000" font-family="sans-serif" font-size="13" lengthAdjust="spacing" textLength="229.9946" x="645.7495" y="704.6841">ACCESS_TOKEN y REFRESH_TOKEN</text></g><g class="message" data-participant-1="auth" data-participant-2="userDB"><polygon fill="#181818" points="924.4683,763.0156,934.4683,767.0156,924.4683,771.0156,928.4683,767.0156" style="stroke:#181818;stroke-width:1;"/><line style="stroke:#181818;stroke-width:1;" x1="638.7495" x2="930.4683" y1="767.0156" y2="767.0156"/><text fill="#000000" font-family="sans-serif" font-size="13" lengthAdjust="spacing" textLength="144.7393" x="645.7495" y="746.8169">INSERT/UPDATE token</text><text fill="#000000" font-family="sans-serif" font-size="13" lengthAdjust="spacing" textLength="127.6768" x="645.7495" y="761.9497">{REFRESH_TOKEN}</text></g><path d="M162.6655,782.0156 L227.1084,782.0156 L227.1084,789.1484 L217.1084,799.1484 L162.6655,799.1484 L162.6655,782.0156" fill="#EEEEEE" style="stroke:#000000;stroke-width:1.5;"/><rect fill="none" height="479.7266" style="stroke:#000000;stroke-width:1.5;" width="916.5562" x="162.6655" y="782.0156"/><text fill="#000000" font-family="sans-serif" font-size="13" font-weight="bold" lengthAdjust="spacing" textLength="19.4429" x="177.6655" y="795.0825">alt</text><text fill="#000000" font-family="sans-serif" font-size="11" font-weight="bold" lengthAdjust="spacing" textLength="118.6421" x="242.1084" y="794.2261">[Operaci&#243;n Fallida]</text><g class="message" data-participant-1="auth" data-participant-2="gateway"><polygon fill="#800080" points="473.7739,816.2813,463.7739,820.2813,473.7739,824.2813,469.7739,820.2813" style="stroke:#800080;stroke-width:1;"/><line style="stroke:#800080;stroke-width:1;" x1="467.7739" x2="637.7495" y1="820.2813" y2="820.2813"/><text fill="#000000" font-family="sans-serif" font-size="13" lengthAdjust="spacing" textLength="51.2827" x="479.7739" y="815.2153">Payload</text></g><path d="M467,833.2813 L467,918.2813 L590,918.2813 L590,843.2813 L580,833.2813 L467,833.2813" fill="#FEFFDD" style="stroke:#181818;stroke-width:0.5;"/><path d="M580,833.2813 L580,843.2813 L590,843.2813 L580,833.2813" fill="#FEFFDD" style="stroke:#181818;stroke-width:0.5;"/><text fill="#000000" font-family="sans-serif" font-size="13" lengthAdjust="spacing" textLength="55.6626" x="473" y="850.3481">Payload:</text><text fill="#000000" font-family="sans-serif" font-size="13" lengthAdjust="spacing" textLength="8.271" x="473" y="865.481">{</text><text fill="#000000" font-family="sans-serif" font-size="13" lengthAdjust="spacing" textLength="94.2437" x="481.2646" y="880.6138">"status": False</text><text fill="#000000" font-family="sans-serif" font-size="13" lengthAdjust="spacing" textLength="76.6353" x="481.2646" y="895.7466">"code": 500</text><text fill="#000000" font-family="sans-serif" font-size="13" lengthAdjust="spacing" textLength="8.271" x="473" y="910.8794">}</text><g class="message" data-participant-1="gateway" data-participant-2="client"><polygon fill="#0000FF" points="210.9307,941.0781,200.9307,945.0781,210.9307,949.0781,206.9307,945.0781" style="stroke:#0000FF;stroke-width:1;"/><line style="stroke:#0000FF;stroke-width:1;" x1="204.9307" x2="461.7739" y1="945.0781" y2="945.0781"/><text fill="#000000" font-family="sans-serif" font-size="13" lengthAdjust="spacing" textLength="116.7334" x="216.9307" y="940.0122">500 - Server Error</text></g><line style="stroke:#000000;stroke-width:1;stroke-dasharray:2.0,2.0;" x1="162.6655" x2="1079.2217" y1="954.0781" y2="954.0781"/><text fill="#000000" font-family="sans-serif" font-size="11" font-weight="bold" lengthAdjust="spacing" textLength="122.2622" x="167.6655" y="964.2886">[Operaci&#243;n Exitosa]</text><g class="message" data-participant-1="auth" data-participant-2="tokenCache"><polygon fill="#181818" points="870.7441,1000.1484,880.7441,1004.1484,870.7441,1008.1484,874.7441,1004.1484" style="stroke:#181818;stroke-width:1;"/><line style="stroke:#181818;stroke-width:1;" x1="638.7495" x2="876.7441" y1="1004.1484" y2="1004.1484"/><text fill="#000000" font-family="sans-serif" font-size="13" lengthAdjust="spacing" textLength="65.3555" x="645.7495" y="983.9497">SET token</text><text fill="#000000" font-family="sans-serif" font-size="13" lengthAdjust="spacing" textLength="127.6768" x="645.7495" y="999.0825">{REFRESH_TOKEN}</text></g><path d="M643,1017.1484 L643,1087.1484 L1069,1087.1484 L1069,1027.1484 L1059,1017.1484 L643,1017.1484" fill="#FEFFDD" style="stroke:#181818;stroke-width:0.5;"/><path d="M1059,1017.1484 L1059,1027.1484 L1069,1027.1484 L1059,1017.1484" fill="#FEFFDD" style="stroke:#181818;stroke-width:0.5;"/><text fill="#000000" font-family="sans-serif" font-size="13" lengthAdjust="spacing" textLength="405.2217" x="649" y="1034.2153">Se a&#241;ade a una base de datos redis. Esto permite que cuando</text><text fill="#000000" font-family="sans-serif" font-size="13" lengthAdjust="spacing" textLength="323.8257" x="649" y="1049.3481">el usuario use REFRESH_TOKEN para generear un</text><text fill="#000000" font-family="sans-serif" font-size="13" lengthAdjust="spacing" textLength="365.4155" x="649" y="1064.481">nuevo ACCESS_TOKEN, el sistema acceda m&#225;s r&#225;pido al</text><text fill="#000000" font-family="sans-serif" font-size="13" lengthAdjust="spacing" textLength="199.1641" x="649" y="1079.6138">REFRESH_TOKEN almacenado.</text><g class="message" data-participant-1="auth" data-participant-2="gateway"><polygon fill="#800080" points="473.7739,1109.8125,463.7739,1113.8125,473.7739,1117.8125,469.7739,1113.8125" style="stroke:#800080;stroke-width:1;"/><line style="stroke:#800080;stroke-width:1;" x1="467.7739" x2="637.7495" y1="1113.8125" y2="1113.8125"/><text fill="#000000" font-family="sans-serif" font-size="13" lengthAdjust="spacing" textLength="51.2827" x="479.7739" y="1108.7466">Payload</text></g><path d="M467,1126.8125 L467,1211.8125 L586,1211.8125 L586,1136.8125 L576,1126.8125 L467,1126.8125" fill="#FEFFDD" style="stroke:#181818;stroke-width:0.5;"/><path d="M576,1126.8125 L576,1136.8125 L586,1136.8125 L576,1126.8125" fill="#FEFFDD" style="stroke:#181818;stroke-width:0.5;"/><text fill="#000000" font-family="sans-serif" font-size="13" lengthAdjust="spacing" textLength="55.6626" x="473" y="1143.8794">Payload:</text><text fill="#000000" font-family="sans-serif" font-size="13" lengthAdjust="spacing" textLength="8.271" x="473" y="1159.0122">{</text><text fill="#000000" font-family="sans-serif" font-size="13" lengthAdjust="spacing" textLength="89.9399" x="481.2646" y="1174.145">"status": True</text><text fill="#000000" font-family="sans-serif" font-size="13" lengthAdjust="spacing" textLength="76.6353" x="481.2646" y="1189.2778">"code": 200</text><text fill="#000000" font-family="sans-serif" font-size="13" lengthAdjust="spacing" textLength="8.271" x="473" y="1204.4106">}</text><g class="message" data-participant-1="gateway" data-participant-2="client"><polygon fill="#0000FF" points="210.9307,1249.7422,200.9307,1253.7422,210.9307,1257.7422,206.9307,1253.7422" style="stroke:#0000FF;stroke-width:1;"/><line style="stroke:#0000FF;stroke-width:1;" x1="204.9307" x2="461.7739" y1="1253.7422" y2="1253.7422"/><text fill="#000000" font-family="sans-serif" font-size="13" lengthAdjust="spacing" textLength="47.7026" x="216.9307" y="1233.5435">200 OK</text><text fill="#000000" font-family="sans-serif" font-size="13" lengthAdjust="spacing" textLength="238.8433" x="216.9307" y="1248.6763">{ACCESS_TOKEN, REFRESH_TOKEN}</text></g><!--SRC=[jLJDJXin4BxxAKRfbG2jsaiaa21P8A8YY0rScgeQTaU9MyTERMyeHNaOZZrMVOIyMCVs1hBGj3sqKR9Ps_FtVVDvlFIAe7Magey6IW9bnbA7bqjNePMc9OJ0mXlB6sG17LJyBsPelIpa3BM7LbT9qhuL3elusZm-EE-Fz35wki7RQ3HExq-iBeSd8vsJdSk2eXbMVY94YHwlqN6DG_E9z4XtiPWilqKB7tR2cjRCGfqZtJjihOhj7GgnjmTl8xA-veoeO6zFY73OtaybT_Z4MrDM1K5XgIGTpCYDz5qmqpYbBPYXSpV6bWkHdDhlNbohYjxlruWwS3x8Xx0JITpW6MkvGYLBBEJoH-HwFM6ih8x7yMULdIdE4CZer7v_Ks2mR-yd-1quhDpdYjYpt8Xk8P9nkqxLetb5QlxCVe9kiWKEbLybIVPTC-L-Scs6UUH6BB-ZO-ae3zrrT7qzNzu744v0xF0QnaSMyLOPBDc2lzfu0Yl74_yW7E1FRTE9Yxlu16WvZxvohGuSeNAqsYrCIRptUlTbt5dmatGP8wSSZtodVguqmHxGXZCJAZLMViNI244SkGdgwWcacf9ZqiICH9KoTGVTRfRd7uQ3q-mCRk4YExh8yfEqJcKqczO_oxEBuSxbUUzWcAKep7_3RL7xCSk36UTAYcBiePo8zSyKnmZ_akOtkxiFD3U8hZDj8flzcEmm0NZGPDOQcz15ljVWPL-aDmv57IwHzZWAEf1dmyrqFOSRvqo2a1CW2vTl2KAb4U94uHLF5-E0MoxTDcJE6-1off93yBM2eaBDmaWXIF7GYQCp39zcbo7Ua76G1Q7b3BMFhcXkO5qVMo6EayxJ506B8jpTwVAUQrZUpsJ9WbIrRpC1gYaMf5cdsmtseS7M_zF3q5PFvV1gann-AmRsWi4fDx39og_Kpo45_tu2]--></g></svg>