<svg xmlns="http://www.w3.org/2000/svg" xmlns:xlink="http://www.w3.org/1999/xlink" contentStyleType="text/css" data-diagram-type="SEQUENCE" height="923px" preserveAspectRatio="none" style="width:739px;height:923px;background:#FFFFFF;" version="1.1" viewBox="0 0 739 923" width="739px" zoomAndPan="magnify"><title>Flujo de cierre de sesi&#243;n de Usuario</title><defs/><g><text fill="#000000" font-family="sans-serif" font-size="14" font-weight="bold" lengthAdjust="spacing" textLength="283.418" x="222.2068" y="27.9951">Flujo de cierre de sesi&#243;n de Usuario</text><rect fill="none" height="381.9297" style="stroke:#000000;stroke-width:1.5;" width="393.2075" x="149.1387" y="430.3516"/><g><title>User</title><rect fill="#000000" fill-opacity="0.00000" height="708.3906" width="8" x="19.9551" y="120.8906"/><line style="stroke:#181818;stroke-width:0.5;stroke-dasharray:5.0,5.0;" x1="23" x2="23" y1="120.8906" y2="829.2813"/></g><g><title>Client</title><rect fill="#000000" fill-opacity="0.00000" height="708.3906" width="8" x="182.4038" y="120.8906"/><line style="stroke:#181818;stroke-width:0.5;stroke-dasharray:5.0,5.0;" x1="186.1387" x2="186.1387" y1="120.8906" y2="829.2813"/></g><g><title>API</title><rect fill="#000000" fill-opacity="0.00000" height="708.3906" width="8" x="334.0806" y="120.8906"/><line style="stroke:#181818;stroke-width:0.5;stroke-dasharray:5.0,5.0;" x1="337.1582" x2="337.1582" y1="120.8906" y2="829.2813"/></g><g><title>AUTH</title><rect fill="#000000" fill-opacity="0.00000" height="708.3906" width="8" x="495.4756" y="120.8906"/><line style="stroke:#181818;stroke-width:0.5;stroke-dasharray:5.0,5.0;" x1="498.605" x2="498.605" y1="120.8906" y2="829.2813"/></g><g><title>Token</title><rect fill="#000000" fill-opacity="0.00000" height="708.3906" width="8" x="647.1523" y="120.8906"/><line style="stroke:#181818;stroke-width:0.5;stroke-dasharray:5.0,5.0;" x1="650.3833" x2="650.3833" y1="120.8906" y2="829.2813"/></g><g><title>User</title><rect fill="#000000" fill-opacity="0.00000" height="708.3906" width="8" x="700.8765" y="120.8906"/><line style="stroke:#181818;stroke-width:0.5;stroke-dasharray:5.0,5.0;" x1="703.9214" x2="703.9214" y1="120.8906" y2="829.2813"/></g><g class="participant participant-head" data-participant="user"><text fill="#000000" font-family="sans-serif" font-size="14" lengthAdjust="spacing" textLength="31.9102" x="5" y="117.5889">User</text><ellipse cx="23.9551" cy="53.0938" fill="#E2E2F0" rx="8" ry="8" style="stroke:#181818;stroke-width:0.5;"/><path d="M23.9551,61.0938 L23.9551,88.0938 M10.9551,69.0938 L36.9551,69.0938 M23.9551,88.0938 L10.9551,103.0938 M23.9551,88.0938 L36.9551,103.0938" fill="none" style="stroke:#181818;stroke-width:0.5;"/></g><g class="participant participant-tail" data-participant="user"><text fill="#000000" font-family="sans-serif" font-size="14" lengthAdjust="spacing" textLength="31.9102" x="5" y="841.2764">User</text><ellipse cx="23.9551" cy="853.0781" fill="#E2E2F0" rx="8" ry="8" style="stroke:#181818;stroke-width:0.5;"/><path d="M23.9551,861.0781 L23.9551,888.0781 M10.9551,869.0781 L36.9551,869.0781 M23.9551,888.0781 L10.9551,903.0781 M23.9551,888.0781 L36.9551,903.0781" fill="none" style="stroke:#181818;stroke-width:0.5;"/></g><g class="participant participant-head" data-participant="client"><rect fill="#E2E2F0" height="30.2969" rx="2.5" ry="2.5" style="stroke:#181818;stroke-width:0.5;" width="54.5303" x="159.1387" y="89.5938"/><text fill="#000000" font-family="sans-serif" font-size="14" lengthAdjust="spacing" textLength="40.5303" x="166.1387" y="109.5889">Client</text></g><g class="participant participant-tail" data-participant="client"><rect fill="#E2E2F0" height="30.2969" rx="2.5" ry="2.5" style="stroke:#181818;stroke-width:0.5;" width="54.5303" x="159.1387" y="828.2813"/><text fill="#000000" font-family="sans-serif" font-size="14" lengthAdjust="spacing" textLength="40.5303" x="166.1387" y="848.2764">Client</text></g><g class="participant participant-head" data-participant="gateway"><rect fill="#E2E2F0" height="46.5938" rx="2.5" ry="2.5" style="stroke:#181818;stroke-width:0.5;" width="75.8447" x="300.1582" y="73.2969"/><text fill="#000000" font-family="sans-serif" font-size="14" lengthAdjust="spacing" textLength="22.1484" x="327.0063" y="93.292">API</text><text fill="#000000" font-family="sans-serif" font-size="14" lengthAdjust="spacing" textLength="61.8447" x="307.1582" y="109.5889">Gateway</text></g><g class="participant participant-tail" data-participant="gateway"><rect fill="#E2E2F0" height="46.5938" rx="2.5" ry="2.5" style="stroke:#181818;stroke-width:0.5;" width="75.8447" x="300.1582" y="828.2813"/><text fill="#000000" font-family="sans-serif" font-size="14" lengthAdjust="spacing" textLength="22.1484" x="327.0063" y="848.2764">API</text><text fill="#000000" font-family="sans-serif" font-size="14" lengthAdjust="spacing" textLength="61.8447" x="307.1582" y="864.5732">Gateway</text></g><g class="participant participant-head" data-participant="auth"><rect fill="#E2E2F0" height="46.5938" rx="2.5" ry="2.5" style="stroke:#181818;stroke-width:0.5;" width="65.7412" x="466.605" y="73.2969"/><text fill="#000000" font-family="sans-serif" font-size="14" lengthAdjust="spacing" textLength="38.9033" x="480.0239" y="93.292">AUTH</text><text fill="#000000" font-family="sans-serif" font-size="14" lengthAdjust="spacing" textLength="51.7412" x="473.605" y="109.5889">Service</text></g><g class="participant participant-tail" data-participant="auth"><rect fill="#E2E2F0" height="46.5938" rx="2.5" ry="2.5" style="stroke:#181818;stroke-width:0.5;" width="65.7412" x="466.605" y="828.2813"/><text fill="#000000" font-family="sans-serif" font-size="14" lengthAdjust="spacing" textLength="38.9033" x="480.0239" y="848.2764">AUTH</text><text fill="#000000" font-family="sans-serif" font-size="14" lengthAdjust="spacing" textLength="51.7412" x="473.605" y="864.5732">Service</text></g><g class="participant participant-head" data-participant="tokenCache"><text fill="#000000" font-family="sans-serif" font-size="14" lengthAdjust="spacing" textLength="42.7109" x="626.7969" y="101.292">Token</text><text fill="#000000" font-family="sans-serif" font-size="14" lengthAdjust="spacing" textLength="43.5381" x="626.3833" y="117.5889">Cach&#233;</text><path d="M633.1523,52.2969 C633.1523,42.2969 651.1523,42.2969 651.1523,42.2969 C651.1523,42.2969 669.1523,42.2969 669.1523,52.2969 L669.1523,78.2969 C669.1523,88.2969 651.1523,88.2969 651.1523,88.2969 C651.1523,88.2969 633.1523,88.2969 633.1523,78.2969 L633.1523,52.2969" fill="#E2E2F0" style="stroke:#181818;stroke-width:1.5;"/><path d="M633.1523,52.2969 C633.1523,62.2969 651.1523,62.2969 651.1523,62.2969 C651.1523,62.2969 669.1523,62.2969 669.1523,52.2969" fill="none" style="stroke:#181818;stroke-width:1.5;"/></g><g class="participant participant-tail" data-participant="tokenCache"><text fill="#000000" font-family="sans-serif" font-size="14" lengthAdjust="spacing" textLength="42.7109" x="626.7969" y="841.2764">Token</text><text fill="#000000" font-family="sans-serif" font-size="14" lengthAdjust="spacing" textLength="43.5381" x="626.3833" y="857.5732">Cach&#233;</text><path d="M633.1523,870.875 C633.1523,860.875 651.1523,860.875 651.1523,860.875 C651.1523,860.875 669.1523,860.875 669.1523,870.875 L669.1523,896.875 C669.1523,906.875 651.1523,906.875 651.1523,906.875 C651.1523,906.875 633.1523,906.875 633.1523,896.875 L633.1523,870.875" fill="#E2E2F0" style="stroke:#181818;stroke-width:1.5;"/><path d="M633.1523,870.875 C633.1523,880.875 651.1523,880.875 651.1523,880.875 C651.1523,880.875 669.1523,880.875 669.1523,870.875" fill="none" style="stroke:#181818;stroke-width:1.5;"/></g><g class="participant participant-head" data-participant="userDB"><text fill="#000000" font-family="sans-serif" font-size="14" lengthAdjust="spacing" textLength="31.9102" x="685.9214" y="101.292">User</text><text fill="#000000" font-family="sans-serif" font-size="14" lengthAdjust="spacing" textLength="20.3848" x="691.6841" y="117.5889">DB</text><path d="M686.8765,52.2969 C686.8765,42.2969 704.8765,42.2969 704.8765,42.2969 C704.8765,42.2969 722.8765,42.2969 722.8765,52.2969 L722.8765,78.2969 C722.8765,88.2969 704.8765,88.2969 704.8765,88.2969 C704.8765,88.2969 686.8765,88.2969 686.8765,78.2969 L686.8765,52.2969" fill="#E2E2F0" style="stroke:#181818;stroke-width:1.5;"/><path d="M686.8765,52.2969 C686.8765,62.2969 704.8765,62.2969 704.8765,62.2969 C704.8765,62.2969 722.8765,62.2969 722.8765,52.2969" fill="none" style="stroke:#181818;stroke-width:1.5;"/></g><g class="participant participant-tail" data-participant="userDB"><text fill="#000000" font-family="sans-serif" font-size="14" lengthAdjust="spacing" textLength="31.9102" x="685.9214" y="841.2764">User</text><text fill="#000000" font-family="sans-serif" font-size="14" lengthAdjust="spacing" textLength="20.3848" x="691.6841" y="857.5732">DB</text><path d="M686.8765,870.875 C686.8765,860.875 704.8765,860.875 704.8765,860.875 C704.8765,860.875 722.8765,860.875 722.8765,870.875 L722.8765,896.875 C722.8765,906.875 704.8765,906.875 704.8765,906.875 C704.8765,906.875 686.8765,906.875 686.8765,896.875 L686.8765,870.875" fill="#E2E2F0" style="stroke:#181818;stroke-width:1.5;"/><path d="M686.8765,870.875 C686.8765,880.875 704.8765,880.875 704.8765,880.875 C704.8765,880.875 722.8765,880.875 722.8765,870.875" fill="none" style="stroke:#181818;stroke-width:1.5;"/></g><rect fill="#EEEEEE" height="3" style="stroke:#EEEEEE;stroke-width:1;" width="728.8315" x="0" y="151.457"/><line style="stroke:#000000;stroke-width:1;" x1="0" x2="728.8315" y1="151.457" y2="151.457"/><line style="stroke:#000000;stroke-width:1;" x1="0" x2="728.8315" y1="154.457" y2="154.457"/><rect fill="#EEEEEE" height="23.1328" style="stroke:#000000;stroke-width:2;" width="183.5205" x="272.6555" y="140.8906"/><text fill="#000000" font-family="sans-serif" font-size="13" font-weight="bold" lengthAdjust="spacing" textLength="164.9946" x="278.6555" y="156.9575">Usuario solicita logout</text><g class="message" data-participant-1="user" data-participant-2="client"><polygon fill="#181818" points="174.4038,191.1563,184.4038,195.1563,174.4038,199.1563,178.4038,195.1563" style="stroke:#181818;stroke-width:1;"/><line style="stroke:#181818;stroke-width:1;" x1="23.9551" x2="180.4038" y1="195.1563" y2="195.1563"/><text fill="#000000" font-family="sans-serif" font-size="13" lengthAdjust="spacing" textLength="138.4487" x="30.9551" y="190.0903">Notifica cerrar sesi&#243;n</text></g><g class="message" data-participant-1="client" data-participant-2="gateway"><polygon fill="#0000FF" points="326.0806,235.4219,336.0806,239.4219,326.0806,243.4219,330.0806,239.4219" style="stroke:#0000FF;stroke-width:1;"/><line style="stroke:#0000FF;stroke-width:1;" x1="186.4038" x2="332.0806" y1="239.4219" y2="239.4219"/><text fill="#000000" font-family="sans-serif" font-size="13" lengthAdjust="spacing" textLength="83.8843" x="193.4038" y="219.2231">POST /logout</text><text fill="#000000" font-family="sans-serif" font-size="13" lengthAdjust="spacing" textLength="127.6768" x="193.4038" y="234.356">{REFRESH_TOKEN}</text></g><rect fill="#EEEEEE" height="3" style="stroke:#EEEEEE;stroke-width:1;" width="728.8315" x="0" y="267.9883"/><line style="stroke:#000000;stroke-width:1;" x1="0" x2="728.8315" y1="267.9883" y2="267.9883"/><line style="stroke:#000000;stroke-width:1;" x1="0" x2="728.8315" y1="270.9883" y2="270.9883"/><rect fill="#EEEEEE" height="23.1328" style="stroke:#000000;stroke-width:2;" width="180.8735" x="273.979" y="257.4219"/><text fill="#000000" font-family="sans-serif" font-size="13" font-weight="bold" lengthAdjust="spacing" textLength="162.3477" x="279.979" y="273.4888">Inval&#237;da refresh token</text><g class="message" data-participant-1="gateway" data-participant-2="auth"><polygon fill="#800080" points="487.4756,322.8203,497.4756,326.8203,487.4756,330.8203,491.4756,326.8203" style="stroke:#800080;stroke-width:1;"/><line style="stroke:#800080;stroke-width:1;" x1="338.0806" x2="493.4756" y1="326.8203" y2="326.8203"/><text fill="#000000" font-family="sans-serif" font-size="13" lengthAdjust="spacing" textLength="137.395" x="345.0806" y="306.6216">Invalida credenciales</text><text fill="#000000" font-family="sans-serif" font-size="13" lengthAdjust="spacing" textLength="127.6768" x="345.0806" y="321.7544">{REFRESH_TOKEN}</text></g><g class="message" data-participant-1="auth" data-participant-2="tokenCache"><polygon fill="#181818" points="639.1523,367.0859,649.1523,371.0859,639.1523,375.0859,643.1523,371.0859" style="stroke:#181818;stroke-width:1;"/><line style="stroke:#181818;stroke-width:1;" x1="499.4756" x2="645.1523" y1="371.0859" y2="371.0859"/><text fill="#000000" font-family="sans-serif" font-size="13" lengthAdjust="spacing" textLength="66.4155" x="506.4756" y="350.8872">DEL token</text><text fill="#000000" font-family="sans-serif" font-size="13" lengthAdjust="spacing" textLength="127.6768" x="506.4756" y="366.02">{REFRESH_TOKEN}</text></g><g class="message" data-participant-1="auth" data-participant-2="userDB"><polygon fill="#181818" points="692.8765,411.3516,702.8765,415.3516,692.8765,419.3516,696.8765,415.3516" style="stroke:#181818;stroke-width:1;"/><line style="stroke:#181818;stroke-width:1;" x1="499.4756" x2="698.8765" y1="415.3516" y2="415.3516"/><text fill="#000000" font-family="sans-serif" font-size="13" lengthAdjust="spacing" textLength="90.7842" x="506.4756" y="395.1528">DELETE token</text><text fill="#000000" font-family="sans-serif" font-size="13" lengthAdjust="spacing" textLength="127.6768" x="506.4756" y="410.2856">{REFRESH_TOKEN}</text></g><path d="M149.1387,430.3516 L213.5815,430.3516 L213.5815,437.4844 L203.5815,447.4844 L149.1387,447.4844 L149.1387,430.3516" fill="#EEEEEE" style="stroke:#000000;stroke-width:1.5;"/><rect fill="none" height="381.9297" style="stroke:#000000;stroke-width:1.5;" width="393.2075" x="149.1387" y="430.3516"/><text fill="#000000" font-family="sans-serif" font-size="13" font-weight="bold" lengthAdjust="spacing" textLength="19.4429" x="164.1387" y="443.4185">alt</text><text fill="#000000" font-family="sans-serif" font-size="11" font-weight="bold" lengthAdjust="spacing" textLength="118.6421" x="228.5815" y="442.562">[Operaci&#243;n Fallida]</text><g class="message" data-participant-1="auth" data-participant-2="gateway"><polygon fill="#800080" points="349.0806,464.6172,339.0806,468.6172,349.0806,472.6172,345.0806,468.6172" style="stroke:#800080;stroke-width:1;"/><line style="stroke:#800080;stroke-width:1;" x1="343.0806" x2="498.4756" y1="468.6172" y2="468.6172"/><text fill="#000000" font-family="sans-serif" font-size="13" lengthAdjust="spacing" textLength="51.2827" x="355.0806" y="463.5513">Payload</text></g><path d="M343,481.6172 L343,566.6172 L466,566.6172 L466,491.6172 L456,481.6172 L343,481.6172" fill="#FEFFDD" style="stroke:#181818;stroke-width:0.5;"/><path d="M456,481.6172 L456,491.6172 L466,491.6172 L456,481.6172" fill="#FEFFDD" style="stroke:#181818;stroke-width:0.5;"/><text fill="#000000" font-family="sans-serif" font-size="13" lengthAdjust="spacing" textLength="55.6626" x="349" y="498.6841">Payload:</text><text fill="#000000" font-family="sans-serif" font-size="13" lengthAdjust="spacing" textLength="8.271" x="349" y="513.8169">{</text><text fill="#000000" font-family="sans-serif" font-size="13" lengthAdjust="spacing" textLength="94.2437" x="357.2646" y="528.9497">"status": False</text><text fill="#000000" font-family="sans-serif" font-size="13" lengthAdjust="spacing" textLength="76.6353" x="357.2646" y="544.0825">"code": 500</text><text fill="#000000" font-family="sans-serif" font-size="13" lengthAdjust="spacing" textLength="8.271" x="349" y="559.2153">}</text><g class="message" data-participant-1="gateway" data-participant-2="client"><polygon fill="#0000FF" points="197.4038,589.4141,187.4038,593.4141,197.4038,597.4141,193.4038,593.4141" style="stroke:#0000FF;stroke-width:1;"/><line style="stroke:#0000FF;stroke-width:1;" x1="191.4038" x2="337.0806" y1="593.4141" y2="593.4141"/><text fill="#000000" font-family="sans-serif" font-size="13" lengthAdjust="spacing" textLength="116.7334" x="203.4038" y="588.3481">500 - Server Error</text></g><line style="stroke:#000000;stroke-width:1;stroke-dasharray:2.0,2.0;" x1="149.1387" x2="542.3462" y1="602.4141" y2="602.4141"/><text fill="#000000" font-family="sans-serif" font-size="11" font-weight="bold" lengthAdjust="spacing" textLength="122.2622" x="154.1387" y="612.6245">[Operaci&#243;n Exitosa]</text><g class="message" data-participant-1="auth" data-participant-2="gateway"><polygon fill="#800080" points="349.0806,633.3516,339.0806,637.3516,349.0806,641.3516,345.0806,637.3516" style="stroke:#800080;stroke-width:1;"/><line style="stroke:#800080;stroke-width:1;" x1="343.0806" x2="498.4756" y1="637.3516" y2="637.3516"/><text fill="#000000" font-family="sans-serif" font-size="13" lengthAdjust="spacing" textLength="51.2827" x="355.0806" y="632.2856">Payload</text></g><path d="M343,650.3516 L343,735.3516 L462,735.3516 L462,660.3516 L452,650.3516 L343,650.3516" fill="#FEFFDD" style="stroke:#181818;stroke-width:0.5;"/><path d="M452,650.3516 L452,660.3516 L462,660.3516 L452,650.3516" fill="#FEFFDD" style="stroke:#181818;stroke-width:0.5;"/><text fill="#000000" font-family="sans-serif" font-size="13" lengthAdjust="spacing" textLength="55.6626" x="349" y="667.4185">Payload:</text><text fill="#000000" font-family="sans-serif" font-size="13" lengthAdjust="spacing" textLength="8.271" x="349" y="682.5513">{</text><text fill="#000000" font-family="sans-serif" font-size="13" lengthAdjust="spacing" textLength="89.9399" x="357.2646" y="697.6841">"status": True</text><text fill="#000000" font-family="sans-serif" font-size="13" lengthAdjust="spacing" textLength="76.6353" x="357.2646" y="712.8169">"code": 200</text><text fill="#000000" font-family="sans-serif" font-size="13" lengthAdjust="spacing" textLength="8.271" x="349" y="727.9497">}</text><g class="message" data-participant-1="gateway" data-participant-2="client"><polygon fill="#0000FF" points="197.4038,758.1484,187.4038,762.1484,197.4038,766.1484,193.4038,762.1484" style="stroke:#0000FF;stroke-width:1;"/><line style="stroke:#0000FF;stroke-width:1;" x1="191.4038" x2="337.0806" y1="762.1484" y2="762.1484"/><text fill="#000000" font-family="sans-serif" font-size="13" lengthAdjust="spacing" textLength="47.7026" x="203.4038" y="757.0825">200 OK</text></g><g class="message" data-participant-1="client" data-participant-2="client"><line style="stroke:#181818;stroke-width:1;" x1="186.4038" x2="228.4038" y1="791.2813" y2="791.2813"/><line style="stroke:#181818;stroke-width:1;" x1="228.4038" x2="228.4038" y1="791.2813" y2="804.2813"/><line style="stroke:#181818;stroke-width:1;" x1="187.4038" x2="228.4038" y1="804.2813" y2="804.2813"/><polygon fill="#181818" points="197.4038,800.2813,187.4038,804.2813,197.4038,808.2813,193.4038,804.2813" style="stroke:#181818;stroke-width:1;"/><text fill="#000000" font-family="sans-serif" font-size="13" lengthAdjust="spacing" textLength="96.4146" x="193.4038" y="786.2153">Limpiar tokens</text></g><!--SRC=[jLB1JXin4BtxAqRRSrHKgPUL4gcGJK4WWiXowbRLu1qIWx5NjfSM8JweXvxw2VcnZkqiIQdI6r7a7S-yUPutCq45JL3CT7zheIMGYfoZQ7doQltRHFFAz-YKBOGGA8Drx207wA7dh-ZG1ILLXoP0SQGLcL34e4pct-5F5oUD-Oo1lkDZ0Ysp_GfrLHytPa7kGKbACEp3IeWM0rwZvtfhUqUcCKSeL-kV2H6Y9zvf1nRhRCpqi1YAdHwoXl5uK0JUQdur86Yxj7s0yLY8Y1jDSlKbdDkWRfH4aDmOT4DRH8wFlhoxrZrzdMnqb70nNzJmFjCrvkcocbrMY-DlzVoqEd_EZv-O1zJhNos2enj7VfMBJuzlU9YtwrsdcJbABtEEuXJfg2KZ5Mho__97y6YoxKK9q-eiq-y3vxOaO5LN-x02TO1vHmvbseePwbYEW3IQdNAtZS17RR5b1F-D3GHEBLVXPUB0lmscJ9UdT08KFc3eVL76HpmDNcbROj_7WuFaUKudcJPnfmiVs_RbiGnJv2mOGTmeNjpAEUk482RVbLJzKC7wDvPKk_wreW_x5Fr73-V0_9G1cpLy2Pof-qxncgOnUi5iVm00]--></g></svg>