<svg xmlns="http://www.w3.org/2000/svg" xmlns:xlink="http://www.w3.org/1999/xlink" contentStyleType="text/css" data-diagram-type="SEQUENCE" height="1007px" preserveAspectRatio="none" style="width:739px;height:1007px;background:#FFFFFF;" version="1.1" viewBox="0 0 739 1007" width="739px" zoomAndPan="magnify"><title>Flujo de cierre de sesi&#243;n de Usuario</title><defs/><g><text fill="#000000" font-family="sans-serif" font-size="14" font-weight="bold" lengthAdjust="spacing" textLength="283.418" x="222.2068" y="27.9951">Flujo de cierre de sesi&#243;n de Usuario</text><rect fill="none" height="381.9297" style="stroke:#000000;stroke-width:1.5;" width="393.2075" x="149.1387" y="514.2422"/><g><title>User</title><rect fill="#000000" fill-opacity="0.00000" height="708.3906" width="8" x="19.9551" y="204.7813"/><line style="stroke:#181818;stroke-width:0.5;stroke-dasharray:5.0,5.0;" x1="23" x2="23" y1="204.7813" y2="913.1719"/></g><g><title>Client</title><rect fill="#000000" fill-opacity="0.00000" height="708.3906" width="8" x="182.4038" y="204.7813"/><line style="stroke:#181818;stroke-width:0.5;stroke-dasharray:5.0,5.0;" x1="186.1387" x2="186.1387" y1="204.7813" y2="913.1719"/></g><g><title>API</title><rect fill="#000000" fill-opacity="0.00000" height="708.3906" width="8" x="334.0806" y="204.7813"/><line style="stroke:#181818;stroke-width:0.5;stroke-dasharray:5.0,5.0;" x1="337.1582" x2="337.1582" y1="204.7813" y2="913.1719"/></g><g><title>AUTH</title><rect fill="#000000" fill-opacity="0.00000" height="708.3906" width="8" x="495.4756" y="204.7813"/><line style="stroke:#181818;stroke-width:0.5;stroke-dasharray:5.0,5.0;" x1="498.605" x2="498.605" y1="204.7813" y2="913.1719"/></g><g><title>Token</title><rect fill="#000000" fill-opacity="0.00000" height="708.3906" width="8" x="647.1523" y="204.7813"/><line style="stroke:#181818;stroke-width:0.5;stroke-dasharray:5.0,5.0;" x1="650.3833" x2="650.3833" y1="204.7813" y2="913.1719"/></g><g><title>User</title><rect fill="#000000" fill-opacity="0.00000" height="708.3906" width="8" x="700.8765" y="204.7813"/><line style="stroke:#181818;stroke-width:0.5;stroke-dasharray:5.0,5.0;" x1="703.9214" x2="703.9214" y1="204.7813" y2="913.1719"/></g><g class="participant participant-head" data-participant="user"><text fill="#000000" font-family="sans-serif" font-size="14" lengthAdjust="spacing" textLength="31.9102" x="5" y="201.4795">User</text><ellipse cx="23.9551" cy="136.9844" fill="#E2E2F0" rx="8" ry="8" style="stroke:#181818;stroke-width:0.5;"/><path d="M23.9551,144.9844 L23.9551,171.9844 M10.9551,152.9844 L36.9551,152.9844 M23.9551,171.9844 L10.9551,186.9844 M23.9551,171.9844 L36.9551,186.9844" fill="none" style="stroke:#181818;stroke-width:0.5;"/></g><g class="participant participant-tail" data-participant="user"><text fill="#000000" font-family="sans-serif" font-size="14" lengthAdjust="spacing" textLength="31.9102" x="5" y="925.167">User</text><ellipse cx="23.9551" cy="936.9688" fill="#E2E2F0" rx="8" ry="8" style="stroke:#181818;stroke-width:0.5;"/><path d="M23.9551,944.9688 L23.9551,971.9688 M10.9551,952.9688 L36.9551,952.9688 M23.9551,971.9688 L10.9551,986.9688 M23.9551,971.9688 L36.9551,986.9688" fill="none" style="stroke:#181818;stroke-width:0.5;"/></g><g class="participant participant-head" data-participant="client"><rect fill="#E2E2F0" height="30.2969" rx="2.5" ry="2.5" style="stroke:#181818;stroke-width:0.5;" width="54.5303" x="159.1387" y="173.4844"/><text fill="#000000" font-family="sans-serif" font-size="14" lengthAdjust="spacing" textLength="40.5303" x="166.1387" y="193.4795">Client</text></g><g class="participant participant-tail" data-participant="client"><rect fill="#E2E2F0" height="30.2969" rx="2.5" ry="2.5" style="stroke:#181818;stroke-width:0.5;" width="54.5303" x="159.1387" y="912.1719"/><text fill="#000000" font-family="sans-serif" font-size="14" lengthAdjust="spacing" textLength="40.5303" x="166.1387" y="932.167">Client</text></g><g class="participant participant-head" data-participant="gateway"><rect fill="#E2E2F0" height="46.5938" rx="2.5" ry="2.5" style="stroke:#181818;stroke-width:0.5;" width="75.8447" x="300.1582" y="157.1875"/><text fill="#000000" font-family="sans-serif" font-size="14" lengthAdjust="spacing" textLength="22.1484" x="327.0063" y="177.1826">API</text><text fill="#000000" font-family="sans-serif" font-size="14" lengthAdjust="spacing" textLength="61.8447" x="307.1582" y="193.4795">Gateway</text></g><g class="participant participant-tail" data-participant="gateway"><rect fill="#E2E2F0" height="46.5938" rx="2.5" ry="2.5" style="stroke:#181818;stroke-width:0.5;" width="75.8447" x="300.1582" y="912.1719"/><text fill="#000000" font-family="sans-serif" font-size="14" lengthAdjust="spacing" textLength="22.1484" x="327.0063" y="932.167">API</text><text fill="#000000" font-family="sans-serif" font-size="14" lengthAdjust="spacing" textLength="61.8447" x="307.1582" y="948.4639">Gateway</text></g><g class="participant participant-head" data-participant="auth"><rect fill="#E2E2F0" height="46.5938" rx="2.5" ry="2.5" style="stroke:#181818;stroke-width:0.5;" width="65.7412" x="466.605" y="157.1875"/><text fill="#000000" font-family="sans-serif" font-size="14" lengthAdjust="spacing" textLength="38.9033" x="480.0239" y="177.1826">AUTH</text><text fill="#000000" font-family="sans-serif" font-size="14" lengthAdjust="spacing" textLength="51.7412" x="473.605" y="193.4795">Service</text></g><g class="participant participant-tail" data-participant="auth"><rect fill="#E2E2F0" height="46.5938" rx="2.5" ry="2.5" style="stroke:#181818;stroke-width:0.5;" width="65.7412" x="466.605" y="912.1719"/><text fill="#000000" font-family="sans-serif" font-size="14" lengthAdjust="spacing" textLength="38.9033" x="480.0239" y="932.167">AUTH</text><text fill="#000000" font-family="sans-serif" font-size="14" lengthAdjust="spacing" textLength="51.7412" x="473.605" y="948.4639">Service</text></g><g class="participant participant-head" data-participant="tokenCache"><text fill="#000000" font-family="sans-serif" font-size="14" lengthAdjust="spacing" textLength="42.7109" x="626.7969" y="185.1826">Token</text><text fill="#000000" font-family="sans-serif" font-size="14" lengthAdjust="spacing" textLength="43.5381" x="626.3833" y="201.4795">Cach&#233;</text><path d="M633.1523,136.1875 C633.1523,126.1875 651.1523,126.1875 651.1523,126.1875 C651.1523,126.1875 669.1523,126.1875 669.1523,136.1875 L669.1523,162.1875 C669.1523,172.1875 651.1523,172.1875 651.1523,172.1875 C651.1523,172.1875 633.1523,172.1875 633.1523,162.1875 L633.1523,136.1875" fill="#E2E2F0" style="stroke:#181818;stroke-width:1.5;"/><path d="M633.1523,136.1875 C633.1523,146.1875 651.1523,146.1875 651.1523,146.1875 C651.1523,146.1875 669.1523,146.1875 669.1523,136.1875" fill="none" style="stroke:#181818;stroke-width:1.5;"/></g><g class="participant participant-tail" data-participant="tokenCache"><text fill="#000000" font-family="sans-serif" font-size="14" lengthAdjust="spacing" textLength="42.7109" x="626.7969" y="925.167">Token</text><text fill="#000000" font-family="sans-serif" font-size="14" lengthAdjust="spacing" textLength="43.5381" x="626.3833" y="941.4639">Cach&#233;</text><path d="M633.1523,954.7656 C633.1523,944.7656 651.1523,944.7656 651.1523,944.7656 C651.1523,944.7656 669.1523,944.7656 669.1523,954.7656 L669.1523,980.7656 C669.1523,990.7656 651.1523,990.7656 651.1523,990.7656 C651.1523,990.7656 633.1523,990.7656 633.1523,980.7656 L633.1523,954.7656" fill="#E2E2F0" style="stroke:#181818;stroke-width:1.5;"/><path d="M633.1523,954.7656 C633.1523,964.7656 651.1523,964.7656 651.1523,964.7656 C651.1523,964.7656 669.1523,964.7656 669.1523,954.7656" fill="none" style="stroke:#181818;stroke-width:1.5;"/></g><g class="participant participant-head" data-participant="userDB"><text fill="#000000" font-family="sans-serif" font-size="14" lengthAdjust="spacing" textLength="31.9102" x="685.9214" y="185.1826">User</text><text fill="#000000" font-family="sans-serif" font-size="14" lengthAdjust="spacing" textLength="20.3848" x="691.6841" y="201.4795">DB</text><path d="M686.8765,136.1875 C686.8765,126.1875 704.8765,126.1875 704.8765,126.1875 C704.8765,126.1875 722.8765,126.1875 722.8765,136.1875 L722.8765,162.1875 C722.8765,172.1875 704.8765,172.1875 704.8765,172.1875 C704.8765,172.1875 686.8765,172.1875 686.8765,162.1875 L686.8765,136.1875" fill="#E2E2F0" style="stroke:#181818;stroke-width:1.5;"/><path d="M686.8765,136.1875 C686.8765,146.1875 704.8765,146.1875 704.8765,146.1875 C704.8765,146.1875 722.8765,146.1875 722.8765,136.1875" fill="none" style="stroke:#181818;stroke-width:1.5;"/></g><g class="participant participant-tail" data-participant="userDB"><text fill="#000000" font-family="sans-serif" font-size="14" lengthAdjust="spacing" textLength="31.9102" x="685.9214" y="925.167">User</text><text fill="#000000" font-family="sans-serif" font-size="14" lengthAdjust="spacing" textLength="20.3848" x="691.6841" y="941.4639">DB</text><path d="M686.8765,954.7656 C686.8765,944.7656 704.8765,944.7656 704.8765,944.7656 C704.8765,944.7656 722.8765,944.7656 722.8765,954.7656 L722.8765,980.7656 C722.8765,990.7656 704.8765,990.7656 704.8765,990.7656 C704.8765,990.7656 686.8765,990.7656 686.8765,980.7656 L686.8765,954.7656" fill="#E2E2F0" style="stroke:#181818;stroke-width:1.5;"/><path d="M686.8765,954.7656 C686.8765,964.7656 704.8765,964.7656 704.8765,964.7656 C704.8765,964.7656 722.8765,964.7656 722.8765,954.7656" fill="none" style="stroke:#181818;stroke-width:1.5;"/></g><rect fill="#EEEEEE" height="3" style="stroke:#EEEEEE;stroke-width:1;" width="728.8315" x="0" y="235.3477"/><line style="stroke:#000000;stroke-width:1;" x1="0" x2="728.8315" y1="235.3477" y2="235.3477"/><line style="stroke:#000000;stroke-width:1;" x1="0" x2="728.8315" y1="238.3477" y2="238.3477"/><rect fill="#EEEEEE" height="23.1328" style="stroke:#000000;stroke-width:2;" width="183.5205" x="272.6555" y="224.7813"/><text fill="#000000" font-family="sans-serif" font-size="13" font-weight="bold" lengthAdjust="spacing" textLength="164.9946" x="278.6555" y="240.8481">Usuario solicita logout</text><g class="message" data-participant-1="user" data-participant-2="client"><polygon fill="#181818" points="174.4038,275.0469,184.4038,279.0469,174.4038,283.0469,178.4038,279.0469" style="stroke:#181818;stroke-width:1;"/><line style="stroke:#181818;stroke-width:1;" x1="23.9551" x2="180.4038" y1="279.0469" y2="279.0469"/><text fill="#000000" font-family="sans-serif" font-size="13" lengthAdjust="spacing" textLength="138.4487" x="30.9551" y="273.981">Notifica cerrar sesi&#243;n</text></g><g class="message" data-participant-1="client" data-participant-2="gateway"><polygon fill="#0000FF" points="326.0806,319.3125,336.0806,323.3125,326.0806,327.3125,330.0806,323.3125" style="stroke:#0000FF;stroke-width:1;"/><line style="stroke:#0000FF;stroke-width:1;" x1="186.4038" x2="332.0806" y1="323.3125" y2="323.3125"/><text fill="#000000" font-family="sans-serif" font-size="13" lengthAdjust="spacing" textLength="83.8843" x="193.4038" y="303.1138">POST /logout</text><text fill="#000000" font-family="sans-serif" font-size="13" lengthAdjust="spacing" textLength="127.6768" x="193.4038" y="318.2466">{REFRESH_TOKEN}</text></g><rect fill="#EEEEEE" height="3" style="stroke:#EEEEEE;stroke-width:1;" width="728.8315" x="0" y="351.8789"/><line style="stroke:#000000;stroke-width:1;" x1="0" x2="728.8315" y1="351.8789" y2="351.8789"/><line style="stroke:#000000;stroke-width:1;" x1="0" x2="728.8315" y1="354.8789" y2="354.8789"/><rect fill="#EEEEEE" height="23.1328" style="stroke:#000000;stroke-width:2;" width="180.8735" x="273.979" y="341.3125"/><text fill="#000000" font-family="sans-serif" font-size="13" font-weight="bold" lengthAdjust="spacing" textLength="162.3477" x="279.979" y="357.3794">Inval&#237;da refresh token</text><g class="message" data-participant-1="gateway" data-participant-2="auth"><polygon fill="#800080" points="487.4756,406.7109,497.4756,410.7109,487.4756,414.7109,491.4756,410.7109" style="stroke:#800080;stroke-width:1;"/><line style="stroke:#800080;stroke-width:1;" x1="338.0806" x2="493.4756" y1="410.7109" y2="410.7109"/><text fill="#000000" font-family="sans-serif" font-size="13" lengthAdjust="spacing" textLength="137.395" x="345.0806" y="390.5122">Invalida credenciales</text><text fill="#000000" font-family="sans-serif" font-size="13" lengthAdjust="spacing" textLength="127.6768" x="345.0806" y="405.645">{REFRESH_TOKEN}</text></g><g class="message" data-participant-1="auth" data-participant-2="tokenCache"><polygon fill="#181818" points="639.1523,450.9766,649.1523,454.9766,639.1523,458.9766,643.1523,454.9766" style="stroke:#181818;stroke-width:1;"/><line style="stroke:#181818;stroke-width:1;" x1="499.4756" x2="645.1523" y1="454.9766" y2="454.9766"/><text fill="#000000" font-family="sans-serif" font-size="13" lengthAdjust="spacing" textLength="66.4155" x="506.4756" y="434.7778">DEL token</text><text fill="#000000" font-family="sans-serif" font-size="13" lengthAdjust="spacing" textLength="127.6768" x="506.4756" y="449.9106">{REFRESH_TOKEN}</text></g><g class="message" data-participant-1="auth" data-participant-2="userDB"><polygon fill="#181818" points="692.8765,495.2422,702.8765,499.2422,692.8765,503.2422,696.8765,499.2422" style="stroke:#181818;stroke-width:1;"/><line style="stroke:#181818;stroke-width:1;" x1="499.4756" x2="698.8765" y1="499.2422" y2="499.2422"/><text fill="#000000" font-family="sans-serif" font-size="13" lengthAdjust="spacing" textLength="90.7842" x="506.4756" y="479.0435">DELETE token</text><text fill="#000000" font-family="sans-serif" font-size="13" lengthAdjust="spacing" textLength="127.6768" x="506.4756" y="494.1763">{REFRESH_TOKEN}</text></g><path d="M149.1387,514.2422 L213.5815,514.2422 L213.5815,521.375 L203.5815,531.375 L149.1387,531.375 L149.1387,514.2422" fill="#EEEEEE" style="stroke:#000000;stroke-width:1.5;"/><rect fill="none" height="381.9297" style="stroke:#000000;stroke-width:1.5;" width="393.2075" x="149.1387" y="514.2422"/><text fill="#000000" font-family="sans-serif" font-size="13" font-weight="bold" lengthAdjust="spacing" textLength="19.4429" x="164.1387" y="527.3091">alt</text><text fill="#000000" font-family="sans-serif" font-size="11" font-weight="bold" lengthAdjust="spacing" textLength="118.6421" x="228.5815" y="526.4526">[Operaci&#243;n Fallida]</text><g class="message" data-participant-1="auth" data-participant-2="gateway"><polygon fill="#800080" points="349.0806,548.5078,339.0806,552.5078,349.0806,556.5078,345.0806,552.5078" style="stroke:#800080;stroke-width:1;"/><line style="stroke:#800080;stroke-width:1;" x1="343.0806" x2="498.4756" y1="552.5078" y2="552.5078"/><text fill="#000000" font-family="sans-serif" font-size="13" lengthAdjust="spacing" textLength="51.2827" x="355.0806" y="547.4419">Payload</text></g><path d="M343,565.5078 L343,650.5078 L466,650.5078 L466,575.5078 L456,565.5078 L343,565.5078" fill="#FEFFDD" style="stroke:#181818;stroke-width:0.5;"/><path d="M456,565.5078 L456,575.5078 L466,575.5078 L456,565.5078" fill="#FEFFDD" style="stroke:#181818;stroke-width:0.5;"/><text fill="#000000" font-family="sans-serif" font-size="13" lengthAdjust="spacing" textLength="55.6626" x="349" y="582.5747">Payload:</text><text fill="#000000" font-family="sans-serif" font-size="13" lengthAdjust="spacing" textLength="8.271" x="349" y="597.7075">{</text><text fill="#000000" font-family="sans-serif" font-size="13" lengthAdjust="spacing" textLength="94.2437" x="357.2646" y="612.8403">"status": False</text><text fill="#000000" font-family="sans-serif" font-size="13" lengthAdjust="spacing" textLength="76.6353" x="357.2646" y="627.9731">"code": 500</text><text fill="#000000" font-family="sans-serif" font-size="13" lengthAdjust="spacing" textLength="8.271" x="349" y="643.106">}</text><g class="message" data-participant-1="gateway" data-participant-2="client"><polygon fill="#0000FF" points="197.4038,673.3047,187.4038,677.3047,197.4038,681.3047,193.4038,677.3047" style="stroke:#0000FF;stroke-width:1;"/><line style="stroke:#0000FF;stroke-width:1;" x1="191.4038" x2="337.0806" y1="677.3047" y2="677.3047"/><text fill="#000000" font-family="sans-serif" font-size="13" lengthAdjust="spacing" textLength="116.7334" x="203.4038" y="672.2388">500 - Server Error</text></g><line style="stroke:#000000;stroke-width:1;stroke-dasharray:2.0,2.0;" x1="149.1387" x2="542.3462" y1="686.3047" y2="686.3047"/><text fill="#000000" font-family="sans-serif" font-size="11" font-weight="bold" lengthAdjust="spacing" textLength="122.2622" x="154.1387" y="696.5151">[Operaci&#243;n Exitosa]</text><g class="message" data-participant-1="auth" data-participant-2="gateway"><polygon fill="#800080" points="349.0806,717.2422,339.0806,721.2422,349.0806,725.2422,345.0806,721.2422" style="stroke:#800080;stroke-width:1;"/><line style="stroke:#800080;stroke-width:1;" x1="343.0806" x2="498.4756" y1="721.2422" y2="721.2422"/><text fill="#000000" font-family="sans-serif" font-size="13" lengthAdjust="spacing" textLength="51.2827" x="355.0806" y="716.1763">Payload</text></g><path d="M343,734.2422 L343,819.2422 L462,819.2422 L462,744.2422 L452,734.2422 L343,734.2422" fill="#FEFFDD" style="stroke:#181818;stroke-width:0.5;"/><path d="M452,734.2422 L452,744.2422 L462,744.2422 L452,734.2422" fill="#FEFFDD" style="stroke:#181818;stroke-width:0.5;"/><text fill="#000000" font-family="sans-serif" font-size="13" lengthAdjust="spacing" textLength="55.6626" x="349" y="751.3091">Payload:</text><text fill="#000000" font-family="sans-serif" font-size="13" lengthAdjust="spacing" textLength="8.271" x="349" y="766.4419">{</text><text fill="#000000" font-family="sans-serif" font-size="13" lengthAdjust="spacing" textLength="89.9399" x="357.2646" y="781.5747">"status": True</text><text fill="#000000" font-family="sans-serif" font-size="13" lengthAdjust="spacing" textLength="76.6353" x="357.2646" y="796.7075">"code": 200</text><text fill="#000000" font-family="sans-serif" font-size="13" lengthAdjust="spacing" textLength="8.271" x="349" y="811.8403">}</text><g class="message" data-participant-1="gateway" data-participant-2="client"><polygon fill="#0000FF" points="197.4038,842.0391,187.4038,846.0391,197.4038,850.0391,193.4038,846.0391" style="stroke:#0000FF;stroke-width:1;"/><line style="stroke:#0000FF;stroke-width:1;" x1="191.4038" x2="337.0806" y1="846.0391" y2="846.0391"/><text fill="#000000" font-family="sans-serif" font-size="13" lengthAdjust="spacing" textLength="56.5259" x="203.4038" y="840.9731">200 - OK</text></g><g class="message" data-participant-1="client" data-participant-2="client"><line style="stroke:#181818;stroke-width:1;" x1="186.4038" x2="228.4038" y1="875.1719" y2="875.1719"/><line style="stroke:#181818;stroke-width:1;" x1="228.4038" x2="228.4038" y1="875.1719" y2="888.1719"/><line style="stroke:#181818;stroke-width:1;" x1="187.4038" x2="228.4038" y1="888.1719" y2="888.1719"/><polygon fill="#181818" points="197.4038,884.1719,187.4038,888.1719,197.4038,892.1719,193.4038,888.1719" style="stroke:#181818;stroke-width:1;"/><text fill="#000000" font-family="sans-serif" font-size="13" lengthAdjust="spacing" textLength="96.4146" x="193.4038" y="870.106">Limpiar tokens</text></g><rect fill="#DDDDDD" height="58.8906" rx="7.5" ry="7.5" style="stroke:#000000;stroke-width:1;" width="215.085" x="256.3733" y="54.2969"/><text fill="#000000" font-family="sans-serif" font-size="14" lengthAdjust="spacing" textLength="64.3672" x="261.3733" y="72.292">Leyenda:</text><text fill="#000000" font-family="sans-serif" font-size="14" lengthAdjust="spacing" textLength="5.0518" x="261.3733" y="88.5889">-</text><text fill="#0000FF" font-family="sans-serif" font-size="14" lengthAdjust="spacing" textLength="36.0117" x="270.8752" y="88.5889">REST</text><text fill="#000000" font-family="sans-serif" font-size="14" lengthAdjust="spacing" textLength="153.542" x="311.3372" y="88.5889">= comunicaci&#243;n HTTP</text><text fill="#000000" font-family="sans-serif" font-size="14" lengthAdjust="spacing" textLength="5.0518" x="261.3733" y="104.8857">-</text><text fill="#800080" font-family="sans-serif" font-size="14" lengthAdjust="spacing" textLength="36.832" x="270.8752" y="104.8857">gRPC</text><text fill="#000000" font-family="sans-serif" font-size="14" lengthAdjust="spacing" textLength="154.3008" x="312.1575" y="104.8857">= comunicaci&#243;n gRPC</text><!--SRC=[jLDBRjim4Dtp50DbRIG8a8qG2sXikGvYn8QjhEgWc50Jcor32YILrWXoe2wwwX5yiV8ZnsuATrT1e8OpRxvlv8IJ1Db8jbyqr0HSa34K94jMR7-f8DxP5etG6MEILgHgSBfX4zfu4NFMWqkkfJRvWsofc9UBwl8qAWhe0zTFhH8SUOmrhghP7j-qff5KhEQpmL6FO6GXPShC67AdZQ-83A25rdzPWyO9BXfK3hA15AHS5emyYd-QFyokb-eZElg6cmXQ9VaTwguQBzM2pBFW567OkZLZDJfyGEi7Lkclf9PgW7oz_H4HBcZ2dGvWeSwb6bvbksA7LuonVdytKh1Q-gmEGUgLRXtq-um5NAz8rUTmgvruzFC0xfb1i-E59NllqqaO-ttHzP73RBgeu3I5MwgNUJdob8m_LzERylOr9RzMpoYtFsi4Gu-6x3eL7vDtSNpSHCzz4LhFau_mBjnGJOeBb6J_ZX_0lM8_Yno6vII5FmPEOud0iYgFOHbA1zE6JBSO8vIX70QHceDozuF0ZTHOUuH_bNO4HgpMxerny4-7oUFb9Pu0cNNeMflb8OcbdPRhchpkukmiQbxZ6LOpn8uNV-p7bsZPiUYze0TXe_pYbiPemnZvu8SjbT-5q_O_jrIPzdr7vySw-aS_vx6VwOs7T8luPfg8fqRuHOr4sl3p_WO0]--></g></svg>