<svg xmlns="http://www.w3.org/2000/svg" xmlns:xlink="http://www.w3.org/1999/xlink" contentStyleType="text/css" data-diagram-type="SEQUENCE" height="1353px" preserveAspectRatio="none" style="width:809px;height:1353px;background:#FFFFFF;" version="1.1" viewBox="0 0 809 1353" width="809px" zoomAndPan="magnify"><title>Flujo de cierre de sesi&#243;n de Usuario</title><defs/><g><text fill="#000000" font-family="sans-serif" font-size="14" font-weight="bold" lengthAdjust="spacing" textLength="283.418" x="259.1377" y="27.9951">Flujo de cierre de sesi&#243;n de Usuario</text><rect fill="none" height="758.8594" style="stroke:#000000;stroke-width:1.5;" width="653.5547" x="139.1387" y="482.9766"/><rect fill="none" height="428.3281" style="stroke:#000000;stroke-width:1.5;" width="633.5547" x="149.1387" y="549.2422"/><g><title>User</title><rect fill="#000000" fill-opacity="0.00000" height="1054.0547" width="8" x="19.9551" y="204.7813"/><line style="stroke:#181818;stroke-width:0.5;stroke-dasharray:5.0,5.0;" x1="23" x2="23" y1="204.7813" y2="1258.8359"/></g><g><title>Client</title><rect fill="#000000" fill-opacity="0.00000" height="1054.0547" width="8" x="182.4038" y="204.7813"/><line style="stroke:#181818;stroke-width:0.5;stroke-dasharray:5.0,5.0;" x1="186.1387" x2="186.1387" y1="204.7813" y2="1258.8359"/></g><g><title>API</title><rect fill="#000000" fill-opacity="0.00000" height="1054.0547" width="8" x="339.3237" y="204.7813"/><line style="stroke:#181818;stroke-width:0.5;stroke-dasharray:5.0,5.0;" x1="342.4014" x2="342.4014" y1="204.7813" y2="1258.8359"/></g><g><title>AUTH</title><rect fill="#000000" fill-opacity="0.00000" height="1054.0547" width="8" x="491.0005" y="204.7813"/><line style="stroke:#181818;stroke-width:0.5;stroke-dasharray:5.0,5.0;" x1="494.1299" x2="494.1299" y1="204.7813" y2="1258.8359"/></g><g><title>Token</title><rect fill="#000000" fill-opacity="0.00000" height="1054.0547" width="8" x="696.0142" y="204.7813"/><line style="stroke:#181818;stroke-width:0.5;stroke-dasharray:5.0,5.0;" x1="699.2451" x2="699.2451" y1="204.7813" y2="1258.8359"/></g><g><title>User</title><rect fill="#000000" fill-opacity="0.00000" height="1054.0547" width="8" x="749.7383" y="204.7813"/><line style="stroke:#181818;stroke-width:0.5;stroke-dasharray:5.0,5.0;" x1="752.7832" x2="752.7832" y1="204.7813" y2="1258.8359"/></g><g class="participant participant-head" data-participant="user"><text fill="#000000" font-family="sans-serif" font-size="14" lengthAdjust="spacing" textLength="31.9102" x="5" y="201.4795">User</text><ellipse cx="23.9551" cy="136.9844" fill="#E2E2F0" rx="8" ry="8" style="stroke:#181818;stroke-width:0.5;"/><path d="M23.9551,144.9844 L23.9551,171.9844 M10.9551,152.9844 L36.9551,152.9844 M23.9551,171.9844 L10.9551,186.9844 M23.9551,171.9844 L36.9551,186.9844" fill="none" style="stroke:#181818;stroke-width:0.5;"/></g><g class="participant participant-tail" data-participant="user"><text fill="#000000" font-family="sans-serif" font-size="14" lengthAdjust="spacing" textLength="31.9102" x="5" y="1270.8311">User</text><ellipse cx="23.9551" cy="1282.6328" fill="#E2E2F0" rx="8" ry="8" style="stroke:#181818;stroke-width:0.5;"/><path d="M23.9551,1290.6328 L23.9551,1317.6328 M10.9551,1298.6328 L36.9551,1298.6328 M23.9551,1317.6328 L10.9551,1332.6328 M23.9551,1317.6328 L36.9551,1332.6328" fill="none" style="stroke:#181818;stroke-width:0.5;"/></g><g class="participant participant-head" data-participant="client"><rect fill="#E2E2F0" height="30.2969" rx="2.5" ry="2.5" style="stroke:#181818;stroke-width:0.5;" width="54.5303" x="159.1387" y="173.4844"/><text fill="#000000" font-family="sans-serif" font-size="14" lengthAdjust="spacing" textLength="40.5303" x="166.1387" y="193.4795">Client</text></g><g class="participant participant-tail" data-participant="client"><rect fill="#E2E2F0" height="30.2969" rx="2.5" ry="2.5" style="stroke:#181818;stroke-width:0.5;" width="54.5303" x="159.1387" y="1257.8359"/><text fill="#000000" font-family="sans-serif" font-size="14" lengthAdjust="spacing" textLength="40.5303" x="166.1387" y="1277.8311">Client</text></g><g class="participant participant-head" data-participant="gateway"><rect fill="#E2E2F0" height="46.5938" rx="2.5" ry="2.5" style="stroke:#181818;stroke-width:0.5;" width="75.8447" x="305.4014" y="157.1875"/><text fill="#000000" font-family="sans-serif" font-size="14" lengthAdjust="spacing" textLength="22.1484" x="332.2495" y="177.1826">API</text><text fill="#000000" font-family="sans-serif" font-size="14" lengthAdjust="spacing" textLength="61.8447" x="312.4014" y="193.4795">Gateway</text></g><g class="participant participant-tail" data-participant="gateway"><rect fill="#E2E2F0" height="46.5938" rx="2.5" ry="2.5" style="stroke:#181818;stroke-width:0.5;" width="75.8447" x="305.4014" y="1257.8359"/><text fill="#000000" font-family="sans-serif" font-size="14" lengthAdjust="spacing" textLength="22.1484" x="332.2495" y="1277.8311">API</text><text fill="#000000" font-family="sans-serif" font-size="14" lengthAdjust="spacing" textLength="61.8447" x="312.4014" y="1294.1279">Gateway</text></g><g class="participant participant-head" data-participant="auth"><rect fill="#E2E2F0" height="46.5938" rx="2.5" ry="2.5" style="stroke:#181818;stroke-width:0.5;" width="65.7412" x="462.1299" y="157.1875"/><text fill="#000000" font-family="sans-serif" font-size="14" lengthAdjust="spacing" textLength="38.9033" x="475.5488" y="177.1826">AUTH</text><text fill="#000000" font-family="sans-serif" font-size="14" lengthAdjust="spacing" textLength="51.7412" x="469.1299" y="193.4795">Service</text></g><g class="participant participant-tail" data-participant="auth"><rect fill="#E2E2F0" height="46.5938" rx="2.5" ry="2.5" style="stroke:#181818;stroke-width:0.5;" width="65.7412" x="462.1299" y="1257.8359"/><text fill="#000000" font-family="sans-serif" font-size="14" lengthAdjust="spacing" textLength="38.9033" x="475.5488" y="1277.8311">AUTH</text><text fill="#000000" font-family="sans-serif" font-size="14" lengthAdjust="spacing" textLength="51.7412" x="469.1299" y="1294.1279">Service</text></g><g class="participant participant-head" data-participant="tokenCache"><text fill="#000000" font-family="sans-serif" font-size="14" lengthAdjust="spacing" textLength="42.7109" x="675.6587" y="185.1826">Token</text><text fill="#000000" font-family="sans-serif" font-size="14" lengthAdjust="spacing" textLength="43.5381" x="675.2451" y="201.4795">Cach&#233;</text><path d="M682.0142,136.1875 C682.0142,126.1875 700.0142,126.1875 700.0142,126.1875 C700.0142,126.1875 718.0142,126.1875 718.0142,136.1875 L718.0142,162.1875 C718.0142,172.1875 700.0142,172.1875 700.0142,172.1875 C700.0142,172.1875 682.0142,172.1875 682.0142,162.1875 L682.0142,136.1875" fill="#E2E2F0" style="stroke:#181818;stroke-width:1.5;"/><path d="M682.0142,136.1875 C682.0142,146.1875 700.0142,146.1875 700.0142,146.1875 C700.0142,146.1875 718.0142,146.1875 718.0142,136.1875" fill="none" style="stroke:#181818;stroke-width:1.5;"/></g><g class="participant participant-tail" data-participant="tokenCache"><text fill="#000000" font-family="sans-serif" font-size="14" lengthAdjust="spacing" textLength="42.7109" x="675.6587" y="1270.8311">Token</text><text fill="#000000" font-family="sans-serif" font-size="14" lengthAdjust="spacing" textLength="43.5381" x="675.2451" y="1287.1279">Cach&#233;</text><path d="M682.0142,1300.4297 C682.0142,1290.4297 700.0142,1290.4297 700.0142,1290.4297 C700.0142,1290.4297 718.0142,1290.4297 718.0142,1300.4297 L718.0142,1326.4297 C718.0142,1336.4297 700.0142,1336.4297 700.0142,1336.4297 C700.0142,1336.4297 682.0142,1336.4297 682.0142,1326.4297 L682.0142,1300.4297" fill="#E2E2F0" style="stroke:#181818;stroke-width:1.5;"/><path d="M682.0142,1300.4297 C682.0142,1310.4297 700.0142,1310.4297 700.0142,1310.4297 C700.0142,1310.4297 718.0142,1310.4297 718.0142,1300.4297" fill="none" style="stroke:#181818;stroke-width:1.5;"/></g><g class="participant participant-head" data-participant="userDB"><text fill="#000000" font-family="sans-serif" font-size="14" lengthAdjust="spacing" textLength="31.9102" x="734.7832" y="185.1826">User</text><text fill="#000000" font-family="sans-serif" font-size="14" lengthAdjust="spacing" textLength="20.3848" x="740.5459" y="201.4795">DB</text><path d="M735.7383,136.1875 C735.7383,126.1875 753.7383,126.1875 753.7383,126.1875 C753.7383,126.1875 771.7383,126.1875 771.7383,136.1875 L771.7383,162.1875 C771.7383,172.1875 753.7383,172.1875 753.7383,172.1875 C753.7383,172.1875 735.7383,172.1875 735.7383,162.1875 L735.7383,136.1875" fill="#E2E2F0" style="stroke:#181818;stroke-width:1.5;"/><path d="M735.7383,136.1875 C735.7383,146.1875 753.7383,146.1875 753.7383,146.1875 C753.7383,146.1875 771.7383,146.1875 771.7383,136.1875" fill="none" style="stroke:#181818;stroke-width:1.5;"/></g><g class="participant participant-tail" data-participant="userDB"><text fill="#000000" font-family="sans-serif" font-size="14" lengthAdjust="spacing" textLength="31.9102" x="734.7832" y="1270.8311">User</text><text fill="#000000" font-family="sans-serif" font-size="14" lengthAdjust="spacing" textLength="20.3848" x="740.5459" y="1287.1279">DB</text><path d="M735.7383,1300.4297 C735.7383,1290.4297 753.7383,1290.4297 753.7383,1290.4297 C753.7383,1290.4297 771.7383,1290.4297 771.7383,1300.4297 L771.7383,1326.4297 C771.7383,1336.4297 753.7383,1336.4297 753.7383,1336.4297 C753.7383,1336.4297 735.7383,1336.4297 735.7383,1326.4297 L735.7383,1300.4297" fill="#E2E2F0" style="stroke:#181818;stroke-width:1.5;"/><path d="M735.7383,1300.4297 C735.7383,1310.4297 753.7383,1310.4297 753.7383,1310.4297 C753.7383,1310.4297 771.7383,1310.4297 771.7383,1300.4297" fill="none" style="stroke:#181818;stroke-width:1.5;"/></g><rect fill="#EEEEEE" height="3" style="stroke:#EEEEEE;stroke-width:1;" width="802.6934" x="0" y="235.3477"/><line style="stroke:#000000;stroke-width:1;" x1="0" x2="802.6934" y1="235.3477" y2="235.3477"/><line style="stroke:#000000;stroke-width:1;" x1="0" x2="802.6934" y1="238.3477" y2="238.3477"/><rect fill="#EEEEEE" height="23.1328" style="stroke:#000000;stroke-width:2;" width="183.5205" x="309.5864" y="224.7813"/><text fill="#000000" font-family="sans-serif" font-size="13" font-weight="bold" lengthAdjust="spacing" textLength="164.9946" x="315.5864" y="240.8481">Usuario solicita logout</text><g class="message" data-participant-1="user" data-participant-2="client"><polygon fill="#181818" points="174.4038,275.0469,184.4038,279.0469,174.4038,283.0469,178.4038,279.0469" style="stroke:#181818;stroke-width:1;"/><line style="stroke:#181818;stroke-width:1;" x1="23.9551" x2="180.4038" y1="279.0469" y2="279.0469"/><text fill="#000000" font-family="sans-serif" font-size="13" lengthAdjust="spacing" textLength="138.4487" x="30.9551" y="273.981">Notifica cerrar sesi&#243;n</text></g><g class="message" data-participant-1="client" data-participant-2="gateway"><polygon fill="#0000FF" points="331.3237,319.3125,341.3237,323.3125,331.3237,327.3125,335.3237,323.3125" style="stroke:#0000FF;stroke-width:1;"/><line style="stroke:#0000FF;stroke-width:1;" x1="186.4038" x2="337.3237" y1="323.3125" y2="323.3125"/><text fill="#000000" font-family="sans-serif" font-size="13" lengthAdjust="spacing" textLength="83.8843" x="193.4038" y="303.1138">POST /logout</text><text fill="#000000" font-family="sans-serif" font-size="13" lengthAdjust="spacing" textLength="127.6768" x="193.4038" y="318.2466">{REFRESH_TOKEN}</text></g><rect fill="#EEEEEE" height="3" style="stroke:#EEEEEE;stroke-width:1;" width="802.6934" x="0" y="351.8789"/><line style="stroke:#000000;stroke-width:1;" x1="0" x2="802.6934" y1="351.8789" y2="351.8789"/><line style="stroke:#000000;stroke-width:1;" x1="0" x2="802.6934" y1="354.8789" y2="354.8789"/><rect fill="#EEEEEE" height="23.1328" style="stroke:#000000;stroke-width:2;" width="183.9775" x="309.3579" y="341.3125"/><text fill="#000000" font-family="sans-serif" font-size="13" font-weight="bold" lengthAdjust="spacing" textLength="165.4517" x="315.3579" y="357.3794">Invalidaci&#243;n de tokens</text><g class="message" data-participant-1="gateway" data-participant-2="auth"><polygon fill="#800080" points="483.0005,406.7109,493.0005,410.7109,483.0005,414.7109,487.0005,410.7109" style="stroke:#800080;stroke-width:1;"/><line style="stroke:#800080;stroke-width:1;" x1="343.3237" x2="489.0005" y1="410.7109" y2="410.7109"/><text fill="#000000" font-family="sans-serif" font-size="13" lengthAdjust="spacing" textLength="98.8965" x="350.3237" y="390.5122">Invalida tokens</text><text fill="#000000" font-family="sans-serif" font-size="13" lengthAdjust="spacing" textLength="127.6768" x="350.3237" y="405.645">{REFRESH_TOKEN}</text></g><g class="message" data-participant-1="auth" data-participant-2="auth"><line style="stroke:#181818;stroke-width:1;" x1="495.0005" x2="537.0005" y1="454.9766" y2="454.9766"/><line style="stroke:#181818;stroke-width:1;" x1="537.0005" x2="537.0005" y1="454.9766" y2="467.9766"/><line style="stroke:#181818;stroke-width:1;" x1="496.0005" x2="537.0005" y1="467.9766" y2="467.9766"/><polygon fill="#181818" points="506.0005,463.9766,496.0005,467.9766,506.0005,471.9766,502.0005,467.9766" style="stroke:#181818;stroke-width:1;"/><text fill="#000000" font-family="sans-serif" font-size="13" lengthAdjust="spacing" textLength="114.042" x="502.0005" y="434.7778">Comprueba firma</text><text fill="#000000" font-family="sans-serif" font-size="13" lengthAdjust="spacing" textLength="123.2842" x="502.0005" y="449.9106">de ACCESS_TOKEN</text></g><path d="M139.1387,482.9766 L203.5815,482.9766 L203.5815,490.1094 L193.5815,500.1094 L139.1387,500.1094 L139.1387,482.9766" fill="#EEEEEE" style="stroke:#000000;stroke-width:1.5;"/><rect fill="none" height="758.8594" style="stroke:#000000;stroke-width:1.5;" width="653.5547" x="139.1387" y="482.9766"/><text fill="#000000" font-family="sans-serif" font-size="13" font-weight="bold" lengthAdjust="spacing" textLength="19.4429" x="154.1387" y="496.0435">alt</text><text fill="#000000" font-family="sans-serif" font-size="11" font-weight="bold" lengthAdjust="spacing" textLength="177.5791" x="218.5815" y="495.187">[ACCESS_TOKEN Modificado]</text><g class="message" data-participant-1="auth" data-participant-2="auth"><line style="stroke:#181818;stroke-width:1;" x1="495.0005" x2="537.0005" y1="521.2422" y2="521.2422"/><line style="stroke:#181818;stroke-width:1;" x1="537.0005" x2="537.0005" y1="521.2422" y2="534.2422"/><line style="stroke:#181818;stroke-width:1;" x1="496.0005" x2="537.0005" y1="534.2422" y2="534.2422"/><polygon fill="#181818" points="506.0005,530.2422,496.0005,534.2422,506.0005,538.2422,502.0005,534.2422" style="stroke:#181818;stroke-width:1;"/><text fill="#000000" font-family="sans-serif" font-size="13" lengthAdjust="spacing" textLength="191.0137" x="502.0005" y="516.1763">Comprueba REFRESH_TOKEN</text></g><path d="M149.1387,549.2422 L213.5815,549.2422 L213.5815,556.375 L203.5815,566.375 L149.1387,566.375 L149.1387,549.2422" fill="#EEEEEE" style="stroke:#000000;stroke-width:1.5;"/><rect fill="none" height="428.3281" style="stroke:#000000;stroke-width:1.5;" width="633.5547" x="149.1387" y="549.2422"/><text fill="#000000" font-family="sans-serif" font-size="13" font-weight="bold" lengthAdjust="spacing" textLength="19.4429" x="164.1387" y="562.3091">alt</text><text fill="#000000" font-family="sans-serif" font-size="11" font-weight="bold" lengthAdjust="spacing" textLength="167.5835" x="228.5815" y="561.4526">[REFRESH_TOKEN Inv&#225;lido]</text><g class="message" data-participant-1="auth" data-participant-2="gateway"><polygon fill="#800080" points="354.3237,583.5078,344.3237,587.5078,354.3237,591.5078,350.3237,587.5078" style="stroke:#800080;stroke-width:1;"/><line style="stroke:#800080;stroke-width:1;stroke-dasharray:2.0,2.0;" x1="348.3237" x2="494.0005" y1="587.5078" y2="587.5078"/><text fill="#000000" font-family="sans-serif" font-size="13" lengthAdjust="spacing" textLength="51.2827" x="360.3237" y="582.4419">Payload</text></g><path d="M348,600.5078 L348,685.5078 L471,685.5078 L471,610.5078 L461,600.5078 L348,600.5078" fill="#FEFFDD" style="stroke:#181818;stroke-width:0.5;"/><path d="M461,600.5078 L461,610.5078 L471,610.5078 L461,600.5078" fill="#FEFFDD" style="stroke:#181818;stroke-width:0.5;"/><text fill="#000000" font-family="sans-serif" font-size="13" lengthAdjust="spacing" textLength="55.6626" x="354" y="617.5747">Payload:</text><text fill="#000000" font-family="sans-serif" font-size="13" lengthAdjust="spacing" textLength="8.271" x="354" y="632.7075">{</text><text fill="#000000" font-family="sans-serif" font-size="13" lengthAdjust="spacing" textLength="94.2437" x="362.2646" y="647.8403">"status": False</text><text fill="#000000" font-family="sans-serif" font-size="13" lengthAdjust="spacing" textLength="76.6353" x="362.2646" y="662.9731">"code": 401</text><text fill="#000000" font-family="sans-serif" font-size="13" lengthAdjust="spacing" textLength="8.271" x="354" y="678.106">}</text><g class="message" data-participant-1="gateway" data-participant-2="client"><polygon fill="#0000FF" points="197.4038,708.3047,187.4038,712.3047,197.4038,716.3047,193.4038,712.3047" style="stroke:#0000FF;stroke-width:1;"/><line style="stroke:#0000FF;stroke-width:1;" x1="191.4038" x2="342.3237" y1="712.3047" y2="712.3047"/><text fill="#000000" font-family="sans-serif" font-size="13" lengthAdjust="spacing" textLength="132.9199" x="203.4038" y="707.2388">401 - No autorizado.</text></g><line style="stroke:#000000;stroke-width:1;stroke-dasharray:2.0,2.0;" x1="149.1387" x2="782.6934" y1="721.3047" y2="721.3047"/><text fill="#000000" font-family="sans-serif" font-size="11" font-weight="bold" lengthAdjust="spacing" textLength="157.0024" x="154.1387" y="731.5151">[REFRESH_TOKEN V&#225;lido]</text><g class="message" data-participant-1="auth" data-participant-2="tokenCache"><polygon fill="#181818" points="688.0142,767.375,698.0142,771.375,688.0142,775.375,692.0142,771.375" style="stroke:#181818;stroke-width:1;"/><line style="stroke:#181818;stroke-width:1;" x1="495.0005" x2="694.0142" y1="771.375" y2="771.375"/><text fill="#000000" font-family="sans-serif" font-size="13" lengthAdjust="spacing" textLength="66.4155" x="502.0005" y="751.1763">DEL token</text><text fill="#000000" font-family="sans-serif" font-size="13" lengthAdjust="spacing" textLength="127.6768" x="502.0005" y="766.3091">{REFRESH_TOKEN}</text></g><g class="message" data-participant-1="auth" data-participant-2="userDB"><polygon fill="#181818" points="741.7383,811.6406,751.7383,815.6406,741.7383,819.6406,745.7383,815.6406" style="stroke:#181818;stroke-width:1;"/><line style="stroke:#181818;stroke-width:1;" x1="495.0005" x2="747.7383" y1="815.6406" y2="815.6406"/><text fill="#000000" font-family="sans-serif" font-size="13" lengthAdjust="spacing" textLength="90.7842" x="502.0005" y="795.4419">DELETE token</text><text fill="#000000" font-family="sans-serif" font-size="13" lengthAdjust="spacing" textLength="127.6768" x="502.0005" y="810.5747">{REFRESH_TOKEN}</text></g><g class="message" data-participant-1="auth" data-participant-2="gateway"><polygon fill="#800080" points="354.3237,840.7734,344.3237,844.7734,354.3237,848.7734,350.3237,844.7734" style="stroke:#800080;stroke-width:1;"/><line style="stroke:#800080;stroke-width:1;" x1="348.3237" x2="494.0005" y1="844.7734" y2="844.7734"/><text fill="#000000" font-family="sans-serif" font-size="13" lengthAdjust="spacing" textLength="51.2827" x="360.3237" y="839.7075">Payload</text></g><path d="M348,857.7734 L348,942.7734 L467,942.7734 L467,867.7734 L457,857.7734 L348,857.7734" fill="#FEFFDD" style="stroke:#181818;stroke-width:0.5;"/><path d="M457,857.7734 L457,867.7734 L467,867.7734 L457,857.7734" fill="#FEFFDD" style="stroke:#181818;stroke-width:0.5;"/><text fill="#000000" font-family="sans-serif" font-size="13" lengthAdjust="spacing" textLength="55.6626" x="354" y="874.8403">Payload:</text><text fill="#000000" font-family="sans-serif" font-size="13" lengthAdjust="spacing" textLength="8.271" x="354" y="889.9731">{</text><text fill="#000000" font-family="sans-serif" font-size="13" lengthAdjust="spacing" textLength="89.9399" x="362.2646" y="905.106">"status": True</text><text fill="#000000" font-family="sans-serif" font-size="13" lengthAdjust="spacing" textLength="76.6353" x="362.2646" y="920.2388">"code": 200</text><text fill="#000000" font-family="sans-serif" font-size="13" lengthAdjust="spacing" textLength="8.271" x="354" y="935.3716">}</text><g class="message" data-participant-1="gateway" data-participant-2="client"><polygon fill="#0000FF" points="197.4038,965.5703,187.4038,969.5703,197.4038,973.5703,193.4038,969.5703" style="stroke:#0000FF;stroke-width:1;"/><line style="stroke:#0000FF;stroke-width:1;" x1="191.4038" x2="342.3237" y1="969.5703" y2="969.5703"/><text fill="#000000" font-family="sans-serif" font-size="13" lengthAdjust="spacing" textLength="56.5259" x="203.4038" y="964.5044">200 - OK</text></g><line style="stroke:#000000;stroke-width:1;stroke-dasharray:2.0,2.0;" x1="139.1387" x2="792.6934" y1="985.5703" y2="985.5703"/><text fill="#000000" font-family="sans-serif" font-size="11" font-weight="bold" lengthAdjust="spacing" textLength="198.1719" x="144.1387" y="995.7808">[ACCESS_TOKEN No Modificado]</text><g class="message" data-participant-1="auth" data-participant-2="tokenCache"><polygon fill="#181818" points="688.0142,1031.6406,698.0142,1035.6406,688.0142,1039.6406,692.0142,1035.6406" style="stroke:#181818;stroke-width:1;"/><line style="stroke:#181818;stroke-width:1;" x1="495.0005" x2="694.0142" y1="1035.6406" y2="1035.6406"/><text fill="#000000" font-family="sans-serif" font-size="13" lengthAdjust="spacing" textLength="66.4155" x="502.0005" y="1015.4419">DEL token</text><text fill="#000000" font-family="sans-serif" font-size="13" lengthAdjust="spacing" textLength="127.6768" x="502.0005" y="1030.5747">{REFRESH_TOKEN}</text></g><g class="message" data-participant-1="auth" data-participant-2="userDB"><polygon fill="#181818" points="741.7383,1075.9063,751.7383,1079.9063,741.7383,1083.9063,745.7383,1079.9063" style="stroke:#181818;stroke-width:1;"/><line style="stroke:#181818;stroke-width:1;" x1="495.0005" x2="747.7383" y1="1079.9063" y2="1079.9063"/><text fill="#000000" font-family="sans-serif" font-size="13" lengthAdjust="spacing" textLength="90.7842" x="502.0005" y="1059.7075">DELETE token</text><text fill="#000000" font-family="sans-serif" font-size="13" lengthAdjust="spacing" textLength="127.6768" x="502.0005" y="1074.8403">{REFRESH_TOKEN}</text></g><g class="message" data-participant-1="auth" data-participant-2="gateway"><polygon fill="#800080" points="354.3237,1105.0391,344.3237,1109.0391,354.3237,1113.0391,350.3237,1109.0391" style="stroke:#800080;stroke-width:1;"/><line style="stroke:#800080;stroke-width:1;" x1="348.3237" x2="494.0005" y1="1109.0391" y2="1109.0391"/><text fill="#000000" font-family="sans-serif" font-size="13" lengthAdjust="spacing" textLength="51.2827" x="360.3237" y="1103.9731">Payload</text></g><path d="M348,1122.0391 L348,1207.0391 L467,1207.0391 L467,1132.0391 L457,1122.0391 L348,1122.0391" fill="#FEFFDD" style="stroke:#181818;stroke-width:0.5;"/><path d="M457,1122.0391 L457,1132.0391 L467,1132.0391 L457,1122.0391" fill="#FEFFDD" style="stroke:#181818;stroke-width:0.5;"/><text fill="#000000" font-family="sans-serif" font-size="13" lengthAdjust="spacing" textLength="55.6626" x="354" y="1139.106">Payload:</text><text fill="#000000" font-family="sans-serif" font-size="13" lengthAdjust="spacing" textLength="8.271" x="354" y="1154.2388">{</text><text fill="#000000" font-family="sans-serif" font-size="13" lengthAdjust="spacing" textLength="89.9399" x="362.2646" y="1169.3716">"status": True</text><text fill="#000000" font-family="sans-serif" font-size="13" lengthAdjust="spacing" textLength="76.6353" x="362.2646" y="1184.5044">"code": 200</text><text fill="#000000" font-family="sans-serif" font-size="13" lengthAdjust="spacing" textLength="8.271" x="354" y="1199.6372">}</text><g class="message" data-participant-1="gateway" data-participant-2="client"><polygon fill="#0000FF" points="197.4038,1229.8359,187.4038,1233.8359,197.4038,1237.8359,193.4038,1233.8359" style="stroke:#0000FF;stroke-width:1;"/><line style="stroke:#0000FF;stroke-width:1;" x1="191.4038" x2="342.3237" y1="1233.8359" y2="1233.8359"/><text fill="#000000" font-family="sans-serif" font-size="13" lengthAdjust="spacing" textLength="56.5259" x="203.4038" y="1228.77">200 - OK</text></g><rect fill="#DDDDDD" height="58.8906" rx="7.5" ry="7.5" style="stroke:#000000;stroke-width:1;" width="215.085" x="293.3042" y="54.2969"/><text fill="#000000" font-family="sans-serif" font-size="14" lengthAdjust="spacing" textLength="64.3672" x="298.3042" y="72.292">Leyenda:</text><text fill="#000000" font-family="sans-serif" font-size="14" lengthAdjust="spacing" textLength="5.0518" x="298.3042" y="88.5889">-</text><text fill="#0000FF" font-family="sans-serif" font-size="14" lengthAdjust="spacing" textLength="36.0117" x="307.8062" y="88.5889">REST</text><text fill="#000000" font-family="sans-serif" font-size="14" lengthAdjust="spacing" textLength="153.542" x="348.2681" y="88.5889">= comunicaci&#243;n HTTP</text><text fill="#000000" font-family="sans-serif" font-size="14" lengthAdjust="spacing" textLength="5.0518" x="298.3042" y="104.8857">-</text><text fill="#800080" font-family="sans-serif" font-size="14" lengthAdjust="spacing" textLength="36.832" x="307.8062" y="104.8857">gRPC</text><text fill="#000000" font-family="sans-serif" font-size="14" lengthAdjust="spacing" textLength="154.3008" x="349.0884" y="104.8857">= comunicaci&#243;n gRPC</text><!--SRC=[xLInRjim4Dtv5GTrLkCMdOHOG2BBTP0qDcobInKKDCNOR6dIeAWKRf2FoTYvd-0Vwv6IxCXrCnGTkz3KyTsxk_SEji9A3i5GLbyq51oOuCPmTojvARO_bRlUb1KrGWU4IBxWgW2hr-IAR_1A8nB2ATDIcsWkAnvFqrbsUk83CVI1wLMb1AFCSusoRBB7hokpbZnUJ2V97pFS8t4bwyg4K6QrmOwu0Lf2XRzaJOqLJAofiX0aKd1b0_V8_BNxV3QvoDLxQlatkl6WHNq_GDraerpDkBaNZ7iOhUoIa89QEgSb2fRfhrpbAg5ikVtX4TP5t3T_1dDzvcfm7hJD3iu98Vr-AocKMc9LIq7gXQuizFk4E5mOrzr7SAsjk4CzWA4prBI-aFez_FJAoNuRDtD4C1dFCZYfwNBrC4s7QCdeSpQ-JAyVw-8NwfvAKJGIey6-zz8NRtYGjxRdDdQZHxkS1dk4sU721fterTfKV4xXJfWLpHKMEKkIT3QhuOYMjXE13xhmSnQQ01pdwbH4b0CYJIVi6jq-OQUEfY7QpH8-aubkfAQ51_b3QSl1YCNIxdR2XHjSv3yU_0aGb9RQgWmY659PyZRATC4nzgxtnaSU_UcMrt7lA-qbhgrhdSOy2D5lrxGsuZjAyRhDubZcOD2FXsF6-nMCO91UrLRzxjG-eTv83qwpz2Ny4J7_kPOPkdmWvTjUxw-an3oKSdovay_zTNWDEpk7MdVMxh-GBmk9URy0]--></g></svg>